{
.appVersion = "3112";
DisplayStrings = (
"0/zero.osf 1/one.osf 2/two.osf 3/three.osf 4/four.osf 5/five.osf 6/six.osf 7/seven.osf 8/eight.osf 9/nine.osf",
"Flaunt/space your/space pizza,/space cowards,/space but/space expect/space quivering/space hitmen/space to/space jack/space it.",
"ABCDEFGHIJKLMNOP\012QRSTUVWXYZLE\012abcdefghijklmnopqrstuv\012wxyz\012flatly"
);
classes = (
{
automatic = 1;

glyphs = (
{
glyphname = A;
lastChange = "2022-02-18 15:50:53 +0000";
layers = (
{
anchors = (
{
name = bottom;
position = "{748, 0}";
},
{
name = ogonek;
position = "{1411, 0}";
},
{
name = top;
position = "{738, 1400}";
}
);
layerId = "14A1E899-FED4-4F52-86F4-A1F822586E10";
paths = (
{
closed = 1;
nodes = (
"453 0 LINE",
"453 64 LINE",
"339 64 OFFCURVE",
"304 65 OFFCURVE",
"304 102 CURVE SMOOTH",
"304 121 OFFCURVE",
"310 137 OFFCURVE",
"319 161 CURVE SMOOTH",
"425 440 LINE",
"1008 440 LINE",
"1129 134 LINE SMOOTH",
"1139 108 OFFCURVE",
"1142 100 OFFCURVE",
"1142 87 CURVE SMOOTH",
"1142 64 OFFCURVE",
"1128 64 OFFCURVE",
"1002 64 CURVE",
"1002 0 LINE",
"1411 0 LINE",
"1411 64 LINE",
"1303 64 OFFCURVE",
"1282 71 OFFCURVE",
"1243 171 CURVE SMOOTH",
"754 1410 LINE",
"714 1410 LINE",
"706 1385 OFFCURVE",
"681 1358 OFFCURVE",
"653 1343 CURVE",
"676 1290 LINE",
"229 161 LINE SMOOTH",
"197 80 OFFCURVE",
"178 64 OFFCURVE",
"40 64 CURVE",
"40 0 LINE"
);
},
{
closed = 1;
nodes = (
"715 1190 LINE",
"984 508 LINE",
"452 508 LINE"
);
}
);
width = 1451;
},
{
anchors = (
{
name = bottom;
position = "{791, 0}";
},
{
name = ogonek;
position = "{1552, 0}";
},
{
name = top;
position = "{841, 1400}";
}
);
layerId = "72F22432-F665-4153-96BB-74D91BCC5F28";
paths = (
{
closed = 1;
nodes = (
"489 0 LINE",
"489 64 LINE",
"390 64 OFFCURVE",
"367 86 OFFCURVE",
"367 128 CURVE SMOOTH",
"367 146 OFFCURVE",
"376 173 OFFCURVE",
"386 201 CURVE SMOOTH",
"488 475 LINE",
"946 475 LINE",
"1058 197 LINE SMOOTH",
"1068 172 OFFCURVE",
"1074 145 OFFCURVE",
"1074 129 CURVE SMOOTH",
"1074 78 OFFCURVE",
"1051 64 OFFCURVE",
"970 64 CURVE",
"970 0 LINE",
"1552 0 LINE",
"1552 64 LINE",
"1535 64 OFFCURVE",
"1424 87 OFFCURVE",
"1372 218 CURVE SMOOTH",
"902 1410 LINE",
"839 1410 LINE",
"802 1331 OFFCURVE",
"701 1266 OFFCURVE",
"626 1232 CURVE",
"652 1169 LINE",
"279 222 LINE SMOOTH",
"230 97 OFFCURVE",
"137 64 OFFCURVE",
"39 64 CURVE",
"39 0 LINE"
);
},
{
closed = 1;
nodes = (
"710 1061 LINE",
"918 543 LINE",
"515 543 LINE"
);
}
);
width = 1591;
}
);
leftKerningGroup = A;
rightKerningGroup = A;
unicode = 0041;
},
{
glyphname = AE;
lastChange = "2021-06-10 20:36:21 +0000";
layers = (
{
anchors = (
{
name = bottom;
position = "{1075, 0}";
},
{
name = top;
position = "{1075, 1400}";
}
);
components = (
{
name = E;
transform = "{1, 0, 0, 1, 756, 0}";
}
);
layerId = "14A1E899-FED4-4F52-86F4-A1F822586E10";
paths = (
{
closed = 1;
nodes = (
"1111 1336 LINE",
"1020 1336 LINE",
"241 153 LINE SMOOTH",
"184 66 OFFCURVE",
"155 54 OFFCURVE",
"40 54 CURVE",
"40 -10 LINE",
"475 -10 LINE",
"475 54 LINE",
"366 54 OFFCURVE",
"321 57 OFFCURVE",
"321 97 CURVE SMOOTH",
"321 114 OFFCURVE",
"337 146 OFFCURVE",
"355 174 CURVE SMOOTH"
);
},
{
closed = 1;
nodes = (
"484 430 LINE",
"1130 430 LINE",
"1130 495 LINE",
"504 495 LINE"
);
}
);
width = 2059;
},
{
anchors = (
{
name = bottom;
position = "{1022, 0}";
},
{
name = top;
position = "{1022, 1400}";
}
);
components = (
{
name = E;
transform = "{1, 0, 0, 1, 719, 0}";
}
);
layerId = "72F22432-F665-4153-96BB-74D91BCC5F28";
paths = (
{
closed = 1;
nodes = (
"1067 1336 LINE",
"970 1336 LINE",
"269 211 LINE SMOOTH",
"207 112 OFFCURVE",
"158 54 OFFCURVE",
"39 54 CURVE",
"39 -10 LINE",
"463 -10 LINE",
"463 54 LINE",
"359 54 OFFCURVE",
"345 75 OFFCURVE",
"345 115 CURVE SMOOTH",
"345 129 OFFCURVE",
"332 146 OFFCURVE",
"349 174 CURVE SMOOTH"
);
},
{
closed = 1;
nodes = (
"497 483 LINE",
"1110 483 LINE",
"1110 548 LINE",
"516 548 LINE"
);
}
);
width = 2211;
}
);
leftKerningGroup = A;
leftMetricsKey = A;
rightKerningGroup = E;
rightMetricsKey = E;
unicode = 00C6;
},
{
glyphname = B;
lastChange = "2022-02-18 15:26:45 +0000";
layers = (
{
anchors = (
{
name = bottom;
position = "{627, 0}";
},
{
name = top;
position = "{627, 1400}";
}
);
layerId = "14A1E899-FED4-4F52-86F4-A1F822586E10";
paths = (
{
closed = 1;
nodes = (
"707 0 LINE SMOOTH",
"1021 0 OFFCURVE",
"1219 138 OFFCURVE",
"1219 380 CURVE SMOOTH",
"1219 624 OFFCURVE",
"1013 725 OFFCURVE",
"809 725 CURVE",
"967 725 OFFCURVE",
"1167 852 OFFCURVE",
"1167 1076 CURVE SMOOTH",
"1167 1318 OFFCURVE",
"944 1400 OFFCURVE",
"722 1400 CURVE SMOOTH",
"115 1400 LINE",
"115 1336 LINE",
"265 1336 OFFCURVE",
"297 1332 OFFCURVE",
"297 1274 CURVE SMOOTH",
"297 134 LINE SMOOTH",
"297 66 OFFCURVE",
"265 64 OFFCURVE",
"115 64 CURVE",
"115 0 LINE"
);
},
{
closed = 1;
nodes = (
"412 692 LINE",
"688 692 LINE SMOOTH",
"938 692 OFFCURVE",
"1083 595 OFFCURVE",
"1083 377 CURVE SMOOTH",
"1083 149 OFFCURVE",
"931 64 OFFCURVE",
"688 64 CURVE SMOOTH",
"412 64 LINE"
);
},
{
closed = 1;
nodes = (
"412 1336 LINE",
"707 1336 LINE SMOOTH",
"918 1336 OFFCURVE",
"1038 1264 OFFCURVE",
"1038 1070 CURVE SMOOTH",
"1038 874 OFFCURVE",
"927 758 OFFCURVE",
"674 758 CURVE SMOOTH",
"412 758 LINE"
);
}
);
width = 1294;
},
{
anchors = (
{
name = bottom;
position = "{747, 0}";
},
{
name = top;
position = "{747, 1400}";
}
);
layerId = "72F22432-F665-4153-96BB-74D91BCC5F28";
paths = (
{
closed = 1;
nodes = (
"847 0 LINE SMOOTH",
"1181 0 OFFCURVE",
"1391 157 OFFCURVE",
"1391 389 CURVE SMOOTH",
"1391 660 OFFCURVE",
"1149 730 OFFCURVE",
"938 730 CURVE",
"1052 730 OFFCURVE",
"1329 829 OFFCURVE",
"1329 1071 CURVE SMOOTH",
"1329 1313 OFFCURVE",
"1065 1400 OFFCURVE",
"792 1400 CURVE SMOOTH",
"100 1400 LINE",
"100 1336 LINE",
"243 1336 OFFCURVE",
"273 1332 OFFCURVE",
"273 1239 CURVE SMOOTH",
"273 169 LINE SMOOTH",
"273 84 OFFCURVE",
"243 64 OFFCURVE",
"100 64 CURVE",
"100 0 LINE"
);
},
{
closed = 1;
nodes = (
"543 692 LINE",
"793 692 LINE SMOOTH",
"957 692 OFFCURVE",
"1055 592 OFFCURVE",
"1055 374 CURVE SMOOTH",
"1055 160 OFFCURVE",
"983 64 OFFCURVE",
"805 64 CURVE SMOOTH",
"543 64 LINE"
);
},
{
closed = 1;
nodes = (
"543 1336 LINE",
"740 1336 LINE SMOOTH",
"931 1336 OFFCURVE",
"1021 1246 OFFCURVE",
"1021 1058 CURVE SMOOTH",
"1021 874 OFFCURVE",
"947 758 OFFCURVE",
"780 758 CURVE SMOOTH",
"543 758 LINE"
);
}
);
width = 1461;
}
);
leftKerningGroup = H;
leftMetricsKey = H;
rightKerningGroup = O;
rightMetricsKey = "=O-40";
unicode = 0042;
},
{
glyphname = C;
lastChange = "2022-02-18 15:18:11 +0000";
layers = (
{
anchors = (
{
name = bottom;
position = "{748, 0}";
},
{
name = top;
position = "{748, 1400}";
}
);
layerId = "14A1E899-FED4-4F52-86F4-A1F822586E10";
paths = (
{
closed = 1;
nodes = (
"1014 -22 OFFCURVE",
"1136 71 OFFCURVE",
"1313 234 CURVE",
"1261 287 LINE",
"1117 157 OFFCURVE",
"1003 60 OFFCURVE",
"829 60 CURVE SMOOTH",
"544 60 OFFCURVE",
"254 251 OFFCURVE",
"254 719 CURVE SMOOTH",
"254 1137 OFFCURVE",
"484 1353 OFFCURVE",
"769 1353 CURVE SMOOTH",
"1003 1353 OFFCURVE",
"1153 1250 OFFCURVE",
"1184 938 CURVE",
"1230 938 LINE",
"1251 1281 LINE",
"1211 1304 OFFCURVE",
"1007 1419 OFFCURVE",
"778 1419 CURVE SMOOTH",
"428 1419 OFFCURVE",
"115 1158 OFFCURVE",
"115 706 CURVE SMOOTH",
"115 244 OFFCURVE",
"448 -22 OFFCURVE",
"798 -22 CURVE SMOOTH"
);
}
);
width = 1428;
},
{
anchors = (
{
name = bottom;
position = "{819, 0}";
},
{
name = top;
position = "{819, 1400}";
}
);
layerId = "72F22432-F665-4153-96BB-74D91BCC5F28";
paths = (
{
closed = 1;
nodes = (
"1160 -22 OFFCURVE",
"1287 81 OFFCURVE",
"1445 234 CURVE",
"1372 298 LINE",
"1246 178 OFFCURVE",
"1128 66 OFFCURVE",
"890 66 CURVE SMOOTH",
"512 66 OFFCURVE",
"443 494 OFFCURVE",
"443 752 CURVE SMOOTH",
"443 1047 OFFCURVE",
"502 1354 OFFCURVE",
"880 1354 CURVE SMOOTH",
"1074 1354 OFFCURVE",
"1213 1184 OFFCURVE",
"1238 921 CURVE",
"1371 921 LINE",
"1415 1268 LINE",
"1322 1348 OFFCURVE",
"1116 1425 OFFCURVE",
"863 1425 CURVE SMOOTH",
"423 1425 OFFCURVE",
"110 1136 OFFCURVE",
"110 692 CURVE SMOOTH",
"110 255 OFFCURVE",
"427 -22 OFFCURVE",
"866 -22 CURVE SMOOTH"
);
}
);
width = 1555;
}
);
leftKerningGroup = O;
leftMetricsKey = O;
rightKerningGroup = C;
unicode = 0043;
},
{
glyphname = D;
lastChange = "2020-11-12 21:55:49 +0000";
layers = (
{
anchors = (
{
name = bottom;
position = "{684, 0}";
},
{
name = center;
position = "{684, 700}";
},
{
name = top;
position = "{684, 1400}";
}
);
layerId = "14A1E899-FED4-4F52-86F4-A1F822586E10";
paths = (
{
closed = 1;
nodes = (
"566 0 LINE SMOOTH",
"988 0 OFFCURVE",
"1329 246 OFFCURVE",
"1329 702 CURVE SMOOTH",
"1329 1154 OFFCURVE",
"1010 1400 OFFCURVE",
"588 1400 CURVE SMOOTH",
"115 1400 LINE",
"115 1336 LINE",
"260 1336 OFFCURVE",
"299 1334 OFFCURVE",
"299 1274 CURVE SMOOTH",
"299 138 LINE SMOOTH",
"299 70 OFFCURVE",
"262 64 OFFCURVE",
"115 64 CURVE",
"115 0 LINE"
);
},
{
closed = 1;
nodes = (
"415 1336 LINE",
"589 1336 LINE SMOOTH",
"1010 1336 OFFCURVE",
"1194 1060 OFFCURVE",
"1194 702 CURVE SMOOTH",
"1194 326 OFFCURVE",
"975 64 OFFCURVE",
"566 64 CURVE SMOOTH",
"415 64 LINE"
);
}
);
width = 1444;
},
{
anchors = (
{
name = bottom;
position = "{801, 0}";
},
{
name = center;
position = "{801, 700}";
},
{
name = top;
position = "{801, 1400}";
}
);
layerId = "72F22432-F665-4153-96BB-74D91BCC5F28";
paths = (
{
closed = 1;
nodes = (
"689 0 LINE SMOOTH",
"1161 0 OFFCURVE",
"1468 246 OFFCURVE",
"1468 702 CURVE SMOOTH",
"1468 1154 OFFCURVE",
"1146 1400 OFFCURVE",
"674 1400 CURVE SMOOTH",
"100 1400 LINE",
"100 1336 LINE",
"238 1336 OFFCURVE",
"275 1334 OFFCURVE",
"275 1239 CURVE SMOOTH",
"275 173 LINE SMOOTH",
"275 88 OFFCURVE",
"240 64 OFFCURVE",
"100 64 CURVE",
"100 0 LINE"
);
},
{
closed = 1;
nodes = (
"546 1336 LINE",
"711 1336 LINE SMOOTH",
"1071 1336 OFFCURVE",
"1125 994 OFFCURVE",
"1125 702 CURVE SMOOTH",
"1125 358 OFFCURVE",
"1058 64 OFFCURVE",
"689 64 CURVE SMOOTH",
"546 64 LINE"
);
}
);
width = 1578;
}
);
leftKerningGroup = H;
leftMetricsKey = H;
rightKerningGroup = O;
rightMetricsKey = O;
unicode = 0044;
},
{
glyphname = Eth;
lastChange = "2020-11-12 21:55:49 +0000";
layers = (
{
components = (
{
name = D;
transform = "{1, 0, 0, 1, 1, 0}";
}
);
layerId = "14A1E899-FED4-4F52-86F4-A1F822586E10";
paths = (
{
closed = 1;
nodes = (
"817 664 LINE",
"817 736 LINE",
"115 736 LINE",
"115 664 LINE"
);
}
);
width = 1445;
},
{
components = (
{
name = D;
}
);
layerId = "72F22432-F665-4153-96BB-74D91BCC5F28";
paths = (
{
closed = 1;
nodes = (
"775 655 LINE",
"775 745 LINE",
"108 745 LINE",
"108 655 LINE"
);
}
);
width = 1578;
}
);
leftKerningGroup = D;
leftMetricsKey = D;
rightKerningGroup = D;
rightMetricsKey = D;
unicode = 00D0;
},
{
glyphname = E;
lastChange = "2022-02-18 15:27:11 +0000";
layers = (
{
anchors = (
{
name = bottom;
position = "{668, 0}";
},
{
name = ogonek;
position = "{1160, 0}";
},
{
name = top;
position = "{668, 1400}";
},
{
name = topleft;
position = "{6, 1400}";
}
);
layerId = "14A1E899-FED4-4F52-86F4-A1F822586E10";
paths = (
{
closed = 1;
nodes = (
"727 703 LINE SMOOTH",
"853 703 OFFCURVE",
"866 652 OFFCURVE",
"866 526 CURVE",
"940 526 LINE",
"940 934 LINE",
"866 934 LINE",
"866 808 OFFCURVE",
"853 767 OFFCURVE",
"727 767 CURVE SMOOTH",
"402 767 LINE",
"402 703 LINE"
);
},
{
closed = 1;
nodes = (
"415 1336 LINE",
"902 1336 LINE SMOOTH",
"1023 1336 OFFCURVE",
"1080 1234 OFFCURVE",
"1121 1044 CURVE",
"1179 1044 LINE",
"1131 1400 LINE",
"115 1400 LINE",
"115 1336 LINE",
"261 1336 OFFCURVE",
"299 1331 OFFCURVE",
"299 1280 CURVE SMOOTH",
"299 136 LINE SMOOTH",
"299 68 OFFCURVE",
"257 64 OFFCURVE",
"115 64 CURVE",
"115 0 LINE",
"1160 0 LINE",
"1207 396 LINE",
"1150 396 LINE",
"1111 201 OFFCURVE",
"1061 64 OFFCURVE",
"905 64 CURVE SMOOTH",
"415 64 LINE"
);
}
);
width = 1303;
},
{
anchors = (
{
name = bottom;
position = "{749, 0}";
},
{
name = ogonek;
position = "{1343, 0}";
},
{
name = top;
position = "{749, 1400}";
},
{
name = topleft;
position = "{-27, 1400}";
}
);
layerId = "72F22432-F665-4153-96BB-74D91BCC5F28";
paths = (
{
closed = 1;
nodes = (
"750 703 LINE SMOOTH",
"899 703 OFFCURVE",
"903 640 OFFCURVE",
"903 509 CURVE",
"1009 509 LINE",
"1009 952 LINE",
"903 952 LINE",
"903 821 OFFCURVE",
"899 767 OFFCURVE",
"750 767 CURVE SMOOTH",
"521 767 LINE",
"521 703 LINE"
);
},
{
closed = 1;
nodes = (
"546 1336 LINE",
"883 1336 LINE SMOOTH",
"1058 1336 OFFCURVE",
"1156 1189 OFFCURVE",
"1189 1049 CURVE",
"1333 1049 LINE",
"1280 1400 LINE",
"100 1400 LINE",
"100 1336 LINE",
"239 1336 OFFCURVE",
"275 1331 OFFCURVE",
"275 1245 CURVE SMOOTH",
"275 171 LINE SMOOTH",
"275 86 OFFCURVE",
"235 64 OFFCURVE",
"100 64 CURVE",
"100 0 LINE",
"1343 0 LINE",
"1396 391 LINE",
"1252 391 LINE",
"1219 241 OFFCURVE",
"1130 64 OFFCURVE",
"922 64 CURVE SMOOTH",
"546 64 LINE"
);
}
);
width = 1492;
}
);
leftKerningGroup = H;
leftMetricsKey = H;
rightKerningGroup = E;
unicode = 0045;
},
{
glyphname = F;
lastChange = "2022-02-18 15:16:38 +0000";
layers = (
{
anchors = (
{
name = bottom;
position = "{554, 0}";
},
{
name = top;
position = "{554, 1400}";
}
);
layerId = "14A1E899-FED4-4F52-86F4-A1F822586E10";
paths = (
{
closed = 1;
nodes = (
"596 0 LINE",
"596 64 LINE",
"479 64 OFFCURVE",
"412 65 OFFCURVE",
"412 136 CURVE",
"412 1336 LINE",
"885 1336 LINE SMOOTH",
"997 1336 OFFCURVE",
"1042 1184 OFFCURVE",
"1077 1044 CURVE",
"1134 1044 LINE",
"1097 1400 LINE",
"115 1400 LINE",
"115 1336 LINE",
"259 1336 OFFCURVE",
"299 1335 OFFCURVE",
"299 1281 CURVE SMOOTH",
"299 136 LINE SMOOTH",
"299 65 OFFCURVE",
"256 64 OFFCURVE",
"115 64 CURVE",
"115 0 LINE"
);
},
{
closed = 1;
nodes = (
"771 650 LINE SMOOTH",
"877 650 OFFCURVE",
"890 599 OFFCURVE",
"890 473 CURVE",
"964 473 LINE",
"964 881 LINE",
"890 881 LINE",
"890 755 OFFCURVE",
"877 714 OFFCURVE",
"771 714 CURVE SMOOTH",
"406 714 LINE",
"406 650 LINE"
);
}
);
width = 1190;
},
{
anchors = (
{
name = bottom;
position = "{678, 0}";
},
{
name = top;
position = "{678, 1400}";
}
);
layerId = "72F22432-F665-4153-96BB-74D91BCC5F28";
paths = (
{
closed = 1;
nodes = (
"718 0 LINE",
"718 64 LINE",
"607 64 OFFCURVE",
"543 79 OFFCURVE",
"543 171 CURVE",
"543 1336 LINE",
"846 1336 LINE SMOOTH",
"1014 1336 OFFCURVE",
"1103 1195 OFFCURVE",
"1136 1047 CURVE",
"1279 1047 LINE",
"1219 1400 LINE",
"100 1400 LINE",
"100 1336 LINE",
"219 1336 OFFCURVE",
"275 1323 OFFCURVE",
"275 1246 CURVE SMOOTH",
"275 171 LINE SMOOTH",
"275 79 OFFCURVE",
"234 64 OFFCURVE",
"100 64 CURVE",
"100 0 LINE"
);
},
{
closed = 1;
nodes = (
"719 641 LINE SMOOTH",
"848 641 OFFCURVE",
"872 578 OFFCURVE",
"872 447 CURVE",
"978 447 LINE",
"978 890 LINE",
"872 890 LINE",
"872 759 OFFCURVE",
"848 705 OFFCURVE",
"719 705 CURVE SMOOTH",
"490 705 LINE",
"490 641 LINE"
);
}
);
width = 1335;
}
);
leftKerningGroup = H;
leftMetricsKey = H;
rightKerningGroup = F;
rightMetricsKey = "=E-40";
unicode = 0046;
},
{
glyphname = G;
lastChange = "2022-02-18 15:18:18 +0000";
layers = (
{
anchors = (
{
name = bottom;
position = "{717, 0}";
},
{
name = top;
position = "{717, 1400}";
}
);
layerId = "14A1E899-FED4-4F52-86F4-A1F822586E10";
paths = (
{
closed = 1;
nodes = (
"1097 -22 OFFCURVE",
"1223 120 OFFCURVE",
"1253 168 CURVE",
"1253 518 LINE SMOOTH",
"1253 578 OFFCURVE",
"1311 578 OFFCURVE",
"1385 578 CURVE",
"1385 642 LINE",
"912 642 LINE",
"912 578 LINE",
"1082 578 OFFCURVE",
"1140 578 OFFCURVE",
"1140 512 CURVE SMOOTH",
"1140 262 LINE SMOOTH",
"1140 146 OFFCURVE",
"1024 50 OFFCURVE",
"778 50 CURVE SMOOTH",
"421 50 OFFCURVE",
"255 330 OFFCURVE",
"255 728 CURVE SMOOTH",
"255 1106 OFFCURVE",
"421 1353 OFFCURVE",
"778 1353 CURVE SMOOTH",
"1005 1353 OFFCURVE",
"1138 1261 OFFCURVE",
"1180 958 CURVE",
"1230 958 LINE",
"1252 1280 LINE",
"1211 1314 OFFCURVE",
"1009 1419 OFFCURVE",
"766 1419 CURVE SMOOTH",
"407 1419 OFFCURVE",
"115 1150 OFFCURVE",
"115 698 CURVE SMOOTH",
"115 246 OFFCURVE",
"407 -22 OFFCURVE",
"766 -22 CURVE SMOOTH"
);
}
);
width = 1481;
},
{
anchors = (
{
name = bottom;
position = "{825, 0}";
},
{
name = top;
position = "{825, 1400}";
}
);
layerId = "72F22432-F665-4153-96BB-74D91BCC5F28";
paths = (
{
closed = 1;
nodes = (
"1185 -22 OFFCURVE",
"1431 85 OFFCURVE",
"1459 116 CURVE",
"1459 396 LINE SMOOTH",
"1459 497 OFFCURVE",
"1487 526 OFFCURVE",
"1567 526 CURVE",
"1567 590 LINE",
"957 590 LINE",
"957 526 LINE",
"1137 526 OFFCURVE",
"1173 496 OFFCURVE",
"1173 390 CURVE SMOOTH",
"1173 245 LINE SMOOTH",
"1173 154 OFFCURVE",
"1146 50 OFFCURVE",
"883 50 CURVE SMOOTH",
"544 50 OFFCURVE",
"464 435 OFFCURVE",
"464 746 CURVE SMOOTH",
"464 1071 OFFCURVE",
"542 1359 OFFCURVE",
"871 1359 CURVE SMOOTH",
"1129 1359 OFFCURVE",
"1220 1149 OFFCURVE",
"1248 936 CURVE",
"1381 936 LINE",
"1424 1270 LINE",
"1340 1344 OFFCURVE",
"1114 1425 OFFCURVE",
"869 1425 CURVE SMOOTH",
"439 1425 OFFCURVE",
"110 1150 OFFCURVE",
"110 698 CURVE SMOOTH",
"110 246 OFFCURVE",
"442 -22 OFFCURVE",
"871 -22 CURVE SMOOTH"
);
}
);
width = 1663;
}
);
leftKerningGroup = O;
leftMetricsKey = O;
rightKerningGroup = G;
rightMetricsKey = E;
unicode = 0047;
},
{
glyphname = H;
lastChange = "2022-02-18 15:23:27 +0000";
layers = (
{
anchors = (
{
name = bottom;
position = "{800, 0}";
},
{
name = center;
position = "{800, 700}";
},
{
name = top;
position = "{800, 1400}";
},
{
name = topleft;
position = "{155, 1400}";
}
);
layerId = "14A1E899-FED4-4F52-86F4-A1F822586E10";
paths = (
{
closed = 1;
nodes = (
"1484 0 LINE",
"1484 64 LINE",
"1348 64 OFFCURVE",
"1293 65 OFFCURVE",
"1293 146 CURVE SMOOTH",
"1293 1264 LINE SMOOTH",
"1293 1335 OFFCURVE",
"1362 1336 OFFCURVE",
"1484 1336 CURVE",
"1484 1400 LINE",
"1183 1400 LINE",
"1183 0 LINE"
);
},
{
closed = 1;
nodes = (
"416 0 LINE",
"416 1400 LINE",
"115 1400 LINE",
"115 1336 LINE",
"237 1336 OFFCURVE",
"306 1335 OFFCURVE",
"306 1264 CURVE SMOOTH",
"306 146 LINE SMOOTH",
"306 65 OFFCURVE",
"251 64 OFFCURVE",
"115 64 CURVE",
"115 0 LINE"
);
},
{
closed = 1;
nodes = (
"606 0 LINE",
"606 64 LINE",
"471 64 OFFCURVE",
"416 65 OFFCURVE",
"416 146 CURVE SMOOTH",
"416 1264 LINE SMOOTH",
"416 1335 OFFCURVE",
"485 1336 OFFCURVE",
"606 1336 CURVE",
"606 1400 LINE",
"306 1400 LINE",
"306 0 LINE"
);
},
{
closed = 1;
nodes = (
"1219 688 LINE",
"1219 760 LINE",
"344 760 LINE",
"344 688 LINE"
);
},
{
closed = 1;
nodes = (
"1293 0 LINE",
"1293 1400 LINE",
"992 1400 LINE",
"992 1336 LINE",
"1114 1336 OFFCURVE",
"1183 1335 OFFCURVE",
"1183 1264 CURVE SMOOTH",
"1183 146 LINE SMOOTH",
"1183 65 OFFCURVE",
"1127 64 OFFCURVE",
"992 64 CURVE",
"992 0 LINE"
);
}
);
width = 1599;
},
{
anchors = (
{
name = bottom;
position = "{875, 1400}";
},
{
name = center;
position = "{875, -700}";
},
{
name = top;
position = "{875, 1400}";
},
{
name = topleft;
position = "{-131, 1400}";
}
);
layerId = "72F22432-F665-4153-96BB-74D91BCC5F28";
paths = (
{
closed = 1;
nodes = (
"1649 0 LINE",
"1649 64 LINE",
"1519 64 OFFCURVE",
"1467 74 OFFCURVE",
"1467 181 CURVE SMOOTH",
"1467 1229 LINE SMOOTH",
"1467 1332 OFFCURVE",
"1533 1336 OFFCURVE",
"1649 1336 CURVE",
"1649 1400 LINE",
"1189 1400 LINE",
"1189 0 LINE"
);
},
{
closed = 1;
nodes = (
"561 0 LINE",
"561 1400 LINE",
"100 1400 LINE",
"100 1336 LINE",
"216 1336 OFFCURVE",
"281 1332 OFFCURVE",
"281 1229 CURVE SMOOTH",
"281 181 LINE SMOOTH",
"281 74 OFFCURVE",
"229 64 OFFCURVE",
"100 64 CURVE",
"100 0 LINE"
);
},
{
closed = 1;
nodes = (
"741 0 LINE",
"741 64 LINE",
"613 64 OFFCURVE",
"561 74 OFFCURVE",
"561 181 CURVE SMOOTH",
"561 1229 LINE SMOOTH",
"561 1332 OFFCURVE",
"626 1336 OFFCURVE",
"741 1336 CURVE",
"741 1400 LINE",
"281 1400 LINE",
"281 0 LINE"
);
},
{
closed = 1;
nodes = (
"1223 688 LINE",
"1223 762 LINE",
"403 762 LINE",
"403 688 LINE"
);
},
{
closed = 1;
nodes = (
"1467 0 LINE",
"1467 1400 LINE",
"1007 1400 LINE",
"1007 1336 LINE",
"1123 1336 OFFCURVE",
"1189 1332 OFFCURVE",
"1189 1229 CURVE SMOOTH",
"1189 181 LINE SMOOTH",
"1189 74 OFFCURVE",
"1135 64 OFFCURVE",
"1007 64 CURVE",
"1007 0 LINE"
);
}
);
width = 1749;
}
);
leftKerningGroup = H;
rightKerningGroup = H;
unicode = 0048;
},
{
glyphname = Hbar;
lastChange = "2022-02-18 15:51:34 +0000";
layers = (
{
components = (
{
name = H;
}
);
layerId = "14A1E899-FED4-4F52-86F4-A1F822586E10";
paths = (
{
closed = 1;
nodes = (
"1473 1014 LINE",
"1473 1074 LINE",
"127 1074 LINE",
"127 1014 LINE"
);
}
);
width = 1579;
},
{
components = (
{
name = H;
}
);
layerId = "72F22432-F665-4153-96BB-74D91BCC5F28";
paths = (
{
closed = 1;
nodes = (
"1646 997 LINE",
"1646 1062 LINE",
"103 1062 LINE",
"103 997 LINE"
);
}
);
width = 1769;
}
);
unicode = 0126;
},
{
glyphname = I;
lastChange = "2020-11-12 21:55:49 +0000";
layers = (
{
anchors = (
{
name = bottom;
position = "{359, 0}";
},
{
name = ogonek;
position = "{602, 0}";
},
{
name = top;
position = "{359, 1400}";
},
{
name = topleft;
position = "{-37, 1400}";
}
);
layerId = "14A1E899-FED4-4F52-86F4-A1F822586E10";
paths = (
{
closed = 1;
nodes = (
"602 0 LINE",
"602 64 LINE",
"467 64 OFFCURVE",
"412 70 OFFCURVE",
"412 146 CURVE SMOOTH",
"412 1264 LINE SMOOTH",
"412 1333 OFFCURVE",
"481 1336 OFFCURVE",
"602 1336 CURVE",
"602 1400 LINE",
"115 1400 LINE",
"115 1336 LINE",
"237 1336 OFFCURVE",
"306 1333 OFFCURVE",
"306 1264 CURVE SMOOTH",
"306 146 LINE SMOOTH",
"306 70 OFFCURVE",
"251 64 OFFCURVE",
"115 64 CURVE",
"115 0 LINE"
);
}
);
width = 717;
},
{
anchors = (
{
name = bottom;
position = "{421, 0}";
},
{
name = ogonek;
position = "{741, 0}";
},
{
name = top;
position = "{421, 1400}";
},
{
name = topleft;
position = "{45, 1400}";
}
);
layerId = "72F22432-F665-4153-96BB-74D91BCC5F28";
paths = (
{
closed = 1;
nodes = (
"741 0 LINE",
"741 64 LINE",
"613 64 OFFCURVE",
"561 70 OFFCURVE",
"561 181 CURVE SMOOTH",
"561 1229 LINE SMOOTH",
"561 1333 OFFCURVE",
"626 1336 OFFCURVE",
"741 1336 CURVE",
"741 1400 LINE",
"100 1400 LINE",
"100 1336 LINE",
"216 1336 OFFCURVE",
"281 1333 OFFCURVE",
"281 1229 CURVE SMOOTH",
"281 181 LINE SMOOTH",
"281 70 OFFCURVE",
"229 64 OFFCURVE",
"100 64 CURVE",
"100 0 LINE"
);
}
);
width = 841;
}
);
leftKerningGroup = H;
leftMetricsKey = H;
rightKerningGroup = H;
rightMetricsKey = H;
unicode = 0049;
},
{
glyphname = J;
lastChange = "2022-02-18 15:51:19 +0000";
layers = (
{
anchors = (
{
name = bottom;
position = "{555, 0}";
},
{
name = top;
position = "{632, 1400}";
}
);
layerId = "14A1E899-FED4-4F52-86F4-A1F822586E10";
paths = (
{
closed = 1;
nodes = (
"498 1336 OFFCURVE",
"577 1333 OFFCURVE",
"577 1264 CURVE SMOOTH",
"577 339 LINE SMOOTH",
"577 163 OFFCURVE",
"528 37 OFFCURVE",
"371 37 CURVE SMOOTH",
"216 37 OFFCURVE",
"150 154 OFFCURVE",
"132 488 CURVE",
"83 488 LINE",
"46 132 LINE",
"85 67 OFFCURVE",
"179 -29 OFFCURVE",
"364 -29 CURVE SMOOTH",
"556 -29 OFFCURVE",
"682 107 OFFCURVE",
"682 335 CURVE SMOOTH",
"682 1264 LINE SMOOTH",
"682 1333 OFFCURVE",
"741 1336 OFFCURVE",
"863 1336 CURVE",
"863 1400 LINE",
"376 1400 LINE",
"376 1336 LINE"
);
}
);
width = 928;
},
{
anchors = (
{
name = bottom;
position = "{592, 0}";
},
{
name = top;
position = "{749, 1400}";
}
);
layerId = "72F22432-F665-4153-96BB-74D91BCC5F28";
paths = (
{
closed = 1;
nodes = (
"538 1336 OFFCURVE",
"613 1333 OFFCURVE",
"613 1229 CURVE SMOOTH",
"613 349 LINE SMOOTH",
"613 208 OFFCURVE",
"592 44 OFFCURVE",
"443 44 CURVE SMOOTH",
"300 44 OFFCURVE",
"234 255 OFFCURVE",
"224 511 CURVE",
"101 511 LINE",
"43 110 LINE",
"113 22 OFFCURVE",
"278 -29 OFFCURVE",
"438 -29 CURVE SMOOTH",
"699 -29 OFFCURVE",
"888 110 OFFCURVE",
"888 363 CURVE SMOOTH",
"888 1229 LINE SMOOTH",
"888 1333 OFFCURVE",
"944 1336 OFFCURVE",
"1060 1336 CURVE",
"1060 1400 LINE",
"422 1400 LINE",
"422 1336 LINE"
);
}
);
width = 1110;
}
);
leftKerningGroup = J;
rightKerningGroup = J;
rightMetricsKey = "=H-50";
unicode = 004A;
},
{
glyphname = J.ss01;
lastChange = "2022-02-18 16:08:56 +0000";
layers = (
{
anchors = (
{
name = bottom;
position = "{330, -360}";
},
{
name = top;
position = "{299, 1400}";
}
);
layerId = "14A1E899-FED4-4F52-86F4-A1F822586E10";
paths = (
{
closed = 1;
nodes = (
"172 1336 OFFCURVE",
"251 1333 OFFCURVE",
"251 1244 CURVE SMOOTH",
"251 -34 LINE SMOOTH",
"251 -190 OFFCURVE",
"225 -260 OFFCURVE",
"60 -314 CURVE",
"80 -370 LINE",
"330 -281 OFFCURVE",
"364 -224 OFFCURVE",
"364 -16 CURVE SMOOTH",
"364 1244 LINE SMOOTH",
"364 1333 OFFCURVE",
"423 1336 OFFCURVE",
"545 1336 CURVE",
"545 1400 LINE",
"50 1400 LINE",
"50 1336 LINE"
);
}
);
width = 605;
},
{
anchors = (
{
name = bottom;
position = "{344, -367}";
},
{
name = top;
position = "{354, 1400}";
}
);
layerId = "72F22432-F665-4153-96BB-74D91BCC5F28";
paths = (
{
closed = 1;
nodes = (
"164 1336 OFFCURVE",
"239 1333 OFFCURVE",
"239 1244 CURVE SMOOTH",
"239 -34 LINE SMOOTH",
"239 -159 OFFCURVE",
"235 -253 OFFCURVE",
"58 -314 CURVE",
"79 -380 LINE",
"316 -311 OFFCURVE",
"507 -224 OFFCURVE",
"507 -16 CURVE SMOOTH",
"507 1244 LINE SMOOTH",
"507 1333 OFFCURVE",
"563 1336 OFFCURVE",
"679 1336 CURVE",
"679 1400 LINE",
"48 1400 LINE",
"48 1336 LINE"
);
}
);
width = 736;
}
);
},
{
glyphname = K;
lastChange = "2020-11-12 21:55:49 +0000";
layers = (
{
anchors = (
{
name = bottom;
position = "{681, 0}";
},
{
name = top;
position = "{681, 1400}";
}
);
layerId = "14A1E899-FED4-4F52-86F4-A1F822586E10";
paths = (
{
closed = 1;
nodes = (
"1322 0 LINE",
"1322 64 LINE",
"1235 64 OFFCURVE",
"1178 77 OFFCURVE",
"1131 136 CURVE SMOOTH",
"627 761 LINE",
"1120 1288 LINE SMOOTH",
"1160 1331 OFFCURVE",
"1175 1336 OFFCURVE",
"1290 1336 CURVE",
"1290 1400 LINE",
"888 1400 LINE",
"888 1336 LINE",
"968 1336 OFFCURVE",
"1021 1335 OFFCURVE",
"1021 1316 CURVE SMOOTH",
"1021 1300 OFFCURVE",
"1005 1281 OFFCURVE",
"985 1260 CURVE SMOOTH",
"368 599 LINE",
"370 483 LINE",
"553 681 LINE",
"975 159 LINE SMOOTH",
"1007 120 OFFCURVE",
"1012 110 OFFCURVE",
"1012 92 CURVE SMOOTH",
"1012 65 OFFCURVE",
"982 64 OFFCURVE",
"869 64 CURVE",
"869 0 LINE"
);
},
{
closed = 1;
nodes = (
"602 0 LINE",
"602 64 LINE",
"466 64 OFFCURVE",
"411 65 OFFCURVE",
"411 146 CURVE SMOOTH",
"411 1264 LINE SMOOTH",
"411 1336 OFFCURVE",
"480 1336 OFFCURVE",
"602 1336 CURVE",
"602 1400 LINE",
"115 1400 LINE",
"115 1336 LINE",
"237 1336 OFFCURVE",
"306 1336 OFFCURVE",
"306 1264 CURVE SMOOTH",
"306 146 LINE SMOOTH",
"306 65 OFFCURVE",
"251 64 OFFCURVE",
"115 64 CURVE",
"115 0 LINE"
);
}
);
width = 1362;
},
{
anchors = (
{
name = bottom;
position = "{813, 0}";
},
{
name = top;
position = "{813, 1400}";
}
);
layerId = "72F22432-F665-4153-96BB-74D91BCC5F28";
paths = (
{
closed = 1;
nodes = (
"1578 0 LINE",
"1578 64 LINE",
"1506 64 OFFCURVE",
"1440 72 OFFCURVE",
"1397 136 CURVE SMOOTH",
"903 883 LINE",
"1351 1288 LINE SMOOTH",
"1402 1334 OFFCURVE",
"1477 1336 OFFCURVE",
"1530 1336 CURVE",
"1530 1400 LINE",
"1078 1400 LINE",
"1078 1336 LINE",
"1153 1336 OFFCURVE",
"1172 1323 OFFCURVE",
"1172 1283 CURVE SMOOTH",
"1172 1264 OFFCURVE",
"1156 1237 OFFCURVE",
"1110 1197 CURVE SMOOTH",
"547 708 LINE",
"547 560 LINE",
"690 685 LINE",
"993 214 LINE SMOOTH",
"1020 172 OFFCURVE",
"1034 149 OFFCURVE",
"1034 130 CURVE SMOOTH",
"1034 78 OFFCURVE",
"946 64 OFFCURVE",
"884 64 CURVE",
"884 0 LINE"
);
},
{
closed = 1;
nodes = (
"738 0 LINE",
"738 64 LINE",
"609 64 OFFCURVE",
"556 74 OFFCURVE",
"556 181 CURVE SMOOTH",
"556 1229 LINE SMOOTH",
"556 1331 OFFCURVE",
"622 1336 OFFCURVE",
"738 1336 CURVE",
"738 1400 LINE",
"100 1400 LINE",
"100 1336 LINE",
"216 1336 OFFCURVE",
"281 1331 OFFCURVE",
"281 1229 CURVE SMOOTH",
"281 181 LINE SMOOTH",
"281 74 OFFCURVE",
"229 64 OFFCURVE",
"100 64 CURVE",
"100 0 LINE"
);
}
);
width = 1617;
}
);
leftKerningGroup = H;
leftMetricsKey = H;
rightKerningGroup = K;
rightMetricsKey = A;
unicode = 004B;
},
{
glyphname = L;
lastChange = "2022-02-18 15:27:02 +0000";
layers = (
{
anchors = (
{
name = bottom;
position = "{565, 0}";
},
{
name = center;
position = "{361, 700}";
},
{
name = top;
position = "{363, 1400}";
},
{
name = topright;
position = "{773, 826}";
}
);
layerId = "14A1E899-FED4-4F52-86F4-A1F822586E10";
paths = (
{
closed = 1;
nodes = (
"602 0 LINE",
"602 64 LINE",
"467 64 OFFCURVE",
"412 69 OFFCURVE",
"412 146 CURVE SMOOTH",
"412 1264 LINE SMOOTH",
"412 1334 OFFCURVE",
"481 1336 OFFCURVE",
"602 1336 CURVE",
"602 1400 LINE",
"306 1400 LINE",
"306 0 LINE"
);
},
{
closed = 1;
nodes = (
"412 0 LINE",
"412 1400 LINE",
"115 1400 LINE",
"115 1336 LINE",
"237 1336 OFFCURVE",
"306 1334 OFFCURVE",
"306 1264 CURVE SMOOTH",
"306 146 LINE SMOOTH",
"306 69 OFFCURVE",
"251 64 OFFCURVE",
"115 64 CURVE",
"115 0 LINE"
);
},
{
closed = 1;
nodes = (
"1083 0 LINE",
"1130 406 LINE",
"1063 406 LINE",
"1027 191 OFFCURVE",
"984 64 OFFCURVE",
"827 64 CURVE SMOOTH",
"494 64 LINE",
"494 0 LINE"
);
}
);
width = 1226;
},
{
anchors = (
{
name = bottom;
position = "{655, 0}";
},
{
name = center;
position = "{688, 700}";
},
{
name = top;
position = "{421, 1400}";
},
{
name = topright;
position = "{925, 826}";
}
);
layerId = "72F22432-F665-4153-96BB-74D91BCC5F28";
paths = (
{
closed = 1;
nodes = (
"741 0 LINE",
"741 64 LINE",
"613 64 OFFCURVE",
"561 71 OFFCURVE",
"561 181 CURVE SMOOTH",
"561 1229 LINE SMOOTH",
"561 1332 OFFCURVE",
"626 1336 OFFCURVE",
"741 1336 CURVE",
"741 1400 LINE",
"281 1400 LINE",
"281 0 LINE"
);
},
{
closed = 1;
nodes = (
"561 0 LINE",
"561 1400 LINE",
"100 1400 LINE",
"100 1336 LINE",
"216 1336 OFFCURVE",
"281 1332 OFFCURVE",
"281 1229 CURVE SMOOTH",
"281 181 LINE SMOOTH",
"281 71 OFFCURVE",
"229 64 OFFCURVE",
"100 64 CURVE",
"100 0 LINE"
);
},
{
closed = 1;
nodes = (
"1248 0 LINE",
"1290 404 LINE",
"1173 404 LINE",
"1139 267 OFFCURVE",
"1070 64 OFFCURVE",
"852 64 CURVE SMOOTH",
"639 64 LINE",
"639 0 LINE"
);
}
);
width = 1386;
}
);
leftKerningGroup = H;
leftMetricsKey = H;
rightKerningGroup = L;
rightMetricsKey = E;
unicode = 004C;
},
{
glyphname = Lslash;
lastChange = "2020-11-12 21:55:49 +0000";
layers = (
{
components = (
{
name = L;
transform = "{1, 0, 0, 1, 80, 0}";
}
);
layerId = "14A1E899-FED4-4F52-86F4-A1F822586E10";
paths = (
{
closed = 1;
nodes = (
"163 326 LINE",
"751 880 LINE",
"704 929 LINE",
"115 376 LINE"
);
}
);
width = 1306;
},
{
components = (
{
name = L;
transform = "{1, 0, 0, 1, 67, 0}";
}
);
layerId = "72F22432-F665-4153-96BB-74D91BCC5F28";
paths = (
{
closed = 1;
nodes = (
"176 295 LINE",
"881 983 LINE",
"806 1064 LINE",
"100 376 LINE"
);
}
);
width = 1453;
}
);
leftKerningGroup = L;
leftMetricsKey = L;
rightKerningGroup = L;
rightMetricsKey = L;
unicode = 0141;
},
{
glyphname = M;
lastChange = "2022-02-18 15:24:12 +0000";
layers = (
{
anchors = (
{
name = bottom;
position = "{977, 0}";
},
{
name = top;
position = "{977, 1400}";
}
);
layerId = "14A1E899-FED4-4F52-86F4-A1F822586E10";
paths = (
{
closed = 1;
nodes = (
"575 0 LINE",
"575 64 LINE",
"458 64 OFFCURVE",
"391 64 OFFCURVE",
"391 116 CURVE SMOOTH",
"391 1270 LINE",
"855 0 LINE",
"902 0 LINE",
"1361 1214 LINE",
"1361 116 LINE SMOOTH",
"1361 64 OFFCURVE",
"1295 64 OFFCURVE",
"1177 64 CURVE",
"1177 0 LINE",
"1648 0 LINE",
"1648 64 LINE",
"1531 64 OFFCURVE",
"1464 64 OFFCURVE",
"1464 116 CURVE SMOOTH",
"1464 1284 LINE SMOOTH",
"1464 1336 OFFCURVE",
"1531 1336 OFFCURVE",
"1648 1336 CURVE",
"1648 1400 LINE",
"1345 1400 LINE",
"894 202 LINE",
"465 1400 LINE",
"115 1400 LINE",
"115 1336 LINE",
"233 1336 OFFCURVE",
"299 1336 OFFCURVE",
"299 1284 CURVE SMOOTH",
"299 116 LINE SMOOTH",
"299 64 OFFCURVE",
"233 64 OFFCURVE",
"115 64 CURVE",
"115 0 LINE"
);
}
);
width = 1763;
},
{
anchors = (
{
name = bottom;
position = "{903, 0}";
},
{
name = top;
position = "{903, 1400}";
}
);
layerId = "72F22432-F665-4153-96BB-74D91BCC5F28";
paths = (
{
closed = 1;
nodes = (
"557 0 LINE",
"557 64 LINE",
"424 64 OFFCURVE",
"382 71 OFFCURVE",
"382 134 CURVE SMOOTH",
"382 1253 LINE",
"862 0 LINE",
"967 0 LINE",
"1411 1174 LINE",
"1411 134 LINE SMOOTH",
"1411 71 OFFCURVE",
"1370 64 OFFCURVE",
"1236 64 CURVE",
"1236 0 LINE",
"1862 0 LINE",
"1862 64 LINE",
"1730 64 OFFCURVE",
"1688 71 OFFCURVE",
"1688 134 CURVE SMOOTH",
"1688 1267 LINE SMOOTH",
"1688 1329 OFFCURVE",
"1730 1336 OFFCURVE",
"1862 1336 CURVE",
"1862 1400 LINE",
"1396 1400 LINE",
"1032 432 LINE",
"657 1400 LINE",
"100 1400 LINE",
"100 1336 LINE",
"233 1336 OFFCURVE",
"275 1329 OFFCURVE",
"275 1267 CURVE SMOOTH",
"275 134 LINE SMOOTH",
"275 71 OFFCURVE",
"233 64 OFFCURVE",
"100 64 CURVE",
"100 0 LINE"
);
}
);
width = 1962;
}
);
leftKerningGroup = H;
leftMetricsKey = H;
rightKerningGroup = H;
rightMetricsKey = H;
unicode = 004D;
},
{
glyphname = N;
lastChange = "2020-11-12 21:55:49 +0000";
layers = (
{
anchors = (
{
name = bottom;
position = "{823, 0}";
},
{
name = top;
position = "{823, 1400}";
}
);
layerId = "14A1E899-FED4-4F52-86F4-A1F822586E10";
paths = (
{
closed = 1;
nodes = (
"587 0 LINE",
"587 64 LINE",
"469 64 OFFCURVE",
"403 64 OFFCURVE",
"403 106 CURVE SMOOTH",
"403 1274 LINE",
"1224 0 LINE",
"1290 0 LINE",
"1290 1294 LINE SMOOTH",
"1290 1336 OFFCURVE",
"1357 1336 OFFCURVE",
"1474 1336 CURVE",
"1474 1400 LINE",
"1003 1400 LINE",
"1003 1336 LINE",
"1120 1336 OFFCURVE",
"1187 1336 OFFCURVE",
"1187 1294 CURVE SMOOTH",
"1187 258 LINE",
"459 1400 LINE",
"115 1400 LINE",
"115 1336 LINE",
"233 1336 OFFCURVE",
"299 1336 OFFCURVE",
"299 1294 CURVE SMOOTH",
"299 106 LINE SMOOTH",
"299 64 OFFCURVE",
"233 64 OFFCURVE",
"115 64 CURVE",
"115 0 LINE"
);
}
);
width = 1549;
},
{
anchors = (
{
name = bottom;
position = "{828, 0}";
},
{
name = top;
position = "{828, 1400}";
}
);
layerId = "72F22432-F665-4153-96BB-74D91BCC5F28";
paths = (
{
closed = 1;
nodes = (
"566 0 LINE",
"566 64 LINE",
"454 64 OFFCURVE",
"391 64 OFFCURVE",
"391 141 CURVE SMOOTH",
"391 1192 LINE",
"1280 0 LINE",
"1391 0 LINE",
"1391 1259 LINE SMOOTH",
"1391 1336 OFFCURVE",
"1454 1336 OFFCURVE",
"1565 1336 CURVE",
"1565 1400 LINE",
"1100 1400 LINE",
"1100 1336 LINE",
"1211 1336 OFFCURVE",
"1275 1336 OFFCURVE",
"1275 1259 CURVE SMOOTH",
"1275 546 LINE",
"630 1400 LINE",
"100 1400 LINE",
"100 1336 LINE",
"212 1336 OFFCURVE",
"275 1336 OFFCURVE",
"275 1259 CURVE SMOOTH",
"275 141 LINE SMOOTH",
"275 64 OFFCURVE",
"212 64 OFFCURVE",
"100 64 CURVE",
"100 0 LINE"
);
}
);
width = 1625;
}
);
leftKerningGroup = H;
leftMetricsKey = H;
rightKerningGroup = H;
rightMetricsKey = "=H-40";
unicode = 004E;
},
{
glyphname = Eng;
lastChange = "2022-02-18 15:53:06 +0000";
layers = (
{
components = (
{
name = N;
}
);
layerId = "14A1E899-FED4-4F52-86F4-A1F822586E10";
paths = (
{
closed = 1;
nodes = (
"1179 -424 OFFCURVE",
"1290 -263 OFFCURVE",
"1290 -25 CURVE SMOOTH",
"1290 109 LINE",
"1189 109 LINE",
"1189 -31 LINE SMOOTH",
"1189 -267 OFFCURVE",
"1085 -332 OFFCURVE",
"988 -332 CURVE SMOOTH",
"910 -332 OFFCURVE",
"870 -292 OFFCURVE",
"861 -270 CURVE",
"795 -368 LINE",
"837 -398 OFFCURVE",
"891 -424 OFFCURVE",
"973 -424 CURVE SMOOTH"
);
},
{
closed = 1;
nodes = (
"907 -334 LINE",
"948 -160 LINE",
"765 -190 LINE",
"795 -368 LINE"
);
}
);
width = 1549;
},
{
components = (
{
name = N;
}
);
layerId = "72F22432-F665-4153-96BB-74D91BCC5F28";
paths = (
{
closed = 1;
nodes = (
"1286 -477 OFFCURVE",
"1391 -332 OFFCURVE",
"1391 -25 CURVE SMOOTH",
"1391 109 LINE",
"1276 109 LINE",
"1276 -31 LINE SMOOTH",
"1276 -319 OFFCURVE",
"1208 -385 OFFCURVE",
"1104 -385 CURVE SMOOTH",
"1032 -385 OFFCURVE",
"993 -346 OFFCURVE",
"984 -323 CURVE",
"901 -421 LINE",
"940 -450 OFFCURVE",
"1012 -477 OFFCURVE",
"1090 -477 CURVE SMOOTH"
);
},
{
closed = 1;
nodes = (
"1045 -387 LINE",
"1102 -129 LINE",
"852 -176 LINE",
"901 -421 LINE"
);
}
);
width = 1625;
}
);
leftKerningGroup = N;
leftMetricsKey = N;
rightKerningGroup = N;
rightMetricsKey = N;
unicode = 014A;
},
{
glyphname = O;
lastChange = "2022-02-18 15:50:47 +0000";
layers = (
{
anchors = (
{
name = bottom;
position = "{796, 0}";
},
{
name = center;
position = "{796, 700}";
},
{
name = ogonek;
position = "{1192, 109}";
},
{
name = top;
position = "{796, 1400}";
},
{
name = topleft;
position = "{-30, 1400}";
},
{
name = topright;
position = "{1234, 1260}";
}
);
layerId = "14A1E899-FED4-4F52-86F4-A1F822586E10";
paths = (
{
closed = 1;
nodes = (
"1155 -18 OFFCURVE",
"1477 248 OFFCURVE",
"1477 698 CURVE SMOOTH",
"1477 1148 OFFCURVE",
"1155 1416 OFFCURVE",
"795 1416 CURVE SMOOTH",
"429 1416 OFFCURVE",
"115 1148 OFFCURVE",
"115 698 CURVE SMOOTH",
"115 248 OFFCURVE",
"431 -18 OFFCURVE",
"795 -18 CURVE SMOOTH"
);
},
{
closed = 1;
nodes = (
"458 49 OFFCURVE",
"255 307 OFFCURVE",
"255 725 CURVE SMOOTH",
"255 1123 OFFCURVE",
"458 1351 OFFCURVE",
"795 1351 CURVE SMOOTH",
"1131 1351 OFFCURVE",
"1336 1091 OFFCURVE",
"1336 671 CURVE SMOOTH",
"1336 271 OFFCURVE",
"1131 49 OFFCURVE",
"795 49 CURVE SMOOTH"
);
}
);
width = 1592;
},
{
anchors = (
{
name = bottom;
position = "{829, 0}";
},
{
name = center;
position = "{828, 701}";
},
{
name = ogonek;
position = "{1251, 109}";
},
{
name = top;
position = "{828, 1400}";
},
{
name = topleft;
position = "{44, 1400}";
},
{
name = topright;
position = "{1245, 1260}";
}
);
layerId = "72F22432-F665-4153-96BB-74D91BCC5F28";
paths = (
{
closed = 1;
nodes = (
"1260 -18 OFFCURVE",
"1547 283 OFFCURVE",
"1547 698 CURVE SMOOTH",
"1547 1113 OFFCURVE",
"1260 1416 OFFCURVE",
"828 1416 CURVE SMOOTH",
"390 1416 OFFCURVE",
"110 1113 OFFCURVE",
"110 698 CURVE SMOOTH",
"110 283 OFFCURVE",
"392 -18 OFFCURVE",
"828 -18 CURVE SMOOTH"
);
},
{
closed = 1;
nodes = (
"490 55 OFFCURVE",
"446 438 OFFCURVE",
"446 748 CURVE SMOOTH",
"446 1058 OFFCURVE",
"490 1343 OFFCURVE",
"828 1343 CURVE SMOOTH",
"1164 1343 OFFCURVE",
"1210 960 OFFCURVE",
"1210 648 CURVE SMOOTH",
"1210 336 OFFCURVE",
"1164 55 OFFCURVE",
"828 55 CURVE SMOOTH"
);
}
);
width = 1657;
}
);
leftKerningGroup = O;
rightKerningGroup = O;
unicode = 004F;
},
{
glyphname = Ohorn;
lastChange = "2022-02-18 16:01:19 +0000";
layers = (
{
anchors = (
{
name = bottom;
position = "{796, 0}";
},
{
name = top;
position = "{796, 1400}";
}
);
components = (
{
name = horncomb;
transform = "{1, 0, 0, 1, 1155, 410}";
}
);
layerId = "14A1E899-FED4-4F52-86F4-A1F822586E10";
paths = (
{
closed = 1;
nodes = (
"1175 -18 OFFCURVE",
"1477 248 OFFCURVE",
"1477 698 CURVE SMOOTH",
"1477 1148 OFFCURVE",
"1175 1416 OFFCURVE",
"795 1416 CURVE SMOOTH",
"409 1416 OFFCURVE",
"115 1148 OFFCURVE",
"115 698 CURVE SMOOTH",
"115 248 OFFCURVE",
"411 -18 OFFCURVE",
"795 -18 CURVE SMOOTH"
);
},
{
closed = 1;
nodes = (
"448 42 OFFCURVE",
"258 327 OFFCURVE",
"258 725 CURVE SMOOTH",
"258 1123 OFFCURVE",
"448 1358 OFFCURVE",
"795 1358 CURVE SMOOTH",
"1141 1358 OFFCURVE",
"1333 1071 OFFCURVE",
"1333 671 CURVE SMOOTH",
"1333 271 OFFCURVE",
"1141 42 OFFCURVE",
"795 42 CURVE SMOOTH"
);
}
);
width = 1660;
},
{
anchors = (
{
name = bottom;
position = "{833, 0}";
},
{
name = top;
position = "{833, 1400}";
}
);
components = (
{
name = horncomb;
transform = "{1, 0, 0, 1, 1214, 419}";
}
);
layerId = "72F22432-F665-4153-96BB-74D91BCC5F28";
paths = (
{
closed = 1;
nodes = (
"1260 -18 OFFCURVE",
"1547 283 OFFCURVE",
"1547 698 CURVE SMOOTH",
"1547 1113 OFFCURVE",
"1260 1416 OFFCURVE",
"828 1416 CURVE SMOOTH",
"390 1416 OFFCURVE",
"110 1113 OFFCURVE",
"110 698 CURVE SMOOTH",
"110 283 OFFCURVE",
"392 -18 OFFCURVE",
"828 -18 CURVE SMOOTH"
);
},
{
closed = 1;
nodes = (
"490 55 OFFCURVE",
"446 438 OFFCURVE",
"446 748 CURVE SMOOTH",
"446 1058 OFFCURVE",
"490 1343 OFFCURVE",
"828 1343 CURVE SMOOTH",
"1164 1343 OFFCURVE",
"1210 960 OFFCURVE",
"1210 648 CURVE SMOOTH",
"1210 336 OFFCURVE",
"1164 55 OFFCURVE",
"828 55 CURVE SMOOTH"
);
}
);
width = 1761;
}
);
leftKerningGroup = O;
leftMetricsKey = O;
rightKerningGroup = O;
rightMetricsKey = O;
unicode = 01A0;
},
{
glyphname = Oslash;
lastChange = "2022-02-18 15:53:18 +0000";
layers = (
{
anchors = (
{
name = bottom;
position = "{849, 0}";
},
{
name = top;
position = "{849, 1400}";
}
);
components = (
{
name = O;
}
);
layerId = "14A1E899-FED4-4F52-86F4-A1F822586E10";
paths = (
{
closed = 1;
nodes = (
"555 -155 LINE",
"1133 1524 LINE",
"1045 1554 LINE",
"464 -125 LINE"
);
}
);
width = 1592;
},
{
anchors = (
{
name = bottom;
position = "{806, 0}";
},
{
name = top;
position = "{806, 1400}";
}
);
components = (
{
name = O;
}
);
layerId = "72F22432-F665-4153-96BB-74D91BCC5F28";
paths = (
{
closed = 1;
nodes = (
"625 -165 LINE",
"1175 1514 LINE",
"1031 1544 LINE",
"479 -135 LINE"
);
}
);
width = 1657;
}
);
unicode = 00D8;
},
{
glyphname = OE;
lastChange = "2020-11-11 18:49:25 +0000";
layers = (
{
anchors = (
{
name = bottom;
position = "{1212, 0}";
},
{
name = top;
position = "{1212, 1400}";
}
);
components = (
{
name = O;
}
);
layerId = "14A1E899-FED4-4F52-86F4-A1F822586E10";
paths = (
{
closed = 1;
nodes = (
"1773 703 LINE SMOOTH",
"1899 703 OFFCURVE",
"1912 652 OFFCURVE",
"1912 526 CURVE",
"1986 526 LINE",
"1986 934 LINE",
"1912 934 LINE",
"1912 826 OFFCURVE",
"1899 767 OFFCURVE",
"1773 767 CURVE SMOOTH",
"1448 767 LINE",
"1448 703 LINE"
);
},
{
closed = 1;
nodes = (
"1461 1336 LINE",
"1948 1336 LINE SMOOTH",
"2069 1336 OFFCURVE",
"2133 1184 OFFCURVE",
"2167 1044 CURVE",
"2225 1044 LINE",
"2177 1400 LINE",
"1345 1400 LINE",
"1345 0 LINE",
"2206 0 LINE",
"2253 396 LINE",
"2196 396 LINE",
"2161 246 OFFCURVE",
"2107 64 OFFCURVE",
"1951 64 CURVE SMOOTH",
"1461 64 LINE"
);
}
);
width = 2349;
},
{
anchors = (
{
name = bottom;
position = "{1151, 0}";
},
{
name = top;
position = "{1151, 1400}";
}
);
components = (
{
name = O;
}
);
layerId = "72F22432-F665-4153-96BB-74D91BCC5F28";
paths = (
{
closed = 1;
nodes = (
"1779 703 LINE SMOOTH",
"1773 703 OFFCURVE",
"1893 617 OFFCURVE",
"1893 509 CURVE",
"1999 509 LINE",
"1999 952 LINE",
"1893 952 LINE",
"1893 861 OFFCURVE",
"1773 767 OFFCURVE",
"1779 767 CURVE SMOOTH",
"1511 767 LINE",
"1511 703 LINE"
);
},
{
closed = 1;
nodes = (
"1536 1336 LINE",
"1874 1336 LINE SMOOTH",
"1988 1336 OFFCURVE",
"2157 1219 OFFCURVE",
"2189 1079 CURVE",
"2333 1079 LINE",
"2270 1400 LINE",
"1265 1400 LINE",
"1265 0 LINE",
"2333 0 LINE",
"2396 361 LINE",
"2252 361 LINE",
"2219 211 OFFCURVE",
"2060 64 OFFCURVE",
"1912 64 CURVE SMOOTH",
"1536 64 LINE"
);
}
);
width = 2492;
}
);
leftKerningGroup = O;
leftMetricsKey = O;
rightKerningGroup = E;
rightMetricsKey = E;
unicode = 0152;
},
{
glyphname = P;
lastChange = "2020-11-12 21:55:49 +0000";
layers = (
{
anchors = (
{
name = bottom;
position = "{586, 0}";
},
{
name = top;
position = "{586, 1400}";
}
);
layerId = "14A1E899-FED4-4F52-86F4-A1F822586E10";
paths = (
{
closed = 1;
nodes = (
"586 0 LINE",
"586 64 LINE",
"458 64 OFFCURVE",
"402 66 OFFCURVE",
"402 136 CURVE SMOOTH",
"402 1336 LINE",
"613 1336 LINE SMOOTH",
"860 1336 OFFCURVE",
"1020 1248 OFFCURVE",
"1020 958 CURVE SMOOTH",
"1020 698 OFFCURVE",
"860 608 OFFCURVE",
"613 608 CURVE SMOOTH",
"352 608 LINE",
"352 542 LINE",
"622 542 LINE SMOOTH",
"902 542 OFFCURVE",
"1164 710 OFFCURVE",
"1164 988 CURVE SMOOTH",
"1164 1266 OFFCURVE",
"902 1400 OFFCURVE",
"622 1400 CURVE SMOOTH",
"115 1400 LINE",
"115 1336 LINE",
"244 1336 OFFCURVE",
"299 1335 OFFCURVE",
"299 1285 CURVE SMOOTH",
"299 136 LINE SMOOTH",
"299 66 OFFCURVE",
"256 64 OFFCURVE",
"115 64 CURVE",
"115 0 LINE"
);
}
);
width = 1239;
},
{
anchors = (
{
name = bottom;
position = "{726, 0}";
},
{
name = top;
position = "{726, 1400}";
}
);
layerId = "72F22432-F665-4153-96BB-74D91BCC5F28";
paths = (
{
closed = 1;
nodes = (
"726 0 LINE",
"726 64 LINE",
"605 64 OFFCURVE",
"551 77 OFFCURVE",
"551 171 CURVE SMOOTH",
"551 1336 LINE",
"716 1336 LINE SMOOTH",
"957 1336 OFFCURVE",
"1013 1104 OFFCURVE",
"1013 958 CURVE SMOOTH",
"1013 788 OFFCURVE",
"956 613 OFFCURVE",
"716 613 CURVE SMOOTH",
"504 613 LINE",
"504 542 LINE",
"725 542 LINE SMOOTH",
"1062 542 OFFCURVE",
"1311 693 OFFCURVE",
"1311 988 CURVE SMOOTH",
"1311 1283 OFFCURVE",
"1062 1400 OFFCURVE",
"725 1400 CURVE SMOOTH",
"100 1400 LINE",
"100 1336 LINE",
"223 1336 OFFCURVE",
"275 1325 OFFCURVE",
"275 1250 CURVE SMOOTH",
"275 171 LINE SMOOTH",
"275 77 OFFCURVE",
"234 64 OFFCURVE",
"100 64 CURVE",
"100 0 LINE"
);
}
);
width = 1381;
}
);
leftKerningGroup = H;
leftMetricsKey = H;
rightKerningGroup = P;
rightMetricsKey = B;
unicode = 0050;
},
{
glyphname = Thorn;
lastChange = "2020-11-12 21:55:49 +0000";
layers = (
{
anchors = (
{
name = bottom;
position = "{559, 0}";
},
{
name = top;
position = "{559, 1400}";
}
);
components = (
{
name = I;
}
);
layerId = "14A1E899-FED4-4F52-86F4-A1F822586E10";
paths = (
{
closed = 1;
nodes = (
"356 1093 LINE",
"356 1029 LINE",
"487 1029 LINE SMOOTH",
"754 1029 OFFCURVE",
"894 951 OFFCURVE",
"894 731 CURVE SMOOTH",
"894 501 OFFCURVE",
"754 401 OFFCURVE",
"487 401 CURVE SMOOTH",
"326 401 LINE",
"326 335 LINE",
"496 335 LINE SMOOTH",
"786 335 OFFCURVE",
"1018 473 OFFCURVE",
"1018 731 CURVE SMOOTH",
"1018 989 OFFCURVE",
"786 1093 OFFCURVE",
"496 1093 CURVE SMOOTH"
);
}
);
width = 1133;
},
{
anchors = (
{
name = bottom;
position = "{656, 0}";
},
{
name = top;
position = "{656, 1400}";
}
);
components = (
{
name = I;
}
);
layerId = "72F22432-F665-4153-96BB-74D91BCC5F28";
paths = (
{
closed = 1;
nodes = (
"463 1128 LINE",
"463 1064 LINE",
"641 1064 LINE SMOOTH",
"884 1064 OFFCURVE",
"903 917 OFFCURVE",
"903 749 CURVE SMOOTH",
"903 538 OFFCURVE",
"870 366 OFFCURVE",
"641 366 CURVE SMOOTH",
"399 366 LINE",
"399 300 LINE",
"650 300 LINE SMOOTH",
"979 300 OFFCURVE",
"1217 473 OFFCURVE",
"1217 731 CURVE SMOOTH",
"1217 989 OFFCURVE",
"979 1128 OFFCURVE",
"650 1128 CURVE SMOOTH"
);
}
);
width = 1327;
}
);
leftKerningGroup = I;
leftMetricsKey = I;
rightMetricsKey = O;
unicode = 00DE;
},
{
glyphname = Q;
lastChange = "2022-02-18 15:15:10 +0000";
layers = (
{
anchors = (
{
name = bottom;
position = "{866, 0}";
},
{
name = top;
position = "{866, 1400}";
}
);
components = (
{
name = O;
}
);
layerId = "14A1E899-FED4-4F52-86F4-A1F822586E10";
paths = (
{
closed = 1;
nodes = (
"781 -180 OFFCURVE",
"887 -115 OFFCURVE",
"964 -115 CURVE SMOOTH",
"1007 -115 OFFCURVE",
"1046 -123 OFFCURVE",
"1147 -151 CURVE SMOOTH",
"1222 -172 OFFCURVE",
"1294 -191 OFFCURVE",
"1359 -191 CURVE SMOOTH",
"1469 -191 OFFCURVE",
"1544 -144 OFFCURVE",
"1593 -86 CURVE",
"1549 -51 LINE",
"1513 -90 OFFCURVE",
"1445 -121 OFFCURVE",
"1397 -121 CURVE SMOOTH",
"1355 -121 OFFCURVE",
"1286 -96 OFFCURVE",
"1237 -78 CURVE SMOOTH",
"1163 -51 OFFCURVE",
"1113 -36 OFFCURVE",
"1055 -36 CURVE SMOOTH",
"922 -36 OFFCURVE",
"814 -83 OFFCURVE",
"738 -170 CURVE",
"727 -238 LINE"
);
},
{
closed = 1;
nodes = (
"796 -86 OFFCURVE",
"883 -28 OFFCURVE",
"1045 28 CURVE",
"826 -12 LINE",
"748 -44 OFFCURVE",
"682 -126 OFFCURVE",
"658 -192 CURVE",
"727 -238 LINE"
);
}
);
width = 1548;
},
{
anchors = (
{
name = bottom;
position = "{824, 0}";
},
{
name = top;
position = "{824, 1400}";
}
);
components = (
{
name = O;
}
);
layerId = "72F22432-F665-4153-96BB-74D91BCC5F28";
paths = (
{
closed = 1;
nodes = (
"840 -180 OFFCURVE",
"892 -166 OFFCURVE",
"973 -166 CURVE SMOOTH",
"1028 -166 OFFCURVE",
"1089 -188 OFFCURVE",
"1161 -220 CURVE SMOOTH",
"1236 -253 OFFCURVE",
"1296 -263 OFFCURVE",
"1354 -263 CURVE SMOOTH",
"1492 -263 OFFCURVE",
"1671 -160 OFFCURVE",
"1733 -86 CURVE",
"1685 -34 LINE",
"1615 -91 OFFCURVE",
"1563 -108 OFFCURVE",
"1518 -108 CURVE SMOOTH",
"1458 -108 OFFCURVE",
"1411 -87 OFFCURVE",
"1352 -59 CURVE SMOOTH",
"1291 -30 OFFCURVE",
"1249 -18 OFFCURVE",
"1157 -18 CURVE SMOOTH",
"1001 -18 OFFCURVE",
"884 -83 OFFCURVE",
"812 -170 CURVE",
"792 -238 LINE"
);
},
{
closed = 1;
nodes = (
"857 -88 OFFCURVE",
"914 -32 OFFCURVE",
"1094 25 CURVE",
"888 18 LINE",
"815 -13 OFFCURVE",
"741 -91 OFFCURVE",
"718 -192 CURVE",
"792 -238 LINE"
);
}
);
width = 1683;
}
);
leftKerningGroup = O;
leftMetricsKey = O;
rightKerningGroup = O;
rightMetricsKey = "=O-160";
unicode = 0051;
},
{
glyphname = R;
lastChange = "2022-02-18 16:01:30 +0000";
layers = (
{
anchors = (
{
name = bottom;
position = "{703, 0}";
},
{
name = top;
position = "{646, 1400}";
}
);
layerId = "14A1E899-FED4-4F52-86F4-A1F822586E10";
paths = (
{
closed = 1;
nodes = (
"1293 0 LINE",
"1293 64 LINE",
"1209 64 OFFCURVE",
"1141 83 OFFCURVE",
"1105 163 CURVE SMOOTH",
"921 574 LINE SMOOTH",
"898 625 OFFCURVE",
"857 693 OFFCURVE",
"794 697 CURVE",
"926 714 OFFCURVE",
"1137 819 OFFCURVE",
"1137 1061 CURVE SMOOTH",
"1137 1299 OFFCURVE",
"944 1400 OFFCURVE",
"700 1400 CURVE SMOOTH",
"400 1400 LINE",
"400 1334 LINE",
"679 1334 LINE SMOOTH",
"871 1334 OFFCURVE",
"1009 1268 OFFCURVE",
"1009 1054 CURVE SMOOTH",
"1009 862 OFFCURVE",
"845 736 OFFCURVE",
"645 736 CURVE SMOOTH",
"344 736 LINE",
"344 672 LINE",
"646 672 LINE SMOOTH",
"716 672 OFFCURVE",
"775 632 OFFCURVE",
"816 539 CURVE SMOOTH",
"1056 0 LINE"
);
},
{
closed = 1;
nodes = (
"602 0 LINE",
"602 64 LINE",
"467 64 OFFCURVE",
"412 67 OFFCURVE",
"412 146 CURVE SMOOTH",
"412 1400 LINE",
"115 1400 LINE",
"115 1336 LINE",
"237 1336 OFFCURVE",
"306 1335 OFFCURVE",
"306 1274 CURVE SMOOTH",
"306 146 LINE SMOOTH",
"306 67 OFFCURVE",
"251 64 OFFCURVE",
"115 64 CURVE",
"115 0 LINE"
);
}
);
width = 1359;
},
{
anchors = (
{
name = bottom;
position = "{837, 0}";
},
{
name = top;
position = "{743, 1400}";
}
);
layerId = "72F22432-F665-4153-96BB-74D91BCC5F28";
paths = (
{
closed = 1;
nodes = (
"1467 0 LINE",
"1467 64 LINE",
"1393 64 OFFCURVE",
"1327 121 OFFCURVE",
"1286 193 CURVE SMOOTH",
"1059 588 LINE SMOOTH",
"1032 636 OFFCURVE",
"976 689 OFFCURVE",
"887 694 CURVE",
"1010 699 OFFCURVE",
"1314 801 OFFCURVE",
"1314 1075 CURVE SMOOTH",
"1314 1328 OFFCURVE",
"1080 1400 OFFCURVE",
"788 1400 CURVE SMOOTH",
"550 1400 LINE",
"550 1334 LINE",
"768 1334 LINE SMOOTH",
"947 1334 OFFCURVE",
"1017 1238 OFFCURVE",
"1017 1054 CURVE SMOOTH",
"1017 875 OFFCURVE",
"908 736 OFFCURVE",
"744 736 CURVE SMOOTH",
"536 736 LINE",
"536 672 LINE",
"579 672 LINE SMOOTH",
"646 672 OFFCURVE",
"680 658 OFFCURVE",
"743 549 CURVE SMOOTH",
"1059 0 LINE"
);
},
{
closed = 1;
nodes = (
"741 0 LINE",
"741 64 LINE",
"613 64 OFFCURVE",
"561 83 OFFCURVE",
"561 181 CURVE SMOOTH",
"561 1400 LINE",
"100 1400 LINE",
"100 1336 LINE",
"230 1336 OFFCURVE",
"281 1324 OFFCURVE",
"281 1222 CURVE SMOOTH",
"281 181 LINE SMOOTH",
"281 83 OFFCURVE",
"229 64 OFFCURVE",
"100 64 CURVE",
"100 0 LINE"
);
}
);
width = 1533;
}
);
leftKerningGroup = H;
leftMetricsKey = H;
rightKerningGroup = R;
rightMetricsKey = "=E-30";
unicode = 0052;
},
{
glyphname = S;
lastChange = "2022-02-18 16:09:09 +0000";
layers = (
{
anchors = (
{
name = bottom;
position = "{537, 0}";
},
{
name = top;
position = "{547, 1400}";
}
);
layerId = "14A1E899-FED4-4F52-86F4-A1F822586E10";
paths = (
{
closed = 1;
nodes = (
"747 -26 OFFCURVE",
"987 109 OFFCURVE",
"987 387 CURVE SMOOTH",
"987 629 OFFCURVE",
"782 706 OFFCURVE",
"565 780 CURVE SMOOTH",
"356 851 OFFCURVE",
"217 948 OFFCURVE",
"217 1113 CURVE SMOOTH",
"217 1299 OFFCURVE",
"410 1356 OFFCURVE",
"532 1356 CURVE SMOOTH",
"727 1356 OFFCURVE",
"832 1268 OFFCURVE",
"850 986 CURVE",
"898 986 LINE",
"923 1298 LINE",
"879 1330 OFFCURVE",
"719 1422 OFFCURVE",
"535 1422 CURVE SMOOTH",
"333 1422 OFFCURVE",
"118 1325 OFFCURVE",
"118 1079 CURVE SMOOTH",
"118 852 OFFCURVE",
"303 742 OFFCURVE",
"535 664 CURVE SMOOTH",
"727 599 OFFCURVE",
"875 534 OFFCURVE",
"875 345 CURVE SMOOTH",
"875 139 OFFCURVE",
"707 40 OFFCURVE",
"548 40 CURVE SMOOTH",
"344 40 OFFCURVE",
"201 130 OFFCURVE",
"173 498 CURVE",
"125 498 LINE",
"95 145 LINE",
"194 48 OFFCURVE",
"363 -26 OFFCURVE",
"540 -26 CURVE SMOOTH"
);
}
);
width = 1082;
},
{
anchors = (
{
name = bottom;
position = "{608, 0}";
},
{
name = top;
position = "{617, 1400}";
}
);
layerId = "72F22432-F665-4153-96BB-74D91BCC5F28";
paths = (
{
closed = 1;
nodes = (
"872 -26 OFFCURVE",
"1204 37 OFFCURVE",
"1204 386 CURVE SMOOTH",
"1204 671 OFFCURVE",
"987 752 OFFCURVE",
"742 828 CURVE SMOOTH",
"551 887 OFFCURVE",
"381 925 OFFCURVE",
"381 1102 CURVE SMOOTH",
"381 1278 OFFCURVE",
"492 1351 OFFCURVE",
"651 1351 CURVE SMOOTH",
"872 1351 OFFCURVE",
"929 1166 OFFCURVE",
"957 965 CURVE",
"1088 965 LINE",
"1139 1252 LINE",
"1068 1317 OFFCURVE",
"909 1422 OFFCURVE",
"640 1422 CURVE SMOOTH",
"405 1422 OFFCURVE",
"160 1305 OFFCURVE",
"160 1047 CURVE SMOOTH",
"160 804 OFFCURVE",
"320 683 OFFCURVE",
"579 603 CURVE SMOOTH",
"844 521 OFFCURVE",
"958 474 OFFCURVE",
"958 309 CURVE SMOOTH",
"958 133 OFFCURVE",
"840 45 OFFCURVE",
"662 45 CURVE SMOOTH",
"466 45 OFFCURVE",
"327 180 OFFCURVE",
"301 493 CURVE",
"179 493 LINE",
"115 123 LINE",
"245 38 OFFCURVE",
"453 -26 OFFCURVE",
"651 -26 CURVE SMOOTH"
);
}
);
width = 1314;
}
);
leftKerningGroup = S;
rightKerningGroup = S;
unicode = 0053;
},
{
glyphname = Germandbls;
lastChange = "2020-11-12 21:55:49 +0000";
layers = (
{
anchors = (
{
name = bottom;
position = "{598, 0}";
},
{
name = top;
position = "{598, 1400}";
}
);
layerId = "14A1E899-FED4-4F52-86F4-A1F822586E10";
paths = (
{
closed = 1;
nodes = (
"1043 1336 LINE",
"1043 1400 LINE",
"264 1400 LINE",
"264 132 LINE SMOOTH",
"264 70 OFFCURVE",
"221 64 OFFCURVE",
"115 64 CURVE",
"115 0 LINE",
"372 0 LINE",
"372 1324 LINE",
"947 1324 LINE",
"950 1349 LINE",
"575 918 LINE",
"595 838 LINE",
"815 833 OFFCURVE",
"995 742 OFFCURVE",
"995 406 CURVE SMOOTH",
"995 120 OFFCURVE",
"834 42 OFFCURVE",
"739 42 CURVE SMOOTH",
"620 42 OFFCURVE",
"571 67 OFFCURVE",
"560 245 CURVE",
"513 245 LINE",
"451 58 LINE",
"510 9 OFFCURVE",
"600 -24 OFFCURVE",
"718 -24 CURVE SMOOTH",
"864 -24 OFFCURVE",
"1121 70 OFFCURVE",
"1121 444 CURVE SMOOTH",
"1121 800 OFFCURVE",
"825 905 OFFCURVE",
"665 905 CURVE"
);
}
);
width = 1196;
},
{
anchors = (
{
name = bottom;
position = "{655, 0}";
},
{
name = top;
position = "{655, 1400}";
}
);
layerId = "72F22432-F665-4153-96BB-74D91BCC5F28";
paths = (
{
closed = 1;
nodes = (
"1121 1336 LINE",
"1121 1400 LINE",
"242 1400 LINE",
"242 167 LINE SMOOTH",
"242 105 OFFCURVE",
"201 64 OFFCURVE",
"100 64 CURVE",
"100 0 LINE",
"484 0 LINE",
"484 1324 LINE",
"1030 1324 LINE",
"1015 1349 LINE",
"659 918 LINE",
"678 838 LINE",
"833 835 OFFCURVE",
"986 724 OFFCURVE",
"986 389 CURVE SMOOTH",
"986 103 OFFCURVE",
"924 49 OFFCURVE",
"834 49 CURVE SMOOTH",
"721 49 OFFCURVE",
"690 112 OFFCURVE",
"678 264 CURVE",
"598 264 LINE",
"539 41 LINE",
"613 9 OFFCURVE",
"700 -24 OFFCURVE",
"812 -24 CURVE SMOOTH",
"951 -24 OFFCURVE",
"1249 53 OFFCURVE",
"1249 462 CURVE SMOOTH",
"1249 835 OFFCURVE",
"913 905 OFFCURVE",
"762 905 CURVE"
);
}
);
width = 1319;
}
);
leftKerningGroup = L;
leftMetricsKey = L;
rightKerningGroup = B;
rightMetricsKey = B;
unicode = 1E9E;
},
{
glyphname = T;
lastChange = "2020-11-11 19:22:34 +0000";
layers = (
{
anchors = (
{
name = bottom;
position = "{695, 0}";
},
{
name = center;
position = "{695, 700}";
},
{
name = top;
position = "{695, 1400}";
}
);
layerId = "14A1E899-FED4-4F52-86F4-A1F822586E10";
paths = (
{
closed = 1;
nodes = (
"936 0 LINE",
"936 64 LINE",
"818 64 OFFCURVE",
"752 64 OFFCURVE",
"752 153 CURVE SMOOTH",
"752 1400 LINE",
"639 1400 LINE",
"639 153 LINE SMOOTH",
"639 66 OFFCURVE",
"583 64 OFFCURVE",
"455 64 CURVE",
"455 0 LINE"
);
},
{
closed = 1;
nodes = (
"141 994 LINE",
"176 1164 OFFCURVE",
"225 1336 OFFCURVE",
"382 1336 CURVE SMOOTH",
"690 1336 LINE",
"690 1400 LINE",
"121 1400 LINE",
"74 994 LINE"
);
},
{
closed = 1;
nodes = (
"1315 994 LINE",
"1268 1400 LINE",
"699 1400 LINE",
"699 1336 LINE",
"1007 1336 LINE SMOOTH",
"1164 1336 OFFCURVE",
"1213 1164 OFFCURVE",
"1248 994 CURVE"
);
}
);
width = 1389;
},
{
anchors = (
{
name = bottom;
position = "{783, 0}";
},
{
name = center;
position = "{783, 700}";
},
{
name = top;
position = "{783, 1400}";
}
);
layerId = "72F22432-F665-4153-96BB-74D91BCC5F28";
paths = (
{
closed = 1;
nodes = (
"1092 0 LINE",
"1092 64 LINE",
"980 64 OFFCURVE",
"917 87 OFFCURVE",
"917 188 CURVE SMOOTH",
"917 1400 LINE",
"649 1400 LINE",
"649 188 LINE SMOOTH",
"649 89 OFFCURVE",
"596 64 OFFCURVE",
"474 64 CURVE",
"474 0 LINE"
);
},
{
closed = 1;
nodes = (
"198 1009 LINE",
"233 1130 OFFCURVE",
"302 1336 OFFCURVE",
"446 1336 CURVE SMOOTH",
"708 1336 LINE",
"708 1400 LINE",
"114 1400 LINE",
"81 1009 LINE"
);
},
{
closed = 1;
nodes = (
"1485 1009 LINE",
"1452 1400 LINE",
"858 1400 LINE",
"858 1336 LINE",
"1120 1336 LINE SMOOTH",
"1265 1336 OFFCURVE",
"1335 1129 OFFCURVE",
"1368 1009 CURVE"
);
}
);
width = 1566;
}
);
leftKerningGroup = T;
rightKerningGroup = T;
unicode = 0054;
},
{
glyphname = Tbar;
lastChange = "2020-11-11 22:37:22 +0000";
layers = (
{
components = (
{
name = T;
}
);
layerId = "14A1E899-FED4-4F52-86F4-A1F822586E10";
paths = (
{
closed = 1;
nodes = (
"1002 669 LINE",
"1002 741 LINE",
"380 741 LINE",
"380 669 LINE"
);
}
);
width = 1389;
},
{
components = (
{
name = T;
}
);
layerId = "72F22432-F665-4153-96BB-74D91BCC5F28";
paths = (
{
closed = 1;
nodes = (
"1176 652 LINE",
"1176 741 LINE",
"392 741 LINE",
"392 652 LINE"
);
}
);
width = 1566;
}
);
leftKerningGroup = T;
leftMetricsKey = T;
rightKerningGroup = T;
rightMetricsKey = T;
unicode = 0166;
},
{
glyphname = U;
lastChange = "2022-02-18 16:03:01 +0000";
layers = (
{
anchors = (
{
name = bottom;
position = "{783, 0}";
},
{
name = ogonek;
position = "{1195, 157}";
},
{
name = top;
position = "{784, 1400}";
},
{
name = topright;
position = "{1460, 1400}";
}
);
layerId = "14A1E899-FED4-4F52-86F4-A1F822586E10";
paths = (
{
closed = 1;
nodes = (
"1053 -34 OFFCURVE",
"1298 114 OFFCURVE",
"1298 520 CURVE SMOOTH",
"1298 1286 LINE SMOOTH",
"1298 1335 OFFCURVE",
"1353 1336 OFFCURVE",
"1482 1336 CURVE",
"1482 1400 LINE",
"1015 1400 LINE",
"1015 1336 LINE",
"1143 1336 OFFCURVE",
"1199 1335 OFFCURVE",
"1199 1286 CURVE SMOOTH",
"1199 494 LINE SMOOTH",
"1199 164 OFFCURVE",
"1007 44 OFFCURVE",
"814 44 CURVE SMOOTH",
"558 44 OFFCURVE",
"384 154 OFFCURVE",
"384 494 CURVE SMOOTH",
"384 1286 LINE SMOOTH",
"384 1335 OFFCURVE",
"440 1336 OFFCURVE",
"568 1336 CURVE",
"568 1400 LINE",
"85 1400 LINE",
"85 1336 LINE",
"214 1336 OFFCURVE",
"269 1335 OFFCURVE",
"269 1286 CURVE SMOOTH",
"269 500 LINE SMOOTH",
"269 74 OFFCURVE",
"531 -34 OFFCURVE",
"791 -34 CURVE SMOOTH"
);
}
);
width = 1567;
},
{
anchors = (
{
name = bottom;
position = "{805, 0}";
},
{
name = ogonek;
position = "{1278, 157}";
},
{
name = top;
position = "{868, 1400}";
},
{
name = topright;
position = "{1501, 1400}";
}
);
layerId = "72F22432-F665-4153-96BB-74D91BCC5F28";
paths = (
{
closed = 1;
nodes = (
"1076 -34 OFFCURVE",
"1383 89 OFFCURVE",
"1383 510 CURVE SMOOTH",
"1383 1251 LINE SMOOTH",
"1383 1323 OFFCURVE",
"1435 1336 OFFCURVE",
"1558 1336 CURVE",
"1558 1400 LINE",
"1079 1400 LINE",
"1079 1336 LINE",
"1200 1336 OFFCURVE",
"1253 1323 OFFCURVE",
"1253 1251 CURVE SMOOTH",
"1253 442 LINE SMOOTH",
"1253 154 OFFCURVE",
"1053 46 OFFCURVE",
"889 46 CURVE SMOOTH",
"669 46 OFFCURVE",
"529 219 OFFCURVE",
"529 524 CURVE SMOOTH",
"529 1251 LINE SMOOTH",
"529 1323 OFFCURVE",
"582 1336 OFFCURVE",
"704 1336 CURVE",
"704 1400 LINE",
"70 1400 LINE",
"70 1336 LINE",
"193 1336 OFFCURVE",
"245 1323 OFFCURVE",
"245 1251 CURVE SMOOTH",
"245 520 LINE SMOOTH",
"245 94 OFFCURVE",
"528 -34 OFFCURVE",
"828 -34 CURVE SMOOTH"
);
}
);
width = 1628;
}
);
leftKerningGroup = U;
leftMetricsKey = "=H-30";
rightKerningGroup = U;
rightMetricsKey = "=H-30";
unicode = 0055;
},
{
glyphname = Uhorn;
lastChange = "2022-02-18 16:02:51 +0000";
layers = (
{
anchors = (
{
name = bottom;
position = "{789, 0}";
},
{
name = top;
position = "{789, 1400}";
}
);
components = (
{
name = horncomb;
transform = "{1, 0, 0, 1, 1164, 555}";
}
);
layerId = "14A1E899-FED4-4F52-86F4-A1F822586E10";
paths = (
{
closed = 1;
nodes = (
"1053 -34 OFFCURVE",
"1298 114 OFFCURVE",
"1298 520 CURVE SMOOTH",
"1298 1286 LINE",
"1298 1400 LINE",
"1015 1400 LINE",
"1015 1336 LINE",
"1143 1336 OFFCURVE",
"1199 1335 OFFCURVE",
"1199 1286 CURVE SMOOTH",
"1199 494 LINE SMOOTH",
"1199 164 OFFCURVE",
"1007 44 OFFCURVE",
"814 44 CURVE SMOOTH",
"558 44 OFFCURVE",
"384 154 OFFCURVE",
"384 494 CURVE SMOOTH",
"384 1286 LINE SMOOTH",
"384 1335 OFFCURVE",
"440 1336 OFFCURVE",
"568 1336 CURVE",
"568 1400 LINE",
"85 1400 LINE",
"85 1336 LINE",
"214 1336 OFFCURVE",
"269 1335 OFFCURVE",
"269 1286 CURVE SMOOTH",
"269 500 LINE SMOOTH",
"269 74 OFFCURVE",
"531 -34 OFFCURVE",
"791 -34 CURVE SMOOTH"
);
}
);
width = 1539;
},
{
anchors = (
{
name = bottom;
position = "{810, 0}";
},
{
name = top;
position = "{810, 1400}";
}
);
components = (
{
name = horncomb;
transform = "{1, 0, 0, 1, 1236, 551}";
}
);
layerId = "72F22432-F665-4153-96BB-74D91BCC5F28";
paths = (
{
closed = 1;
nodes = (
"1096 -34 OFFCURVE",
"1383 79 OFFCURVE",
"1383 520 CURVE SMOOTH",
"1383 1251 LINE",
"1383 1400 LINE",
"1079 1400 LINE",
"1079 1336 LINE",
"1200 1336 OFFCURVE",
"1253 1323 OFFCURVE",
"1253 1251 CURVE SMOOTH",
"1253 442 LINE SMOOTH",
"1253 164 OFFCURVE",
"1086 44 OFFCURVE",
"872 44 CURVE SMOOTH",
"612 44 OFFCURVE",
"529 189 OFFCURVE",
"529 494 CURVE SMOOTH",
"529 1251 LINE SMOOTH",
"529 1323 OFFCURVE",
"582 1336 OFFCURVE",
"704 1336 CURVE",
"704 1400 LINE",
"70 1400 LINE",
"70 1336 LINE",
"193 1336 OFFCURVE",
"245 1323 OFFCURVE",
"245 1251 CURVE SMOOTH",
"245 500 LINE SMOOTH",
"245 74 OFFCURVE",
"548 -34 OFFCURVE",
"848 -34 CURVE SMOOTH"
);
}
);
width = 1673;
}
);
leftKerningGroup = U;
leftMetricsKey = U;
rightKerningGroup = U;
rightMetricsKey = "=U-100";
unicode = 01AF;
},
{
glyphname = V;
lastChange = "2022-01-29 04:17:38 +0000";
layers = (
{
anchors = (
{
name = bottom;
position = "{665, 0}";
},
{
name = top;
position = "{665, 1400}";
}
);
layerId = "14A1E899-FED4-4F52-86F4-A1F822586E10";
paths = (
{
closed = 1;
nodes = (
"729 0 LINE",
"1196 1272 LINE SMOOTH",
"1218 1331 OFFCURVE",
"1267 1336 OFFCURVE",
"1361 1336 CURVE",
"1361 1400 LINE",
"953 1400 LINE",
"953 1336 LINE",
"1076 1336 OFFCURVE",
"1113 1334 OFFCURVE",
"1113 1305 CURVE SMOOTH",
"1113 1295 OFFCURVE",
"1109 1275 OFFCURVE",
"1101 1254 CURVE SMOOTH",
"728 217 LINE",
"343 1265 LINE SMOOTH",
"336 1284 OFFCURVE",
"332 1296 OFFCURVE",
"332 1310 CURVE SMOOTH",
"332 1334 OFFCURVE",
"362 1336 OFFCURVE",
"496 1336 CURVE",
"496 1400 LINE",
"40 1400 LINE",
"40 1336 LINE",
"136 1336 OFFCURVE",
"196 1331 OFFCURVE",
"218 1272 CURVE SMOOTH",
"688 0 LINE"
);
}
);
width = 1401;
},
{
anchors = (
{
name = bottom;
position = "{812, 0}";
},
{
name = top;
position = "{812, 1400}";
}
);
layerId = "72F22432-F665-4153-96BB-74D91BCC5F28";
paths = (
{
closed = 1;
nodes = (
"857 0 LINE",
"1388 1272 LINE SMOOTH",
"1413 1331 OFFCURVE",
"1507 1336 OFFCURVE",
"1596 1336 CURVE",
"1596 1400 LINE",
"1134 1400 LINE",
"1134 1336 LINE",
"1219 1336 OFFCURVE",
"1280 1332 OFFCURVE",
"1280 1286 CURVE SMOOTH",
"1280 1272 OFFCURVE",
"1277 1255 OFFCURVE",
"1269 1236 CURVE SMOOTH",
"916 366 LINE",
"575 1228 LINE SMOOTH",
"567 1249 OFFCURVE",
"562 1270 OFFCURVE",
"562 1282 CURVE SMOOTH",
"562 1334 OFFCURVE",
"627 1336 OFFCURVE",
"706 1336 CURVE",
"706 1400 LINE",
"39 1400 LINE",
"39 1336 LINE",
"130 1336 OFFCURVE",
"219 1331 OFFCURVE",
"244 1272 CURVE SMOOTH",
"782 0 LINE"
);
}
);
width = 1635;
}
);
leftKerningGroup = V;
leftMetricsKey = A;
rightKerningGroup = V;
rightMetricsKey = A;
unicode = 0056;
},
{
glyphname = W;
lastChange = "2022-02-18 16:03:16 +0000";
layers = (
{
anchors = (
{
name = bottom;
position = "{1100, 0}";
},
{
name = top;
position = "{1105, 1400}";
}
);
layerId = "14A1E899-FED4-4F52-86F4-A1F822586E10";
paths = (
{
closed = 1;
nodes = (
"1449 0 LINE",
"1886 1272 LINE SMOOTH",
"1906 1331 OFFCURVE",
"1957 1336 OFFCURVE",
"2051 1336 CURVE",
"2051 1400 LINE",
"1651 1400 LINE",
"1651 1336 LINE",
"1774 1336 OFFCURVE",
"1811 1334 OFFCURVE",
"1811 1305 CURVE SMOOTH",
"1811 1292 OFFCURVE",
"1806 1275 OFFCURVE",
"1799 1254 CURVE SMOOTH",
"1450 237 LINE",
"1093 1265 LINE SMOOTH",
"1086 1286 OFFCURVE",
"1083 1296 OFFCURVE",
"1083 1310 CURVE SMOOTH",
"1083 1334 OFFCURVE",
"1112 1336 OFFCURVE",
"1246 1336 CURVE",
"1246 1400 LINE",
"790 1400 LINE",
"790 1336 LINE",
"886 1336 OFFCURVE",
"948 1331 OFFCURVE",
"968 1272 CURVE SMOOTH",
"1408 0 LINE"
);
},
{
closed = 1;
nodes = (
"699 0 LINE",
"1078 1102 LINE",
"1022 1174 LINE",
"700 237 LINE",
"343 1265 LINE SMOOTH",
"336 1286 OFFCURVE",
"333 1296 OFFCURVE",
"333 1310 CURVE SMOOTH",
"333 1334 OFFCURVE",
"362 1336 OFFCURVE",
"496 1336 CURVE",
"496 1400 LINE",
"40 1400 LINE",
"40 1336 LINE",
"135 1336 OFFCURVE",
"198 1331 OFFCURVE",
"218 1272 CURVE SMOOTH",
"658 0 LINE"
);
}
);
width = 2091;
},
{
anchors = (
{
name = bottom;
position = "{1229, 0}";
},
{
name = top;
position = "{1231, 1400}";
}
);
layerId = "72F22432-F665-4153-96BB-74D91BCC5F28";
paths = (
{
closed = 1;
nodes = (
"1661 0 LINE",
"2143 1272 LINE SMOOTH",
"2165 1331 OFFCURVE",
"2263 1336 OFFCURVE",
"2353 1336 CURVE",
"2353 1400 LINE",
"1892 1400 LINE",
"1892 1336 LINE",
"1978 1336 OFFCURVE",
"2042 1334 OFFCURVE",
"2042 1288 CURVE SMOOTH",
"2042 1275 OFFCURVE",
"2036 1258 OFFCURVE",
"2028 1236 CURVE SMOOTH",
"1725 410 LINE",
"1435 1228 LINE SMOOTH",
"1428 1248 OFFCURVE",
"1423 1268 OFFCURVE",
"1423 1282 CURVE SMOOTH",
"1423 1334 OFFCURVE",
"1529 1336 OFFCURVE",
"1608 1336 CURVE",
"1608 1400 LINE",
"933 1400 LINE",
"933 1336 LINE",
"1024 1336 OFFCURVE",
"1075 1331 OFFCURVE",
"1097 1272 CURVE SMOOTH",
"1576 0 LINE"
);
},
{
closed = 1;
nodes = (
"808 0 LINE",
"1257 1183 LINE",
"1197 1297 LINE",
"868 410 LINE",
"582 1228 LINE SMOOTH",
"576 1245 OFFCURVE",
"569 1268 OFFCURVE",
"569 1282 CURVE SMOOTH",
"569 1334 OFFCURVE",
"634 1336 OFFCURVE",
"714 1336 CURVE",
"714 1400 LINE",
"39 1400 LINE",
"39 1336 LINE",
"129 1336 OFFCURVE",
"222 1331 OFFCURVE",
"244 1272 CURVE SMOOTH",
"723 0 LINE"
);
}
);
width = 2392;
}
);
leftKerningGroup = V;
leftMetricsKey = V;
rightKerningGroup = V;
rightMetricsKey = V;
unicode = 0057;
},
{
glyphname = X;
lastChange = "2021-06-10 20:44:50 +0000";
layers = (
{
anchors = (
{
name = bottom;
position = "{750, 0}";
},
{
name = top;
position = "{750, 1400}";
}
);
layerId = "14A1E899-FED4-4F52-86F4-A1F822586E10";
paths = (
{
closed = 1;
nodes = (
"1499 0 LINE",
"1499 64 LINE",
"1382 64 OFFCURVE",
"1339 65 OFFCURVE",
"1291 128 CURVE SMOOTH",
"440 1244 LINE SMOOTH",
"424 1265 OFFCURVE",
"410 1286 OFFCURVE",
"410 1299 CURVE SMOOTH",
"410 1335 OFFCURVE",
"453 1336 OFFCURVE",
"553 1336 CURVE",
"553 1400 LINE",
"119 1400 LINE",
"119 1336 LINE",
"219 1336 OFFCURVE",
"252 1312 OFFCURVE",
"282 1272 CURVE SMOOTH",
"1140 142 LINE SMOOTH",
"1156 121 OFFCURVE",
"1165 109 OFFCURVE",
"1165 97 CURVE SMOOTH",
"1165 75 OFFCURVE",
"1126 64 OFFCURVE",
"1017 64 CURVE",
"1017 0 LINE"
);
},
{
closed = 1;
nodes = (
"513 0 LINE",
"513 64 LINE",
"399 64 OFFCURVE",
"348 76 OFFCURVE",
"348 111 CURVE SMOOTH",
"348 124 OFFCURVE",
"355 139 OFFCURVE",
"368 156 CURVE SMOOTH",
"787 693 LINE",
"740 758 LINE",
"241 128 LINE SMOOTH",
"204 81 OFFCURVE",
"180 64 OFFCURVE",
"40 64 CURVE",
"40 0 LINE"
);
},
{
closed = 1;
nodes = (
"1245 1272 LINE SMOOTH",
"1279 1314 OFFCURVE",
"1295 1336 OFFCURVE",
"1446 1336 CURVE",
"1446 1400 LINE",
"973 1400 LINE",
"973 1336 LINE",
"1087 1336 OFFCURVE",
"1138 1322 OFFCURVE",
"1138 1287 CURVE SMOOTH",
"1138 1274 OFFCURVE",
"1131 1261 OFFCURVE",
"1118 1244 CURVE SMOOTH",
"699 707 LINE",
"746 642 LINE"
);
}
);
width = 1539;
},
{
anchors = (
{
name = bottom;
position = "{817, 0}";
},
{
name = top;
position = "{817, 1400}";
}
);
layerId = "72F22432-F665-4153-96BB-74D91BCC5F28";
paths = (
{
closed = 1;
nodes = (
"1547 0 LINE",
"1547 64 LINE",
"1435 64 OFFCURVE",
"1395 65 OFFCURVE",
"1349 128 CURVE SMOOTH",
"567 1208 LINE SMOOTH",
"549 1233 OFFCURVE",
"542 1249 OFFCURVE",
"542 1270 CURVE SMOOTH",
"542 1314 OFFCURVE",
"628 1336 OFFCURVE",
"694 1336 CURVE",
"694 1400 LINE",
"39 1400 LINE",
"39 1336 LINE",
"129 1336 OFFCURVE",
"162 1316 OFFCURVE",
"194 1272 CURVE SMOOTH",
"975 188 LINE SMOOTH",
"990 167 OFFCURVE",
"1000 145 OFFCURVE",
"1000 122 CURVE SMOOTH",
"1000 76 OFFCURVE",
"932 64 OFFCURVE",
"836 64 CURVE",
"836 0 LINE"
);
},
{
closed = 1;
nodes = (
"588 0 LINE",
"588 64 LINE",
"480 64 OFFCURVE",
"447 85 OFFCURVE",
"447 123 CURVE SMOOTH",
"447 148 OFFCURVE",
"462 171 OFFCURVE",
"475 188 CURVE SMOOTH",
"849 693 LINE",
"772 758 LINE",
"298 128 LINE SMOOTH",
"263 81 OFFCURVE",
"206 64 OFFCURVE",
"71 64 CURVE",
"71 0 LINE"
);
},
{
closed = 1;
nodes = (
"1320 1272 LINE SMOOTH",
"1355 1319 OFFCURVE",
"1413 1336 OFFCURVE",
"1546 1336 CURVE",
"1546 1400 LINE",
"1029 1400 LINE",
"1029 1336 LINE",
"1137 1336 OFFCURVE",
"1171 1310 OFFCURVE",
"1171 1275 CURVE SMOOTH",
"1171 1260 OFFCURVE",
"1163 1238 OFFCURVE",
"1152 1223 CURVE SMOOTH",
"769 707 LINE",
"846 642 LINE"
);
}
);
width = 1586;
}
);
leftKerningGroup = X;
leftMetricsKey = A;
rightKerningGroup = X;
rightMetricsKey = A;
unicode = 0058;
},
{
glyphname = Y;
lastChange = "2021-06-10 20:39:38 +0000";
layers = (
{
anchors = (
{
name = bottom;
position = "{615, 0}";
},
{
name = top;
position = "{615, 1400}";
},
{
name = topleft;
position = "{-108, 1400}";
}
);
layerId = "14A1E899-FED4-4F52-86F4-A1F822586E10";
paths = (
{
closed = 1;
nodes = (
"915 0 LINE",
"915 64 LINE",
"779 64 OFFCURVE",
"724 69 OFFCURVE",
"724 136 CURVE SMOOTH",
"724 639 LINE",
"1126 1272 LINE SMOOTH",
"1160 1325 OFFCURVE",
"1169 1336 OFFCURVE",
"1290 1336 CURVE",
"1290 1400 LINE",
"915 1400 LINE",
"915 1336 LINE",
"1029 1336 OFFCURVE",
"1041 1331 OFFCURVE",
"1041 1307 CURVE SMOOTH",
"1041 1293 OFFCURVE",
"1034 1272 OFFCURVE",
"1024 1257 CURVE SMOOTH",
"688 735 LINE",
"352 1251 LINE SMOOTH",
"335 1277 OFFCURVE",
"328 1294 OFFCURVE",
"328 1307 CURVE SMOOTH",
"328 1329 OFFCURVE",
"364 1336 OFFCURVE",
"456 1336 CURVE",
"456 1400 LINE",
"40 1400 LINE",
"40 1336 LINE",
"162 1336 OFFCURVE",
"176 1315 OFFCURVE",
"204 1272 CURVE SMOOTH",
"618 639 LINE",
"618 136 LINE SMOOTH",
"618 69 OFFCURVE",
"563 64 OFFCURVE",
"427 64 CURVE",
"427 0 LINE"
);
}
);
width = 1330;
},
{
anchors = (
{
name = bottom;
position = "{800, 0}";
},
{
name = top;
position = "{800, 1400}";
},
{
name = topleft;
position = "{113, 1400}";
}
);
layerId = "72F22432-F665-4153-96BB-74D91BCC5F28";
paths = (
{
closed = 1;
nodes = (
"1085 0 LINE",
"1085 64 LINE",
"956 64 OFFCURVE",
"903 69 OFFCURVE",
"903 171 CURVE SMOOTH",
"903 639 LINE",
"1285 1272 LINE SMOOTH",
"1321 1332 OFFCURVE",
"1357 1336 OFFCURVE",
"1477 1336 CURVE",
"1477 1400 LINE",
"1059 1400 LINE",
"1059 1336 LINE",
"1167 1336 OFFCURVE",
"1179 1331 OFFCURVE",
"1179 1307 CURVE SMOOTH",
"1179 1291 OFFCURVE",
"1172 1272 OFFCURVE",
"1163 1257 CURVE SMOOTH",
"865 775 LINE",
"569 1251 LINE SMOOTH",
"553 1277 OFFCURVE",
"546 1294 OFFCURVE",
"546 1307 CURVE SMOOTH",
"546 1329 OFFCURVE",
"580 1336 OFFCURVE",
"668 1336 CURVE",
"668 1400 LINE",
"39 1400 LINE",
"39 1336 LINE",
"181 1336 OFFCURVE",
"206 1311 OFFCURVE",
"230 1272 CURVE SMOOTH",
"624 639 LINE",
"624 171 LINE SMOOTH",
"624 69 OFFCURVE",
"572 64 OFFCURVE",
"442 64 CURVE",
"442 0 LINE"
);
}
);
width = 1516;
}
);
leftKerningGroup = V;
leftMetricsKey = V;
rightKerningGroup = V;
rightMetricsKey = V;
unicode = 0059;
},
{
glyphname = Z;
lastChange = "2022-02-18 15:51:10 +0000";
layers = (
{
anchors = (
{
name = bottom;
position = "{688, 0}";
},
{
name = center;
position = "{688, 700}";
},
{
name = top;
position = "{688, 1400}";
}
);
layerId = "14A1E899-FED4-4F52-86F4-A1F822586E10";
paths = (
{
closed = 1;
nodes = (
"676 0 LINE",
"634 64 LINE",
"284 64 LINE",
"1146 1338 LINE",
"1146 1400 LINE",
"704 1400 LINE",
"638 1336 LINE",
"1026 1336 LINE",
"160 64 LINE",
"160 0 LINE"
);
},
{
closed = 1;
nodes = (
"1114 0 LINE",
"1161 406 LINE",
"1094 406 LINE",
"1052 173 OFFCURVE",
"1005 64 OFFCURVE",
"848 64 CURVE SMOOTH",
"565 64 LINE",
"565 0 LINE"
);
},
{
closed = 1;
nodes = (
"275 994 LINE",
"329 1237 OFFCURVE",
"354 1336 OFFCURVE",
"511 1336 CURVE SMOOTH",
"764 1336 LINE",
"764 1400 LINE",
"255 1400 LINE",
"208 994 LINE"
);
}
);
width = 1257;
},
{
anchors = (
{
name = bottom;
position = "{654, 0}";
},
{
name = center;
position = "{654, 700}";
},
{
name = top;
position = "{654, 1400}";
}
);
layerId = "72F22432-F665-4153-96BB-74D91BCC5F28";
paths = (
{
closed = 1;
nodes = (
"748 0 LINE",
"708 64 LINE",
"360 64 LINE",
"1210 1338 LINE",
"1210 1400 LINE",
"596 1400 LINE",
"533 1336 LINE",
"917 1336 LINE",
"63 64 LINE",
"63 0 LINE"
);
},
{
closed = 1;
nodes = (
"1184 0 LINE",
"1226 404 LINE",
"1109 404 LINE",
"1075 267 OFFCURVE",
"1006 64 OFFCURVE",
"788 64 CURVE SMOOTH",
"555 64 LINE",
"555 0 LINE"
);
},
{
closed = 1;
nodes = (
"237 1000 LINE",
"276 1178 OFFCURVE",
"325 1336 OFFCURVE",
"463 1336 CURVE SMOOTH",
"661 1336 LINE",
"661 1400 LINE",
"159 1400 LINE",
"108 1000 LINE"
);
}
);
width = 1322;
}
);
leftKerningGroup = Z;
rightKerningGroup = Z;
rightMetricsKey = L;
unicode = 005A;
},
{
glyphname = a;
lastChange = "2022-02-18 15:59:58 +0000";
layers = (
{
anchors = (
{
name = bottom;
position = "{445, 0}";
},
{
name = ogonek;
position = "{865, 22}";
},
{
name = top;
position = "{432, 826}";
}
);
layerId = "14A1E899-FED4-4F52-86F4-A1F822586E10";
paths = (
{
closed = 1;
nodes = (
"417 -28 OFFCURVE",
"488 14 OFFCURVE",
"635 104 CURVE",
"645 7 OFFCURVE",
"713 -19 OFFCURVE",
"758 -19 CURVE SMOOTH",
"795 -19 OFFCURVE",
"838 -9 OFFCURVE",
"865 22 CURVE",
"835 66 LINE",
"784 28 OFFCURVE",
"744 37 OFFCURVE",
"744 96 CURVE SMOOTH",
"744 506 LINE SMOOTH",
"744 810 OFFCURVE",
"594 847 OFFCURVE",
"472 847 CURVE SMOOTH",
"362 847 OFFCURVE",
"204 768 OFFCURVE",
"127 720 CURVE",
"147 500 LINE",
"279 561 LINE",
"223 679 LINE",
"265 721 OFFCURVE",
"383 781 OFFCURVE",
"469 781 CURVE SMOOTH",
"557 781 OFFCURVE",
"626 717 OFFCURVE",
"626 552 CURVE SMOOTH",
"626 504 LINE",
"318 399 LINE SMOOTH",
"177 351 OFFCURVE",
"85 297 OFFCURVE",
"85 167 CURVE SMOOTH",
"85 24 OFFCURVE",
"215 -28 OFFCURVE",
"308 -28 CURVE SMOOTH"
);
},
{
closed = 1;
nodes = (
"274 48 OFFCURVE",
"215 89 OFFCURVE",
"215 182 CURVE SMOOTH",
"215 268 OFFCURVE",
"264 303 OFFCURVE",
"326 325 CURVE SMOOTH",
"626 434 LINE",
"626 174 LINE",
"478 86 OFFCURVE",
"410 48 OFFCURVE",
"338 48 CURVE SMOOTH"
);
}
);
width = 910;
},
{
anchors = (
{
name = bottom;
position = "{514, 0}";
},
{
name = ogonek;
position = "{995, 22}";
},
{
name = top;
position = "{502, 826}";
}
);
layerId = "72F22432-F665-4153-96BB-74D91BCC5F28";
paths = (
{
closed = 1;
nodes = (
"430 -28 OFFCURVE",
"512 6 OFFCURVE",
"619 96 CURVE",
"628 34 OFFCURVE",
"709 -19 OFFCURVE",
"822 -19 CURVE SMOOTH",
"897 -19 OFFCURVE",
"967 -1 OFFCURVE",
"995 22 CURVE",
"966 96 LINE",
"921 65 OFFCURVE",
"880 63 OFFCURVE",
"880 126 CURVE SMOOTH",
"880 506 LINE SMOOTH",
"880 791 OFFCURVE",
"723 847 OFFCURVE",
"541 847 CURVE SMOOTH",
"429 847 OFFCURVE",
"247 788 OFFCURVE",
"105 716 CURVE",
"124 481 LINE",
"351 540 LINE",
"287 676 LINE",
"340 716 OFFCURVE",
"418 773 OFFCURVE",
"498 773 CURVE SMOOTH",
"581 773 OFFCURVE",
"610 717 OFFCURVE",
"610 552 CURVE SMOOTH",
"610 536 LINE",
"335 436 LINE SMOOTH",
"202 388 OFFCURVE",
"70 333 OFFCURVE",
"70 177 CURVE SMOOTH",
"70 25 OFFCURVE",
"192 -28 OFFCURVE",
"320 -28 CURVE SMOOTH"
);
},
{
closed = 1;
nodes = (
"382 84 OFFCURVE",
"351 121 OFFCURVE",
"351 215 CURVE SMOOTH",
"351 327 OFFCURVE",
"399 382 OFFCURVE",
"466 407 CURVE SMOOTH",
"610 461 LINE",
"610 179 LINE",
"509 88 OFFCURVE",
"486 84 OFFCURVE",
"433 84 CURVE SMOOTH"
);
}
);
width = 1019;
}
);
leftKerningGroup = a;
leftMetricsKey = o;
rightKerningGroup = a;
unicode = 0061;
},
{
glyphname = ae;
lastChange = "2022-02-18 15:17:26 +0000";
layers = (
{
anchors = (
{
name = bottom;
position = "{707, 0}";
},
{
name = top;
position = "{686, 821}";
}
);
components = (
{
name = e;
transform = "{1, 0, 0, 1, 556, 0}";
}
);
layerId = "14A1E899-FED4-4F52-86F4-A1F822586E10";
paths = (
{
closed = 1;
nodes = (
"417 -28 OFFCURVE",
"477 6 OFFCURVE",
"625 96 CURVE SMOOTH",
"681 130 OFFCURVE",
"734 187 OFFCURVE",
"734 260 CURVE",
"734 506 LINE SMOOTH",
"734 810 OFFCURVE",
"564 842 OFFCURVE",
"432 842 CURVE SMOOTH",
"339 842 OFFCURVE",
"265 808 OFFCURVE",
"113 724 CURVE",
"113 498 LINE",
"256 555 LINE",
"204 687 LINE",
"270 729 OFFCURVE",
"363 776 OFFCURVE",
"439 776 CURVE SMOOTH",
"527 776 OFFCURVE",
"616 717 OFFCURVE",
"616 552 CURVE",
"616 538 LINE",
"308 419 LINE SMOOTH",
"168 365 OFFCURVE",
"85 317 OFFCURVE",
"85 187 CURVE SMOOTH",
"85 24 OFFCURVE",
"215 -28 OFFCURVE",
"308 -28 CURVE SMOOTH"
);
},
{
closed = 1;
nodes = (
"274 48 OFFCURVE",
"215 87 OFFCURVE",
"215 200 CURVE SMOOTH",
"215 266 OFFCURVE",
"244 317 OFFCURVE",
"305 341 CURVE SMOOTH",
"616 464 LINE",
"616 164 LINE",
"468 76 OFFCURVE",
"410 48 OFFCURVE",
"328 48 CURVE SMOOTH"
);
}
);
width = 1474;
},
{
anchors = (
{
name = bottom;
position = "{840, 0}";
},
{
name = top;
position = "{855, 821}";
}
);
components = (
{
name = e;
transform = "{1, 0, 0, 1, 669, 0}";
}
);
layerId = "72F22432-F665-4153-96BB-74D91BCC5F28";
paths = (
{
closed = 1;
nodes = (
"531 -28 OFFCURVE",
"626 14 OFFCURVE",
"714 73 CURVE SMOOTH",
"795 127 OFFCURVE",
"849 187 OFFCURVE",
"919 274 CURVE",
"919 471 LINE SMOOTH",
"919 745 OFFCURVE",
"808 842 OFFCURVE",
"543 842 CURVE SMOOTH",
"460 842 OFFCURVE",
"290 781 OFFCURVE",
"132 708 CURVE",
"132 430 LINE",
"358 487 LINE",
"299 691 LINE",
"367 730 OFFCURVE",
"442 776 OFFCURVE",
"531 776 CURVE SMOOTH",
"625 776 OFFCURVE",
"700 722 OFFCURVE",
"700 517 CURVE SMOOTH",
"700 522 LINE",
"425 436 LINE SMOOTH",
"256 383 OFFCURVE",
"70 313 OFFCURVE",
"70 189 CURVE SMOOTH",
"70 -44 OFFCURVE",
"282 -28 OFFCURVE",
"389 -28 CURVE SMOOTH"
);
},
{
closed = 1;
nodes = (
"409 43 OFFCURVE",
"345 108 OFFCURVE",
"345 230 CURVE SMOOTH",
"345 349 OFFCURVE",
"381 344 OFFCURVE",
"495 383 CURVE SMOOTH",
"700 454 LINE",
"700 147 LINE",
"636 99 OFFCURVE",
"557 43 OFFCURVE",
"478 43 CURVE SMOOTH"
);
}
);
width = 1644;
}
);
leftKerningGroup = a;
leftMetricsKey = a;
rightKerningGroup = e;
rightMetricsKey = e;
unicode = 00E6;
},
{
glyphname = b;
lastChange = "2022-02-18 16:05:08 +0000";
layers = (
{
anchors = (
{
name = bottom;
position = "{479, 0}";
},
{
name = top;
position = "{243, 1500}";
}
);
layerId = "14A1E899-FED4-4F52-86F4-A1F822586E10";
paths = (
{
closed = 1;
nodes = (
"746 -20 OFFCURVE",
"934 134 OFFCURVE",
"934 418 CURVE SMOOTH",
"934 754 OFFCURVE",
"738 847 OFFCURVE",
"597 847 CURVE SMOOTH",
"500 847 OFFCURVE",
"377 753 OFFCURVE",
"304 695 CURVE",
"304 597 LINE",
"397 682 OFFCURVE",
"499 769 OFFCURVE",
"578 769 CURVE SMOOTH",
"655 769 OFFCURVE",
"816 726 OFFCURVE",
"816 410 CURVE SMOOTH",
"816 187 OFFCURVE",
"691 51 OFFCURVE",
"557 51 CURVE SMOOTH",
"440 51 OFFCURVE",
"337 121 OFFCURVE",
"294 324 CURVE",
"250 214 LINE",
"286 20 OFFCURVE",
"447 -20 OFFCURVE",
"551 -20 CURVE SMOOTH"
);
},
{
closed = 1;
nodes = (
"276 0 LINE",
"305 145 LINE",
"305 1480 LINE",
"250 1520 LINE",
"40 1430 LINE",
"60 1376 LINE",
"181 1398 OFFCURVE",
"199 1399 OFFCURVE",
"199 1338 CURVE SMOOTH",
"199 0 LINE"
);
}
);
width = 1019;
},
{
anchors = (
{
name = bottom;
position = "{568, 0}";
},
{
name = top;
position = "{343, 1500}";
}
);
layerId = "72F22432-F665-4153-96BB-74D91BCC5F28";
paths = (
{
closed = 1;
nodes = (
"801 -20 OFFCURVE",
"1081 94 OFFCURVE",
"1081 438 CURVE SMOOTH",
"1081 774 OFFCURVE",
"875 847 OFFCURVE",
"702 847 CURVE SMOOTH",
"600 847 OFFCURVE",
"520 795 OFFCURVE",
"451 743 CURVE",
"451 645 LINE",
"537 728 OFFCURVE",
"581 769 OFFCURVE",
"656 769 CURVE SMOOTH",
"745 769 OFFCURVE",
"798 653 OFFCURVE",
"798 372 CURVE SMOOTH",
"798 129 OFFCURVE",
"727 51 OFFCURVE",
"632 51 CURVE SMOOTH",
"531 51 OFFCURVE",
"451 131 OFFCURVE",
"451 334 CURVE",
"308 221 LINE",
"342 37 OFFCURVE",
"519 -20 OFFCURVE",
"627 -20 CURVE SMOOTH"
);
},
{
closed = 1;
nodes = (
"265 0 LINE",
"452 214 LINE",
"452 1470 LINE",
"390 1520 LINE",
"25 1413 LINE",
"35 1341 LINE",
"153 1373 OFFCURVE",
"177 1339 OFFCURVE",
"177 1283 CURVE SMOOTH",
"177 0 LINE"
);
}
);
width = 1151;
}
);
leftKerningGroup = b;
leftMetricsKey = "=h-30";
rightKerningGroup = o;
rightMetricsKey = o;
unicode = 0062;
},
{
glyphname = c;
lastChange = "2022-02-18 15:59:53 +0000";
layers = (
{
anchors = (
{
name = bottom;
position = "{463, 0}";
},
{
name = top;
position = "{480, 826}";
}
);
layerId = "14A1E899-FED4-4F52-86F4-A1F822586E10";
paths = (
{
closed = 1;
nodes = (
"629 -22 OFFCURVE",
"738 59 OFFCURVE",
"852 152 CURVE",
"812 206 LINE",
"718 128 OFFCURVE",
"630 57 OFFCURVE",
"494 57 CURVE SMOOTH",
"341 57 OFFCURVE",
"204 198 OFFCURVE",
"204 464 CURVE SMOOTH",
"204 716 OFFCURVE",
"359 784 OFFCURVE",
"488 784 CURVE SMOOTH",
"605 784 OFFCURVE",
"678 718 OFFCURVE",
"700 668 CURVE",
"668 496 LINE",
"821 526 LINE",
"802 696 LINE",
"753 774 OFFCURVE",
"644 850 OFFCURVE",
"492 850 CURVE SMOOTH",
"288 850 OFFCURVE",
"85 708 OFFCURVE",
"85 416 CURVE SMOOTH",
"85 150 OFFCURVE",
"250 -22 OFFCURVE",
"482 -22 CURVE SMOOTH"
);
}
);
width = 907;
},
{
anchors = (
{
name = bottom;
position = "{511, 0}";
},
{
name = top;
position = "{527, 826}";
}
);
layerId = "72F22432-F665-4153-96BB-74D91BCC5F28";
paths = (
{
closed = 1;
nodes = (
"731 -22 OFFCURVE",
"817 49 OFFCURVE",
"925 142 CURVE",
"887 196 LINE",
"768 99 OFFCURVE",
"696 73 OFFCURVE",
"623 73 CURVE SMOOTH",
"441 73 OFFCURVE",
"357 276 OFFCURVE",
"357 499 CURVE SMOOTH",
"357 719 OFFCURVE",
"437 784 OFFCURVE",
"534 784 CURVE SMOOTH",
"635 784 OFFCURVE",
"661 718 OFFCURVE",
"677 648 CURVE",
"643 466 LINE",
"878 496 LINE",
"860 676 LINE",
"804 774 OFFCURVE",
"701 850 OFFCURVE",
"548 850 CURVE SMOOTH",
"312 850 OFFCURVE",
"70 701 OFFCURVE",
"70 409 CURVE SMOOTH",
"70 143 OFFCURVE",
"264 -22 OFFCURVE",
"556 -22 CURVE SMOOTH"
);
}
);
width = 965;
}
);
leftKerningGroup = o;
leftMetricsKey = o;
rightKerningGroup = o;
rightMetricsKey = "=o-30";
unicode = 0063;
},
{
glyphname = d;
lastChange = "2022-02-18 15:25:52 +0000";
layers = (
{
anchors = (
{
name = bottom;
position = "{523, 0}";
},
{
name = center;
position = "{757, 1216}";
},
{
name = top;
position = "{523, 1500}";
},
{
name = topright;
position = "{954, 826}";
}
);
layerId = "14A1E899-FED4-4F52-86F4-A1F822586E10";
paths = (
{
closed = 1;
nodes = (
"536 -27 OFFCURVE",
"592 9 OFFCURVE",
"722 109 CURVE",
"722 14 LINE",
"765 -27 LINE",
"933 0 LINE",
"933 53 LINE",
"851 53 OFFCURVE",
"829 59 OFFCURVE",
"829 121 CURVE SMOOTH",
"829 1480 LINE",
"774 1520 LINE",
"540 1430 LINE",
"560 1374 LINE",
"699 1404 OFFCURVE",
"722 1404 OFFCURVE",
"722 1340 CURVE SMOOTH",
"722 689 LINE",
"694 739 OFFCURVE",
"583 848 OFFCURVE",
"457 848 CURVE SMOOTH",
"271 848 OFFCURVE",
"85 724 OFFCURVE",
"85 418 CURVE SMOOTH",
"85 97 OFFCURVE",
"257 -27 OFFCURVE",
"430 -27 CURVE SMOOTH"
);
},
{
closed = 1;
nodes = (
"305 36 OFFCURVE",
"206 203 OFFCURVE",
"206 447 CURVE SMOOTH",
"206 663 OFFCURVE",
"332 777 OFFCURVE",
"458 777 CURVE SMOOTH",
"580 777 OFFCURVE",
"702 619 OFFCURVE",
"722 514 CURVE",
"722 194 LINE",
"637 120 OFFCURVE",
"528 36 OFFCURVE",
"444 36 CURVE SMOOTH"
);
}
);
width = 1003;
},
{
anchors = (
{
name = bottom;
position = "{522, 0}";
},
{
name = center;
position = "{853, 1188}";
},
{
name = top;
position = "{558, 1500}";
},
{
name = topright;
position = "{1048, 826}";
}
);
layerId = "72F22432-F665-4153-96BB-74D91BCC5F28";
paths = (
{
closed = 1;
nodes = (
"568 -27 OFFCURVE",
"647 22 OFFCURVE",
"747 94 CURVE",
"747 10 LINE",
"801 -33 LINE",
"1122 0 LINE",
"1122 71 LINE",
"1033 61 OFFCURVE",
"1023 83 OFFCURVE",
"1023 139 CURVE SMOOTH",
"1023 1470 LINE",
"961 1520 LINE",
"573 1413 LINE",
"583 1339 LINE",
"722 1373 OFFCURVE",
"747 1333 OFFCURVE",
"747 1285 CURVE SMOOTH",
"747 729 LINE",
"721 773 OFFCURVE",
"614 850 OFFCURVE",
"485 850 CURVE SMOOTH",
"275 850 OFFCURVE",
"70 724 OFFCURVE",
"70 418 CURVE SMOOTH",
"70 97 OFFCURVE",
"288 -27 OFFCURVE",
"451 -27 CURVE SMOOTH"
);
},
{
closed = 1;
nodes = (
"384 62 OFFCURVE",
"358 239 OFFCURVE",
"358 482 CURVE SMOOTH",
"358 698 OFFCURVE",
"432 779 OFFCURVE",
"516 779 CURVE SMOOTH",
"651 779 OFFCURVE",
"727 612 OFFCURVE",
"747 512 CURVE",
"747 187 LINE",
"639 99 OFFCURVE",
"577 62 OFFCURVE",
"526 62 CURVE SMOOTH"
);
}
);
width = 1177;
}
);
leftKerningGroup = o;
leftMetricsKey = o;
rightKerningGroup = l;
rightMetricsKey = i;
unicode = 0064;
},
{
glyphname = eth;
lastChange = "2022-02-18 15:17:26 +0000";
layers = (
{
components = (
{
name = o;
}
);
layerId = "14A1E899-FED4-4F52-86F4-A1F822586E10";
paths = (
{
closed = 1;
nodes = (
"515 1321 OFFCURVE",
"783 1088 OFFCURVE",
"783 512 CURVE",
"899 412 LINE",
"899 1126 OFFCURVE",
"550 1386 OFFCURVE",
"264 1442 CURVE",
"230 1385 LINE"
);
},
{
closed = 1;
nodes = (
"400 1089 LINE",
"711 1401 LINE",
"662 1450 LINE",
"351 1138 LINE"
);
}
);
width = 994;
},
{
components = (
{
name = o;
}
);
layerId = "72F22432-F665-4153-96BB-74D91BCC5F28";
paths = (
{
closed = 1;
nodes = (
"561 1321 OFFCURVE",
"746 1004 OFFCURVE",
"746 562 CURVE",
"989 412 LINE",
"989 1025 OFFCURVE",
"615 1386 OFFCURVE",
"251 1442 CURVE",
"219 1385 LINE"
);
},
{
closed = 1;
nodes = (
"381 1089 LINE",
"676 1401 LINE",
"629 1450 LINE",
"334 1138 LINE"
);
}
);
width = 1059;
}
);
leftKerningGroup = o;
leftMetricsKey = o;
rightKerningGroup = o;
rightMetricsKey = o;
unicode = 00F0;
},
{
glyphname = dcroat;
lastChange = "2022-02-18 16:05:27 +0000";
layers = (
{
components = (
{
name = d;
}
);
layerId = "14A1E899-FED4-4F52-86F4-A1F822586E10";
paths = (
{
closed = 1;
nodes = (
"968 1147 LINE",
"968 1209 LINE",
"396 1209 LINE",
"396 1147 LINE"
);
}
);
width = 1008;
},
{
components = (
{
name = d;
}
);
layerId = "72F22432-F665-4153-96BB-74D91BCC5F28";
paths = (
{
closed = 1;
nodes = (
"1111 1130 LINE",
"1111 1195 LINE",
"478 1195 LINE",
"478 1130 LINE"
);
}
);
width = 1147;
}
);
leftKerningGroup = d;
leftMetricsKey = d;
rightKerningGroup = d;
rightMetricsKey = "=d-30";
unicode = 0111;
},
{
glyphname = e;
lastChange = "2022-02-18 16:05:49 +0000";
layers = (
{
anchors = (
{
name = bottom;
position = "{479, 0}";
},
{
name = ogonek;
position = "{833, 152}";
},
{
name = top;
position = "{479, 826}";
}
);
layerId = "14A1E899-FED4-4F52-86F4-A1F822586E10";
paths = (
{
closed = 1;
nodes = (
"616 -22 OFFCURVE",
"721 60 OFFCURVE",
"833 152 CURVE",
"790 208 LINE",
"694 126 OFFCURVE",
"611 56 OFFCURVE",
"495 56 CURVE SMOOTH",
"325 56 OFFCURVE",
"209 176 OFFCURVE",
"209 465 CURVE",
"810 465 LINE",
"810 709 OFFCURVE",
"677 846 OFFCURVE",
"473 846 CURVE SMOOTH",
"291 846 OFFCURVE",
"85 705 OFFCURVE",
"85 423 CURVE SMOOTH",
"85 130 OFFCURVE",
"256 -22 OFFCURVE",
"468 -22 CURVE SMOOTH"
);
},
{
closed = 1;
nodes = (
"220 660 OFFCURVE",
"321 771 OFFCURVE",
"468 771 CURVE SMOOTH",
"621 771 OFFCURVE",
"677 671 OFFCURVE",
"676 539 CURVE",
"214 539 LINE"
);
}
);
width = 918;
},
{
anchors = (
{
name = bottom;
position = "{497, 0}";
},
{
name = ogonek;
position = "{905, 142}";
},
{
name = top;
position = "{507, 826}";
}
);
layerId = "72F22432-F665-4153-96BB-74D91BCC5F28";
paths = (
{
closed = 1;
nodes = (
"700 -22 OFFCURVE",
"791 44 OFFCURVE",
"905 142 CURVE",
"864 198 LINE",
"749 98 OFFCURVE",
"694 74 OFFCURVE",
"610 74 CURVE SMOOTH",
"446 74 OFFCURVE",
"350 244 OFFCURVE",
"350 468 CURVE",
"900 468 LINE",
"900 711 OFFCURVE",
"744 848 OFFCURVE",
"509 848 CURVE SMOOTH",
"280 848 OFFCURVE",
"70 705 OFFCURVE",
"70 416 CURVE SMOOTH",
"70 150 OFFCURVE",
"235 -22 OFFCURVE",
"532 -22 CURVE SMOOTH"
);
},
{
closed = 1;
nodes = (
"353 680 OFFCURVE",
"399 773 OFFCURVE",
"494 773 CURVE SMOOTH",
"584 773 OFFCURVE",
"622 679 OFFCURVE",
"624 542 CURVE",
"352 542 LINE"
);
}
);
width = 975;
}
);
leftKerningGroup = o;
leftMetricsKey = o;
rightKerningGroup = o;
rightMetricsKey = o;
unicode = 0065;
},
{
glyphname = schwa;
lastChange = "2021-06-10 20:35:33 +0000";
layers = (
{
layerId = "14A1E899-FED4-4F52-86F4-A1F822586E10";
paths = (
{
closed = 1;
nodes = (
"292 848 OFFCURVE",
"187 766 OFFCURVE",
"75 674 CURVE",
"118 618 LINE",
"214 700 OFFCURVE",
"297 770 OFFCURVE",
"413 770 CURVE SMOOTH",
"583 770 OFFCURVE",
"699 650 OFFCURVE",
"699 361 CURVE",
"98 361 LINE",
"98 117 OFFCURVE",
"231 -20 OFFCURVE",
"435 -20 CURVE SMOOTH",
"617 -20 OFFCURVE",
"823 121 OFFCURVE",
"823 403 CURVE SMOOTH",
"823 696 OFFCURVE",
"652 848 OFFCURVE",
"440 848 CURVE SMOOTH"
);
},
{
closed = 1;
nodes = (
"688 166 OFFCURVE",
"597 55 OFFCURVE",
"450 55 CURVE SMOOTH",
"297 55 OFFCURVE",
"240 175 OFFCURVE",
"232 287 CURVE",
"694 287 LINE"
);
}
);
width = 898;
},
{
layerId = "72F22432-F665-4153-96BB-74D91BCC5F28";
paths = (
{
closed = 1;
nodes = (
"275 848 OFFCURVE",
"184 782 OFFCURVE",
"70 684 CURVE",
"111 628 LINE",
"226 728 OFFCURVE",
"281 752 OFFCURVE",
"365 752 CURVE SMOOTH",
"529 752 OFFCURVE",
"645 582 OFFCURVE",
"645 358 CURVE",
"75 358 LINE",
"75 115 OFFCURVE",
"231 -22 OFFCURVE",
"466 -22 CURVE SMOOTH",
"695 -22 OFFCURVE",
"905 121 OFFCURVE",
"905 410 CURVE SMOOTH",
"905 676 OFFCURVE",
"740 848 OFFCURVE",
"443 848 CURVE SMOOTH"
);
},
{
closed = 1;
nodes = (
"642 146 OFFCURVE",
"576 53 OFFCURVE",
"481 53 CURVE SMOOTH",
"391 53 OFFCURVE",
"343 140 OFFCURVE",
"341 284 CURVE",
"643 284 LINE"
);
}
);
width = 975;
}
);
unicode = 0259;
},
{
glyphname = f;
lastChange = "2022-01-29 04:29:19 +0000";
layers = (
{
anchors = (
{
name = bottom;
position = "{355, 0}";
},
{
name = top;
position = "{355, 1500}";
}
);
layerId = "14A1E899-FED4-4F52-86F4-A1F822586E10";
paths = (
{
closed = 1;
nodes = (
"486 0 LINE",
"486 64 LINE",
"376 64 OFFCURVE",
"348 65 OFFCURVE",
"348 122 CURVE SMOOTH",
"348 756 LINE",
"595 756 LINE",
"610 826 LINE",
"348 826 LINE",
"348 1061 LINE SMOOTH",
"348 1372 OFFCURVE",
"410 1449 OFFCURVE",
"524 1449 CURVE SMOOTH",
"539 1449 OFFCURVE",
"552 1438 OFFCURVE",
"558 1432 CURVE",
"538 1289 LINE",
"691 1309 LINE",
"664 1466 LINE",
"644 1484 OFFCURVE",
"580 1517 OFFCURVE",
"547 1517 CURVE SMOOTH",
"360 1517 OFFCURVE",
"238 1395 OFFCURVE",
"238 1071 CURVE SMOOTH",
"238 826 LINE",
"70 826 LINE",
"70 756 LINE",
"238 756 LINE",
"238 122 LINE SMOOTH",
"238 65 OFFCURVE",
"210 64 OFFCURVE",
"100 64 CURVE",
"100 0 LINE"
);
}
);
width = 726;
},
{
anchors = (
{
name = bottom;
position = "{449, 0}";
},
{
name = top;
position = "{449, 1500}";
}
);
layerId = "72F22432-F665-4153-96BB-74D91BCC5F28";
paths = (
{
closed = 1;
nodes = (
"609 0 LINE",
"609 64 LINE",
"505 64 OFFCURVE",
"496 91 OFFCURVE",
"496 157 CURVE SMOOTH",
"496 740 LINE",
"707 740 LINE",
"727 826 LINE",
"496 826 LINE",
"496 1086 LINE SMOOTH",
"496 1347 OFFCURVE",
"555 1432 OFFCURVE",
"638 1432 CURVE SMOOTH",
"651 1432 OFFCURVE",
"658 1427 OFFCURVE",
"662 1422 CURVE",
"640 1209 LINE",
"869 1269 LINE",
"843 1459 LINE",
"824 1475 OFFCURVE",
"754 1517 OFFCURVE",
"687 1517 CURVE SMOOTH",
"523 1517 OFFCURVE",
"219 1410 OFFCURVE",
"219 1051 CURVE SMOOTH",
"219 826 LINE",
"54 826 LINE",
"54 740 LINE",
"219 740 LINE",
"219 157 LINE SMOOTH",
"219 91 OFFCURVE",
"210 64 OFFCURVE",
"106 64 CURVE",
"106 0 LINE"
);
}
);
width = 854;
}
);
leftKerningGroup = f;
rightKerningGroup = f;
unicode = 0066;
},
{
glyphname = g;
lastChange = "2022-02-18 15:12:47 +0000";
layers = (
{
anchors = (
{
name = bottom;
position = "{488, -430}";
},
{
name = top;
position = "{508, 826}";
}
);
layerId = "14A1E899-FED4-4F52-86F4-A1F822586E10";
paths = (
{
closed = 1;
nodes = (
"692 -450 OFFCURVE",
"894 -356 OFFCURVE",
"894 -176 CURVE SMOOTH",
"894 -4 OFFCURVE",
"723 22 OFFCURVE",
"520 46 CURVE SMOOTH",
"337 68 OFFCURVE",
"225 97 OFFCURVE",
"225 147 CURVE SMOOTH",
"225 191 OFFCURVE",
"246 218 OFFCURVE",
"281 241 CURVE",
"301 231 OFFCURVE",
"390 202 OFFCURVE",
"479 202 CURVE SMOOTH",
"652 202 OFFCURVE",
"858 293 OFFCURVE",
"858 524 CURVE SMOOTH",
"858 751 OFFCURVE",
"646 846 OFFCURVE",
"480 846 CURVE SMOOTH",
"323 846 OFFCURVE",
"102 752 OFFCURVE",
"102 524 CURVE SMOOTH",
"102 376 OFFCURVE",
"187 302 OFFCURVE",
"229 271 CURVE",
"186 244 OFFCURVE",
"140 200 OFFCURVE",
"140 141 CURVE SMOOTH",
"140 72 OFFCURVE",
"184 30 OFFCURVE",
"252 5 CURVE",
"204 -8 OFFCURVE",
"76 -60 OFFCURVE",
"76 -197 CURVE SMOOTH",
"76 -369 OFFCURVE",
"283 -450 OFFCURVE",
"478 -450 CURVE SMOOTH"
);
},
{
closed = 1;
nodes = (
"312 -384 OFFCURVE",
"186 -325 OFFCURVE",
"186 -181 CURVE SMOOTH",
"186 -82 OFFCURVE",
"262 -36 OFFCURVE",
"311 -16 CURVE",
"340 -24 OFFCURVE",
"382 -29 OFFCURVE",
"518 -45 CURVE SMOOTH",
"689 -65 OFFCURVE",
"793 -86 OFFCURVE",
"793 -205 CURVE SMOOTH",
"793 -302 OFFCURVE",
"653 -384 OFFCURVE",
"493 -384 CURVE SMOOTH"
);
},
{
closed = 1;
nodes = (
"361 268 OFFCURVE",
"222 325 OFFCURVE",
"222 533 CURVE SMOOTH",
"222 693 OFFCURVE",
"352 778 OFFCURVE",
"480 778 CURVE SMOOTH",
"624 778 OFFCURVE",
"746 700 OFFCURVE",
"746 501 CURVE SMOOTH",
"746 314 OFFCURVE",
"595 268 OFFCURVE",
"481 268 CURVE SMOOTH"
);
},
{
closed = 1;
nodes = (
"945 867 LINE",
"878 933 LINE",
"699 741 LINE",
"742 704 LINE"
);
}
);
width = 965;
},
{
anchors = (
{
name = bottom;
position = "{543, -430}";
},
{
name = top;
position = "{543, 826}";
}
);
layerId = "72F22432-F665-4153-96BB-74D91BCC5F28";
paths = (
{
closed = 1;
nodes = (
"723 -455 OFFCURVE",
"1007 -369 OFFCURVE",
"1007 -124 CURVE SMOOTH",
"1007 65 OFFCURVE",
"785 98 OFFCURVE",
"556 129 CURVE SMOOTH",
"467 141 OFFCURVE",
"300 167 OFFCURVE",
"300 214 CURVE SMOOTH",
"300 227 OFFCURVE",
"326 247 OFFCURVE",
"359 260 CURVE",
"377 251 OFFCURVE",
"428 237 OFFCURVE",
"515 237 CURVE SMOOTH",
"723 237 OFFCURVE",
"924 351 OFFCURVE",
"924 547 CURVE SMOOTH",
"924 782 OFFCURVE",
"683 847 OFFCURVE",
"511 847 CURVE SMOOTH",
"326 847 OFFCURVE",
"108 777 OFFCURVE",
"108 547 CURVE SMOOTH",
"108 381 OFFCURVE",
"212 318 OFFCURVE",
"266 287 CURVE",
"150 244 OFFCURVE",
"121 183 OFFCURVE",
"121 140 CURVE SMOOTH",
"121 56 OFFCURVE",
"187 11 OFFCURVE",
"235 -5 CURVE",
"172 -24 OFFCURVE",
"61 -78 OFFCURVE",
"61 -197 CURVE SMOOTH",
"61 -396 OFFCURVE",
"291 -455 OFFCURVE",
"531 -455 CURVE SMOOTH"
);
},
{
closed = 1;
nodes = (
"337 -379 OFFCURVE",
"240 -308 OFFCURVE",
"240 -179 CURVE SMOOTH",
"240 -96 OFFCURVE",
"275 -68 OFFCURVE",
"312 -46 CURVE",
"333 -56 OFFCURVE",
"376 -64 OFFCURVE",
"565 -97 CURVE SMOOTH",
"726 -125 OFFCURVE",
"793 -140 OFFCURVE",
"793 -228 CURVE SMOOTH",
"793 -339 OFFCURVE",
"673 -379 OFFCURVE",
"530 -379 CURVE SMOOTH"
);
},
{
closed = 1;
nodes = (
"412 312 OFFCURVE",
"368 391 OFFCURVE",
"368 548 CURVE SMOOTH",
"368 690 OFFCURVE",
"424 779 OFFCURVE",
"518 779 CURVE SMOOTH",
"617 779 OFFCURVE",
"665 693 OFFCURVE",
"665 539 CURVE SMOOTH",
"665 392 OFFCURVE",
"614 312 OFFCURVE",
"517 312 CURVE SMOOTH"
);
},
{
closed = 1;
nodes = (
"1066 874 LINE",
"936 998 LINE",
"777 771 LINE",
"838 703 LINE"
);
}
);
width = 1071;
}
);
leftKerningGroup = o;
leftMetricsKey = "=o-9";
rightMetricsKey = "=o-65";
unicode = 0067;
},
{
glyphname = h;
lastChange = "2022-02-18 15:17:26 +0000";
layers = (
{
anchors = (
{
name = bottom;
position = "{523, 0}";
},
{
name = center;
position = "{523, 750}";
},
{
name = top;
position = "{280, 1400}";
}
);
layerId = "14A1E899-FED4-4F52-86F4-A1F822586E10";
paths = (
{
closed = 1;
nodes = (
"463 0 LINE",
"463 64 LINE",
"353 64 OFFCURVE",
"335 69 OFFCURVE",
"335 122 CURVE SMOOTH",
"335 600 LINE",
"474 706 OFFCURVE",
"560 767 OFFCURVE",
"629 767 CURVE SMOOTH",
"698 767 OFFCURVE",
"780 729 OFFCURVE",
"780 592 CURVE SMOOTH",
"780 122 LINE SMOOTH",
"780 69 OFFCURVE",
"762 64 OFFCURVE",
"652 64 CURVE",
"652 0 LINE",
"1016 0 LINE",
"1016 64 LINE",
"906 64 OFFCURVE",
"888 69 OFFCURVE",
"888 122 CURVE SMOOTH",
"888 564 LINE SMOOTH",
"888 779 OFFCURVE",
"802 847 OFFCURVE",
"652 847 CURVE SMOOTH",
"548 847 OFFCURVE",
"441 769 OFFCURVE",
"335 691 CURVE",
"335 1480 LINE",
"280 1520 LINE",
"70 1430 LINE",
"90 1376 LINE",
"219 1396 OFFCURVE",
"229 1395 OFFCURVE",
"229 1334 CURVE SMOOTH",
"229 126 LINE SMOOTH",
"229 69 OFFCURVE",
"195 64 OFFCURVE",
"98 64 CURVE",
"98 0 LINE"
);
}
);
width = 1086;
},
{
anchors = (
{
name = bottom;
position = "{661, 0}";
},
{
name = center;
position = "{661, 750}";
},
{
name = top;
position = "{366, 1400}";
}
);
layerId = "72F22432-F665-4153-96BB-74D91BCC5F28";
paths = (
{
closed = 1;
nodes = (
"604 0 LINE",
"604 64 LINE",
"499 64 OFFCURVE",
"482 88 OFFCURVE",
"482 157 CURVE SMOOTH",
"482 637 LINE",
"583 726 OFFCURVE",
"617 756 OFFCURVE",
"683 756 CURVE SMOOTH",
"757 756 OFFCURVE",
"776 685 OFFCURVE",
"776 562 CURVE SMOOTH",
"776 157 LINE SMOOTH",
"776 88 OFFCURVE",
"759 64 OFFCURVE",
"654 64 CURVE",
"654 0 LINE",
"1185 0 LINE",
"1185 64 LINE",
"1081 64 OFFCURVE",
"1063 88 OFFCURVE",
"1063 157 CURVE SMOOTH",
"1063 505 LINE SMOOTH",
"1063 719 OFFCURVE",
"959 846 OFFCURVE",
"746 846 CURVE SMOOTH",
"639 846 OFFCURVE",
"566 803 OFFCURVE",
"482 738 CURVE",
"482 1470 LINE",
"420 1520 LINE",
"55 1413 LINE",
"65 1341 LINE",
"192 1363 OFFCURVE",
"207 1332 OFFCURVE",
"207 1282 CURVE SMOOTH",
"207 161 LINE SMOOTH",
"207 88 OFFCURVE",
"174 64 OFFCURVE",
"82 64 CURVE",
"82 0 LINE"
);
}
);
width = 1240;
}
);
leftKerningGroup = h;
leftMetricsKey = i;
rightKerningGroup = n;
rightMetricsKey = i;
unicode = 0068;
},
{
glyphname = hbar;
lastChange = "2022-02-18 16:05:41 +0000";
layers = (
{
components = (
{
name = h;
}
);
layerId = "14A1E899-FED4-4F52-86F4-A1F822586E10";
paths = (
{
closed = 1;
nodes = (
"619 1130 LINE",
"619 1192 LINE",
"47 1192 LINE",
"47 1130 LINE"
);
}
);
width = 1086;
},
{
components = (
{
name = h;
}
);
layerId = "72F22432-F665-4153-96BB-74D91BCC5F28";
paths = (
{
closed = 1;
nodes = (
"678 1123 LINE",
"678 1188 LINE",
"45 1188 LINE",
"45 1123 LINE"
);
}
);
width = 1128;
}
);
unicode = 0127;
},
{
glyphname = i;
lastChange = "2022-02-18 15:17:12 +0000";
layers = (
{
anchors = (
{
name = bottom;
position = "{286, 0}";
}
);
layerId = "14A1E899-FED4-4F52-86F4-A1F822586E10";
paths = (
{
closed = 1;
nodes = (
"504 0 LINE",
"504 64 LINE",
"378 64 OFFCURVE",
"344 70 OFFCURVE",
"344 122 CURVE SMOOTH",
"344 815 LINE",
"289 855 LINE",
"70 799 LINE",
"89 745 LINE",
"204 774 OFFCURVE",
"238 765 OFFCURVE",
"238 670 CURVE SMOOTH",
"238 119 LINE SMOOTH",
"238 70 OFFCURVE",
"205 64 OFFCURVE",
"79 64 CURVE",
"79 0 LINE"
);
},
{
closed = 1;
nodes = (
"327 1046 OFFCURVE",
"368 1087 OFFCURVE",
"368 1137 CURVE SMOOTH",
"368 1186 OFFCURVE",
"327 1227 OFFCURVE",
"278 1227 CURVE SMOOTH",
"228 1227 OFFCURVE",
"187 1186 OFFCURVE",
"187 1137 CURVE SMOOTH",
"187 1087 OFFCURVE",
"228 1046 OFFCURVE",
"278 1046 CURVE SMOOTH"
);
}
);
width = 574;
},
{
anchors = (
{
name = bottom;
position = "{382, 0}";
}
);
layerId = "72F22432-F665-4153-96BB-74D91BCC5F28";
paths = (
{
closed = 1;
nodes = (
"633 0 LINE",
"633 64 LINE",
"533 64 OFFCURVE",
"491 88 OFFCURVE",
"491 157 CURVE SMOOTH",
"491 815 LINE",
"428 855 LINE",
"55 770 LINE",
"65 698 LINE",
"209 733 OFFCURVE",
"215 712 OFFCURVE",
"215 613 CURVE SMOOTH",
"215 154 LINE SMOOTH",
"215 88 OFFCURVE",
"174 64 OFFCURVE",
"73 64 CURVE",
"73 0 LINE"
);
},
{
closed = 1;
nodes = (
"436 1019 OFFCURVE",
"511 1096 OFFCURVE",
"511 1191 CURVE SMOOTH",
"511 1283 OFFCURVE",
"436 1360 OFFCURVE",
"344 1360 CURVE SMOOTH",
"252 1360 OFFCURVE",
"177 1283 OFFCURVE",
"177 1191 CURVE SMOOTH",
"177 1096 OFFCURVE",
"252 1019 OFFCURVE",
"344 1019 CURVE SMOOTH"
);
}
);
width = 688;
}
);
leftKerningGroup = i;
rightKerningGroup = i;
unicode = 0069;
},
{
glyphname = idotless;
lastChange = "2020-10-13 20:10:10 +0000";
layers = (
{
anchors = (
{
name = bottom;
position = "{253, 0}";
},
{
name = ogonek;
position = "{453, 0}";
},
{
name = top;
position = "{249, 826}";
}
);
layerId = "14A1E899-FED4-4F52-86F4-A1F822586E10";
paths = (
{
closed = 1;
nodes = (
"453 0 LINE",
"453 64 LINE",
"347 64 OFFCURVE",
"303 70 OFFCURVE",
"303 122 CURVE SMOOTH",
"303 841 LINE",
"258 841 LINE",
"58 785 LINE",
"58 731 LINE",
"173 760 OFFCURVE",
"197 751 OFFCURVE",
"197 670 CURVE SMOOTH",
"197 119 LINE SMOOTH",
"197 70 OFFCURVE",
"154 64 OFFCURVE",
"48 64 CURVE",
"48 0 LINE"
);
}
);
width = 501;
},
{
anchors = (
{
name = bottom;
position = "{297, 0}";
},
{
name = ogonek;
position = "{555, 0}";
},
{
name = top;
position = "{294, 826}";
}
);
layerId = "72F22432-F665-4153-96BB-74D91BCC5F28";
paths = (
{
closed = 1;
nodes = (
"555 0 LINE",
"555 64 LINE",
"455 64 OFFCURVE",
"413 88 OFFCURVE",
"413 157 CURVE SMOOTH",
"413 841 LINE",
"370 841 LINE",
"37 726 LINE",
"37 654 LINE",
"181 689 OFFCURVE",
"187 668 OFFCURVE",
"187 583 CURVE SMOOTH",
"187 154 LINE SMOOTH",
"187 88 OFFCURVE",
"146 64 OFFCURVE",
"45 64 CURVE",
"45 0 LINE"
);
}
);
width = 601;
}
);
unicode = 0131;
},
{
glyphname = j;
lastChange = "2022-02-18 15:58:03 +0000";
layers = (
{
layerId = "14A1E899-FED4-4F52-86F4-A1F822586E10";
paths = (
{
closed = 1;
nodes = (
"284 -438 OFFCURVE",
"365 -290 OFFCURVE",
"365 -42 CURVE SMOOTH",
"365 816 LINE",
"310 856 LINE",
"109 796 LINE",
"129 745 LINE",
"245 774 OFFCURVE",
"259 759 OFFCURVE",
"259 688 CURVE SMOOTH",
"259 -48 LINE SMOOTH",
"259 -294 OFFCURVE",
"200 -374 OFFCURVE",
"103 -374 CURVE SMOOTH",
"78 -374 OFFCURVE",
"61 -358 OFFCURVE",
"61 -333 CURVE SMOOTH",
"61 -223 LINE",
"-80 -283 LINE",
"-36 -393 LINE",
"-7 -417 OFFCURVE",
"47 -438 OFFCURVE",
"98 -438 CURVE SMOOTH"
);
},
{
closed = 1;
nodes = (
"341 1046 OFFCURVE",
"382 1087 OFFCURVE",
"382 1137 CURVE SMOOTH",
"382 1186 OFFCURVE",
"341 1227 OFFCURVE",
"292 1227 CURVE SMOOTH",
"242 1227 OFFCURVE",
"201 1186 OFFCURVE",
"201 1137 CURVE SMOOTH",
"201 1087 OFFCURVE",
"242 1046 OFFCURVE",
"292 1046 CURVE SMOOTH"
);
}
);
width = 517;
},
{
layerId = "72F22432-F665-4153-96BB-74D91BCC5F28";
paths = (
{
closed = 1;
nodes = (
"341 -431 OFFCURVE",
"512 -290 OFFCURVE",
"512 -42 CURVE SMOOTH",
"512 814 LINE",
"449 854 LINE",
"75 772 LINE",
"85 698 LINE",
"222 730 OFFCURVE",
"236 726 OFFCURVE",
"236 658 CURVE SMOOTH",
"236 -48 LINE SMOOTH",
"236 -255 OFFCURVE",
"221 -307 OFFCURVE",
"160 -307 CURVE SMOOTH",
"128 -307 OFFCURVE",
"117 -277 OFFCURVE",
"117 -259 CURVE SMOOTH",
"117 -144 LINE",
"-90 -213 LINE",
"-31 -370 LINE",
"5 -402 OFFCURVE",
"56 -431 OFFCURVE",
"146 -431 CURVE SMOOTH"
);
},
{
closed = 1;
nodes = (
"458 1019 OFFCURVE",
"533 1096 OFFCURVE",
"533 1191 CURVE SMOOTH",
"533 1283 OFFCURVE",
"458 1360 OFFCURVE",
"366 1360 CURVE SMOOTH",
"274 1360 OFFCURVE",
"199 1283 OFFCURVE",
"199 1191 CURVE SMOOTH",
"199 1096 OFFCURVE",
"274 1019 OFFCURVE",
"366 1019 CURVE SMOOTH"
);
}
);
width = 653;
}
);
leftKerningGroup = j;
rightMetricsKey = "=o+50";
unicode = 006A;
},
{
glyphname = jdotless;
lastChange = "2022-02-18 15:17:26 +0000";
layers = (
{
anchors = (
{
name = bottom;
position = "{261, -500}";
},
{
name = top;
position = "{261, 826}";
}
);
layerId = "14A1E899-FED4-4F52-86F4-A1F822586E10";
paths = (
{
closed = 1;
nodes = (
"269 -441 OFFCURVE",
"350 -290 OFFCURVE",
"350 -42 CURVE SMOOTH",
"350 841 LINE",
"305 841 LINE",
"104 781 LINE",
"104 730 LINE",
"220 759 OFFCURVE",
"244 744 OFFCURVE",
"244 673 CURVE SMOOTH",
"244 -48 LINE SMOOTH",
"244 -294 OFFCURVE",
"175 -374 OFFCURVE",
"78 -374 CURVE SMOOTH",
"-10 -374 OFFCURVE",
"-22 -340 OFFCURVE",
"-29 -307 CURVE",
"-95 -385 LINE",
"-63 -415 OFFCURVE",
"-19 -441 OFFCURVE",
"63 -441 CURVE SMOOTH"
);
},
{
closed = 1;
nodes = (
"-18 -351 LINE",
"20 -211 LINE",
"-95 -230 LINE",
"-95 -385 LINE"
);
}
);
width = 485;
},
{
anchors = (
{
name = bottom;
position = "{303, -395}";
},
{
name = top;
position = "{303, 826}";
}
);
layerId = "72F22432-F665-4153-96BB-74D91BCC5F28";
paths = (
{
closed = 1;
nodes = (
"255 -441 OFFCURVE",
"386 -290 OFFCURVE",
"386 -42 CURVE SMOOTH",
"386 841 LINE",
"343 841 LINE",
"9 729 LINE",
"9 655 LINE",
"146 687 OFFCURVE",
"160 683 OFFCURVE",
"160 615 CURVE SMOOTH",
"160 -48 LINE SMOOTH",
"160 -295 OFFCURVE",
"166 -357 OFFCURVE",
"74 -357 CURVE SMOOTH",
"9 -357 OFFCURVE",
"4 -286 OFFCURVE",
"8 -272 CURVE",
"-126 -403 LINE",
"-77 -433 OFFCURVE",
"-16 -441 OFFCURVE",
"60 -441 CURVE SMOOTH"
);
},
{
closed = 1;
nodes = (
"28 -351 LINE",
"55 -194 LINE",
"-126 -213 LINE",
"-126 -403 LINE"
);
}
);
width = 506;
}
);
rightMetricsKey = "=o+50";
unicode = 0237;
},
{
glyphname = k;
lastChange = "2022-02-18 15:17:26 +0000";
layers = (
{
anchors = (
{
name = bottom;
position = "{526, 0}";
},
{
name = top;
position = "{526, 1500}";
}
);
layerId = "14A1E899-FED4-4F52-86F4-A1F822586E10";
paths = (
{
closed = 1;
nodes = (
"463 0 LINE",
"463 64 LINE",
"353 64 OFFCURVE",
"335 70 OFFCURVE",
"335 132 CURVE SMOOTH",
"335 359 LINE",
"522 492 LINE",
"799 124 LINE SMOOTH",
"812 107 OFFCURVE",
"820 95 OFFCURVE",
"820 81 CURVE SMOOTH",
"820 66 OFFCURVE",
"799 64 OFFCURVE",
"701 64 CURVE",
"701 0 LINE",
"1055 0 LINE",
"1055 64 LINE",
"970 64 OFFCURVE",
"948 82 OFFCURVE",
"908 136 CURVE SMOOTH",
"600 552 LINE",
"819 714 LINE SMOOTH",
"869 751 OFFCURVE",
"888 762 OFFCURVE",
"987 762 CURVE",
"987 826 LINE",
"619 826 LINE",
"619 762 LINE",
"716 762 OFFCURVE",
"745 761 OFFCURVE",
"745 749 CURVE SMOOTH",
"745 742 OFFCURVE",
"738 735 OFFCURVE",
"720 722 CURVE SMOOTH",
"335 447 LINE",
"335 1480 LINE",
"280 1520 LINE",
"70 1430 LINE",
"90 1376 LINE",
"219 1396 OFFCURVE",
"229 1396 OFFCURVE",
"229 1330 CURVE SMOOTH",
"229 126 LINE SMOOTH",
"229 73 OFFCURVE",
"179 64 OFFCURVE",
"98 64 CURVE",
"98 0 LINE"
);
}
);
width = 1085;
},
{
anchors = (
{
name = bottom;
position = "{664, 0}";
},
{
name = top;
position = "{664, 1500}";
}
);
layerId = "72F22432-F665-4153-96BB-74D91BCC5F28";
paths = (
{
closed = 1;
nodes = (
"604 0 LINE",
"604 64 LINE",
"494 64 OFFCURVE",
"482 106 OFFCURVE",
"482 162 CURVE SMOOTH",
"482 345 LINE",
"605 450 LINE",
"754 176 LINE SMOOTH",
"780 129 OFFCURVE",
"785 118 OFFCURVE",
"785 96 CURVE SMOOTH",
"785 67 OFFCURVE",
"742 64 OFFCURVE",
"666 64 CURVE",
"666 0 LINE",
"1199 0 LINE",
"1199 64 LINE",
"1166 64 OFFCURVE",
"1094 72 OFFCURVE",
"1059 136 CURVE SMOOTH",
"803 605 LINE",
"928 714 LINE SMOOTH",
"982 761 OFFCURVE",
"1031 762 OFFCURVE",
"1094 762 CURVE",
"1094 826 LINE",
"712 826 LINE",
"712 762 LINE",
"794 762 OFFCURVE",
"811 758 OFFCURVE",
"811 743 CURVE SMOOTH",
"811 735 OFFCURVE",
"809 730 OFFCURVE",
"799 722 CURVE SMOOTH",
"482 465 LINE",
"482 1470 LINE",
"420 1520 LINE",
"55 1413 LINE",
"65 1341 LINE",
"183 1383 OFFCURVE",
"207 1350 OFFCURVE",
"207 1295 CURVE SMOOTH",
"207 161 LINE SMOOTH",
"207 68 OFFCURVE",
"159 64 OFFCURVE",
"82 64 CURVE",
"82 0 LINE"
);
}
);
width = 1219;
}
);
leftKerningGroup = h;
leftMetricsKey = i;
rightKerningGroup = k;
unicode = 006B;
},
{
glyphname = l;
lastChange = "2022-02-18 15:17:26 +0000";
layers = (
{
anchors = (
{
name = bottom;
position = "{265, 0}";
},
{
name = center;
position = "{305, 750}";
},
{
name = top;
position = "{297, 1475}";
},
{
name = topright;
position = "{403, 826}";
}
);
layerId = "14A1E899-FED4-4F52-86F4-A1F822586E10";
paths = (
{
closed = 1;
nodes = (
"521 0 LINE",
"521 64 LINE",
"395 64 OFFCURVE",
"355 65 OFFCURVE",
"355 122 CURVE SMOOTH",
"355 1480 LINE",
"300 1520 LINE",
"70 1430 LINE",
"90 1376 LINE",
"219 1396 OFFCURVE",
"249 1390 OFFCURVE",
"249 1334 CURVE SMOOTH",
"249 122 LINE SMOOTH",
"249 65 OFFCURVE",
"206 64 OFFCURVE",
"80 64 CURVE",
"80 0 LINE"
);
}
);
width = 591;
},
{
anchors = (
{
name = bottom;
position = "{361, 0}";
},
{
name = center;
position = "{373, 750}";
},
{
name = top;
position = "{363, 1477}";
},
{
name = topright;
position = "{526, 826}";
}
);
layerId = "72F22432-F665-4153-96BB-74D91BCC5F28";
paths = (
{
closed = 1;
nodes = (
"621 0 LINE",
"621 64 LINE",
"521 64 OFFCURVE",
"482 109 OFFCURVE",
"482 175 CURVE SMOOTH",
"482 1470 LINE",
"430 1520 LINE",
"55 1413 LINE",
"65 1341 LINE",
"192 1383 OFFCURVE",
"207 1341 OFFCURVE",
"207 1282 CURVE SMOOTH",
"207 175 LINE SMOOTH",
"207 109 OFFCURVE",
"165 64 OFFCURVE",
"65 64 CURVE",
"65 0 LINE"
);
}
);
width = 676;
}
);
leftKerningGroup = h;
leftMetricsKey = i;
rightKerningGroup = l;
rightMetricsKey = i;
unicode = 006C;
},
{
glyphname = lslash;
lastChange = "2020-10-13 20:10:10 +0000";
layers = (
{
components = (
{
name = l;
transform = "{1, 0, 0, 1, 95, 0}";
}
);
layerId = "14A1E899-FED4-4F52-86F4-A1F822586E10";
paths = (
{
closed = 1;
nodes = (
"75 381 LINE",
"671 942 LINE",
"619 997 LINE",
"22 437 LINE"
);
}
);
width = 735;
},
{
components = (
{
name = l;
transform = "{1, 0, 0, 1, 91, 0}";
}
);
layerId = "72F22432-F665-4153-96BB-74D91BCC5F28";
paths = (
{
closed = 1;
nodes = (
"54 323 LINE",
"752 1007 LINE",
"681 1083 LINE",
"-18 400 LINE"
);
}
);
width = 735;
}
);
unicode = 0142;
},
{
glyphname = m;
lastChange = "2022-02-18 16:00:17 +0000";
layers = (
{
anchors = (
{
name = bottom;
position = "{835, 0}";
},
{
name = top;
position = "{854, 826}";
}
);
layerId = "14A1E899-FED4-4F52-86F4-A1F822586E10";
paths = (
{
closed = 1;
nodes = (
"467 0 LINE",
"467 64 LINE",
"357 64 OFFCURVE",
"339 68 OFFCURVE",
"339 122 CURVE SMOOTH",
"339 815 LINE",
"284 855 LINE",
"70 785 LINE",
"90 731 LINE",
"207 751 OFFCURVE",
"229 753 OFFCURVE",
"229 679 CURVE SMOOTH",
"229 116 LINE SMOOTH",
"229 68 OFFCURVE",
"195 64 OFFCURVE",
"98 64 CURVE",
"98 0 LINE"
);
},
{
closed = 1;
nodes = (
"1004 0 LINE",
"1004 64 LINE",
"894 64 OFFCURVE",
"876 68 OFFCURVE",
"876 122 CURVE SMOOTH",
"876 599 LINE SMOOTH",
"876 787 OFFCURVE",
"774 841 OFFCURVE",
"653 841 CURVE SMOOTH",
"573 841 OFFCURVE",
"460 767 OFFCURVE",
"333 682 CURVE",
"333 594 LINE",
"482 697 OFFCURVE",
"580 759 OFFCURVE",
"635 759 CURVE SMOOTH",
"699 759 OFFCURVE",
"766 726 OFFCURVE",
"766 604 CURVE SMOOTH",
"766 122 LINE SMOOTH",
"766 68 OFFCURVE",
"748 64 OFFCURVE",
"638 64 CURVE",
"638 0 LINE"
);
},
{
closed = 1;
nodes = (
"1526 0 LINE",
"1526 64 LINE",
"1416 64 OFFCURVE",
"1398 68 OFFCURVE",
"1398 122 CURVE SMOOTH",
"1398 599 LINE SMOOTH",
"1398 787 OFFCURVE",
"1296 841 OFFCURVE",
"1175 841 CURVE SMOOTH",
"1095 841 OFFCURVE",
"982 767 OFFCURVE",
"855 682 CURVE",
"855 594 LINE",
"1004 697 OFFCURVE",
"1102 759 OFFCURVE",
"1157 759 CURVE SMOOTH",
"1221 759 OFFCURVE",
"1288 726 OFFCURVE",
"1288 604 CURVE SMOOTH",
"1288 122 LINE SMOOTH",
"1288 68 OFFCURVE",
"1270 64 OFFCURVE",
"1160 64 CURVE",
"1160 0 LINE"
);
}
);
width = 1566;
},
{
anchors = (
{
name = bottom;
position = "{874, 0}";
},
{
name = top;
position = "{892, 826}";
}
);
layerId = "72F22432-F665-4153-96BB-74D91BCC5F28";
paths = (
{
closed = 1;
nodes = (
"601 0 LINE",
"601 64 LINE",
"497 64 OFFCURVE",
"480 124 OFFCURVE",
"480 192 CURVE SMOOTH",
"480 816 LINE",
"427 856 LINE",
"55 771 LINE",
"65 699 LINE",
"189 737 OFFCURVE",
"207 689 OFFCURVE",
"207 626 CURVE SMOOTH",
"207 186 LINE SMOOTH",
"207 124 OFFCURVE",
"174 64 OFFCURVE",
"82 64 CURVE",
"82 0 LINE"
);
},
{
closed = 1;
nodes = (
"1158 0 LINE",
"1158 64 LINE",
"1053 64 OFFCURVE",
"1036 124 OFFCURVE",
"1036 192 CURVE SMOOTH",
"1036 566 LINE SMOOTH",
"1036 804 OFFCURVE",
"867 843 OFFCURVE",
"767 843 CURVE SMOOTH",
"646 843 OFFCURVE",
"512 760 OFFCURVE",
"445 704 CURVE",
"445 606 LINE",
"525 674 OFFCURVE",
"609 729 OFFCURVE",
"672 729 CURVE SMOOTH",
"747 729 OFFCURVE",
"781 682 OFFCURVE",
"781 555 CURVE SMOOTH",
"781 192 LINE SMOOTH",
"781 124 OFFCURVE",
"764 64 OFFCURVE",
"659 64 CURVE",
"659 0 LINE"
);
},
{
closed = 1;
nodes = (
"1718 0 LINE",
"1718 64 LINE",
"1613 64 OFFCURVE",
"1596 124 OFFCURVE",
"1596 192 CURVE SMOOTH",
"1596 566 LINE SMOOTH",
"1596 804 OFFCURVE",
"1418 843 OFFCURVE",
"1317 843 CURVE SMOOTH",
"1198 843 OFFCURVE",
"1073 763 OFFCURVE",
"1005 704 CURVE",
"1005 606 LINE",
"1083 674 OFFCURVE",
"1166 729 OFFCURVE",
"1232 729 CURVE SMOOTH",
"1307 729 OFFCURVE",
"1339 682 OFFCURVE",
"1339 555 CURVE SMOOTH",
"1339 192 LINE SMOOTH",
"1339 124 OFFCURVE",
"1322 64 OFFCURVE",
"1218 64 CURVE",
"1218 0 LINE"
);
}
);
width = 1743;
}
);
leftKerningGroup = n;
leftMetricsKey = i;
rightKerningGroup = n;
rightMetricsKey = "=i-30";
unicode = 006D;
},
{
glyphname = n;
lastChange = "2022-02-18 16:00:17 +0000";
layers = (
{
anchors = (
{
name = bottom;
position = "{547, 0}";
},
{
name = top;
position = "{530, 826}";
}
);
layerId = "14A1E899-FED4-4F52-86F4-A1F822586E10";
paths = (
{
closed = 1;
nodes = (
"1024 0 LINE",
"1024 64 LINE",
"914 64 OFFCURVE",
"896 68 OFFCURVE",
"896 122 CURVE SMOOTH",
"896 599 LINE SMOOTH",
"896 787 OFFCURVE",
"794 841 OFFCURVE",
"663 841 CURVE SMOOTH",
"568 841 OFFCURVE",
"457 766 OFFCURVE",
"333 682 CURVE",
"333 594 LINE",
"482 697 OFFCURVE",
"575 759 OFFCURVE",
"645 759 CURVE SMOOTH",
"719 759 OFFCURVE",
"786 726 OFFCURVE",
"786 604 CURVE SMOOTH",
"786 122 LINE SMOOTH",
"786 68 OFFCURVE",
"768 64 OFFCURVE",
"658 64 CURVE",
"658 0 LINE"
);
},
{
closed = 1;
nodes = (
"467 0 LINE",
"467 64 LINE",
"357 64 OFFCURVE",
"339 68 OFFCURVE",
"339 122 CURVE SMOOTH",
"339 816 LINE",
"284 856 LINE",
"70 786 LINE",
"90 732 LINE",
"207 752 OFFCURVE",
"229 754 OFFCURVE",
"229 680 CURVE SMOOTH",
"229 116 LINE SMOOTH",
"229 68 OFFCURVE",
"195 64 OFFCURVE",
"98 64 CURVE",
"98 0 LINE"
);
}
);
width = 1064;
},
{
anchors = (
{
name = bottom;
position = "{638, 0}";
},
{
name = top;
position = "{622, 826}";
}
);
layerId = "72F22432-F665-4153-96BB-74D91BCC5F28";
paths = (
{
closed = 1;
nodes = (
"1173 0 LINE",
"1173 64 LINE",
"1068 64 OFFCURVE",
"1051 124 OFFCURVE",
"1051 192 CURVE SMOOTH",
"1051 565 LINE SMOOTH",
"1051 764 OFFCURVE",
"950 841 OFFCURVE",
"776 841 CURVE SMOOTH",
"688 841 OFFCURVE",
"591 797 OFFCURVE",
"470 715 CURVE",
"470 627 LINE",
"582 709 OFFCURVE",
"633 742 OFFCURVE",
"700 742 CURVE SMOOTH",
"758 742 OFFCURVE",
"781 675 OFFCURVE",
"781 581 CURVE SMOOTH",
"781 192 LINE SMOOTH",
"781 124 OFFCURVE",
"764 64 OFFCURVE",
"660 64 CURVE",
"660 0 LINE"
);
},
{
closed = 1;
nodes = (
"598 0 LINE",
"598 64 LINE",
"493 64 OFFCURVE",
"476 124 OFFCURVE",
"476 192 CURVE SMOOTH",
"476 815 LINE",
"413 855 LINE",
"55 768 LINE",
"65 696 LINE",
"191 739 OFFCURVE",
"207 685 OFFCURVE",
"207 627 CURVE SMOOTH",
"207 186 LINE SMOOTH",
"207 124 OFFCURVE",
"174 64 OFFCURVE",
"82 64 CURVE",
"82 0 LINE"
);
}
);
width = 1198;
}
);
leftKerningGroup = i;
leftMetricsKey = i;
rightKerningGroup = n;
rightMetricsKey = "=i-30";
unicode = 006E;
},
{
glyphname = eng;
lastChange = "2022-02-18 16:00:17 +0000";
layers = (
{
anchors = (
{
name = bottom;
position = "{589, 0}";
},
{
name = top;
position = "{589, 926}";
}
);
layerId = "14A1E899-FED4-4F52-86F4-A1F822586E10";
paths = (
{
closed = 1;
nodes = (
"886 -49 LINE",
"886 599 LINE SMOOTH",
"886 787 OFFCURVE",
"784 841 OFFCURVE",
"653 841 CURVE SMOOTH",
"558 841 OFFCURVE",
"447 771 OFFCURVE",
"323 692 CURVE",
"323 604 LINE",
"472 707 OFFCURVE",
"565 759 OFFCURVE",
"635 759 CURVE SMOOTH",
"709 759 OFFCURVE",
"776 726 OFFCURVE",
"776 604 CURVE SMOOTH",
"776 -49 LINE"
);
},
{
closed = 1;
nodes = (
"515 -351 LINE",
"553 -211 LINE",
"438 -230 LINE",
"438 -385 LINE"
);
},
{
closed = 1;
nodes = (
"802 -441 OFFCURVE",
"886 -297 OFFCURVE",
"886 -49 CURVE",
"776 -49 LINE",
"776 -295 OFFCURVE",
"708 -374 OFFCURVE",
"611 -374 CURVE SMOOTH",
"523 -374 OFFCURVE",
"511 -340 OFFCURVE",
"504 -307 CURVE",
"438 -385 LINE",
"470 -415 OFFCURVE",
"514 -441 OFFCURVE",
"596 -441 CURVE SMOOTH"
);
},
{
closed = 1;
nodes = (
"457 0 LINE",
"457 64 LINE",
"347 64 OFFCURVE",
"329 68 OFFCURVE",
"329 122 CURVE SMOOTH",
"329 841 LINE",
"284 841 LINE",
"70 771 LINE",
"70 717 LINE",
"187 737 OFFCURVE",
"219 739 OFFCURVE",
"219 665 CURVE SMOOTH",
"219 116 LINE SMOOTH",
"219 68 OFFCURVE",
"185 64 OFFCURVE",
"88 64 CURVE",
"88 0 LINE"
);
}
);
width = 926;
},
{
anchors = (
{
name = bottom;
position = "{548, 0}";
},
{
name = top;
position = "{548, 926}";
}
);
layerId = "72F22432-F665-4153-96BB-74D91BCC5F28";
paths = (
{
closed = 1;
nodes = (
"991 37 LINE",
"991 547 LINE SMOOTH",
"991 746 OFFCURVE",
"916 841 OFFCURVE",
"716 841 CURVE SMOOTH",
"628 841 OFFCURVE",
"547 791 OFFCURVE",
"420 710 CURVE",
"420 622 LINE",
"560 723 OFFCURVE",
"614 759 OFFCURVE",
"681 759 CURVE SMOOTH",
"760 759 OFFCURVE",
"761 685 OFFCURVE",
"761 571 CURVE SMOOTH",
"761 37 LINE"
);
},
{
closed = 1;
nodes = (
"642 -313 LINE",
"682 -89 LINE",
"453 -127 LINE",
"481 -347 LINE"
);
},
{
closed = 1;
nodes = (
"863 -403 OFFCURVE",
"991 -246 OFFCURVE",
"991 37 CURVE",
"761 37 LINE",
"761 -243 OFFCURVE",
"747 -292 OFFCURVE",
"682 -292 CURVE SMOOTH",
"615 -292 OFFCURVE",
"553 -246 OFFCURVE",
"544 -234 CURVE",
"481 -347 LINE",
"532 -378 OFFCURVE",
"592 -403 OFFCURVE",
"667 -403 CURVE SMOOTH"
);
},
{
closed = 1;
nodes = (
"548 0 LINE",
"548 64 LINE",
"443 64 OFFCURVE",
"426 124 OFFCURVE",
"426 192 CURVE SMOOTH",
"426 841 LINE",
"383 841 LINE",
"55 754 LINE",
"55 682 LINE",
"181 725 OFFCURVE",
"197 671 OFFCURVE",
"197 613 CURVE SMOOTH",
"197 186 LINE SMOOTH",
"197 124 OFFCURVE",
"164 64 OFFCURVE",
"72 64 CURVE",
"72 0 LINE"
);
}
);
width = 1016;
}
);
leftKerningGroup = n;
leftMetricsKey = n;
rightKerningGroup = n;
rightMetricsKey = n;
unicode = 014B;
},
{
glyphname = o;
lastChange = "2022-01-29 04:29:43 +0000";
layers = (
{
anchors = (
{
name = bottom;
position = "{497, 0}";
},
{
name = center;
position = "{497, 463}";
},
{
name = ogonek;
position = "{772, 71}";
},
{
name = top;
position = "{497, 826}";
},
{
name = topright;
position = "{758, 736}";
}
);
layerId = "14A1E899-FED4-4F52-86F4-A1F822586E10";
paths = (
{
closed = 1;
nodes = (
"722 -24 OFFCURVE",
"909 159 OFFCURVE",
"909 412 CURVE SMOOTH",
"909 666 OFFCURVE",
"722 848 OFFCURVE",
"497 848 CURVE SMOOTH",
"271 848 OFFCURVE",
"85 666 OFFCURVE",
"85 412 CURVE SMOOTH",
"85 159 OFFCURVE",
"271 -24 OFFCURVE",
"497 -24 CURVE SMOOTH"
);
},
{
closed = 1;
nodes = (
"299 46 OFFCURVE",
"211 224 OFFCURVE",
"211 432 CURVE SMOOTH",
"211 639 OFFCURVE",
"298 778 OFFCURVE",
"497 778 CURVE SMOOTH",
"695 778 OFFCURVE",
"784 600 OFFCURVE",
"784 392 CURVE SMOOTH",
"784 185 OFFCURVE",
"695 46 OFFCURVE",
"497 46 CURVE SMOOTH"
);
}
);
width = 994;
},
{
anchors = (
{
name = bottom;
position = "{530, 0}";
},
{
name = center;
position = "{530, 413}";
},
{
name = ogonek;
position = "{791, 71}";
},
{
name = top;
position = "{529, 826}";
},
{
name = topright;
position = "{777, 736}";
}
);
layerId = "72F22432-F665-4153-96BB-74D91BCC5F28";
paths = (
{
closed = 1;
nodes = (
"786 -24 OFFCURVE",
"989 139 OFFCURVE",
"989 412 CURVE SMOOTH",
"989 686 OFFCURVE",
"786 851 OFFCURVE",
"529 851 CURVE SMOOTH",
"271 851 OFFCURVE",
"70 686 OFFCURVE",
"70 412 CURVE SMOOTH",
"70 139 OFFCURVE",
"271 -24 OFFCURVE",
"529 -24 CURVE SMOOTH"
);
},
{
closed = 1;
nodes = (
"388 46 OFFCURVE",
"355 249 OFFCURVE",
"355 447 CURVE SMOOTH",
"355 643 OFFCURVE",
"387 781 OFFCURVE",
"529 781 CURVE SMOOTH",
"673 781 OFFCURVE",
"704 571 OFFCURVE",
"704 377 CURVE SMOOTH",
"704 184 OFFCURVE",
"673 46 OFFCURVE",
"529 46 CURVE SMOOTH"
);
}
);
width = 1059;
}
);
leftKerningGroup = o;
rightKerningGroup = o;
unicode = 006F;
},
{
glyphname = ohorn;
lastChange = "2022-02-18 16:00:17 +0000";
layers = (
{
anchors = (
{
name = bottom;
position = "{506, 0}";
},
{
name = top;
position = "{506, 826}";
}
);
components = (
{
name = horncomb;
transform = "{1, 0, 0, 1, 635, -143}";
}
);
layerId = "14A1E899-FED4-4F52-86F4-A1F822586E10";
paths = (
{
closed = 1;
nodes = (
"722 -24 OFFCURVE",
"909 159 OFFCURVE",
"909 412 CURVE SMOOTH",
"909 666 OFFCURVE",
"722 848 OFFCURVE",
"497 848 CURVE SMOOTH",
"271 848 OFFCURVE",
"85 666 OFFCURVE",
"85 412 CURVE SMOOTH",
"85 159 OFFCURVE",
"271 -24 OFFCURVE",
"497 -24 CURVE SMOOTH"
);
},
{
closed = 1;
nodes = (
"299 46 OFFCURVE",
"211 224 OFFCURVE",
"211 432 CURVE SMOOTH",
"211 639 OFFCURVE",
"298 778 OFFCURVE",
"497 778 CURVE SMOOTH",
"695 778 OFFCURVE",
"784 600 OFFCURVE",
"784 392 CURVE SMOOTH",
"784 185 OFFCURVE",
"695 46 OFFCURVE",
"497 46 CURVE SMOOTH"
);
}
);
width = 1030;
},
{
anchors = (
{
name = bottom;
position = "{526, 0}";
},
{
name = top;
position = "{526, 826}";
}
);
components = (
{
name = horncomb;
transform = "{1, 0, 0, 1, 654, -143}";
}
);
layerId = "72F22432-F665-4153-96BB-74D91BCC5F28";
paths = (
{
closed = 1;
nodes = (
"786 -24 OFFCURVE",
"989 139 OFFCURVE",
"989 412 CURVE SMOOTH",
"989 686 OFFCURVE",
"786 851 OFFCURVE",
"529 851 CURVE SMOOTH",
"271 851 OFFCURVE",
"70 686 OFFCURVE",
"70 412 CURVE SMOOTH",
"70 139 OFFCURVE",
"271 -24 OFFCURVE",
"529 -24 CURVE SMOOTH"
);
},
{
closed = 1;
nodes = (
"388 46 OFFCURVE",
"355 249 OFFCURVE",
"355 447 CURVE SMOOTH",
"355 643 OFFCURVE",
"387 781 OFFCURVE",
"529 781 CURVE SMOOTH",
"673 781 OFFCURVE",
"704 571 OFFCURVE",
"704 377 CURVE SMOOTH",
"704 184 OFFCURVE",
"673 46 OFFCURVE",
"529 46 CURVE SMOOTH"
);
}
);
width = 1041;
}
);
leftKerningGroup = o;
leftMetricsKey = o;
rightKerningGroup = o;
rightMetricsKey = "=o-80";
unicode = 01A1;
},
{
glyphname = oslash;
lastChange = "2020-11-11 22:38:43 +0000";
layers = (
{
anchors = (
{
name = top;
position = "{488, 826}";
}
);
components = (
{
name = o;
}
);
layerId = "14A1E899-FED4-4F52-86F4-A1F822586E10";
paths = (
{
closed = 1;
nodes = (
"262 -111 LINE",
"795 904 LINE",
"727 934 LINE",
"191 -81 LINE"
);
}
);
width = 974;
},
{
anchors = (
{
name = top;
position = "{524, 826}";
}
);
components = (
{
name = o;
}
);
layerId = "72F22432-F665-4153-96BB-74D91BCC5F28";
paths = (
{
closed = 1;
nodes = (
"316 -109 LINE",
"823 906 LINE",
"749 936 LINE",
"240 -79 LINE"
);
}
);
width = 1059;
}
);
unicode = 00F8;
},
{
glyphname = oe;
lastChange = "2022-02-18 15:17:26 +0000";
layers = (
{
anchors = (
{
name = bottom;
position = "{865, 0}";
},
{
name = top;
position = "{865, 826}";
}
);
components = (
{
alignment = -1;
name = e;
transform = "{1, 0, 0, 1, 751, 0}";
}
);
layerId = "14A1E899-FED4-4F52-86F4-A1F822586E10";
paths = (
{
closed = 1;
nodes = (
"737 -24 OFFCURVE",
"939 159 OFFCURVE",
"939 412 CURVE SMOOTH",
"939 666 OFFCURVE",
"737 841 OFFCURVE",
"512 841 CURVE SMOOTH",
"286 841 OFFCURVE",
"85 666 OFFCURVE",
"85 412 CURVE SMOOTH",
"85 159 OFFCURVE",
"286 -24 OFFCURVE",
"512 -24 CURVE SMOOTH"
);
},
{
closed = 1;
nodes = (
"314 46 OFFCURVE",
"222 224 OFFCURVE",
"222 432 CURVE SMOOTH",
"222 639 OFFCURVE",
"313 771 OFFCURVE",
"512 771 CURVE SMOOTH",
"720 771 OFFCURVE",
"803 600 OFFCURVE",
"803 392 CURVE SMOOTH",
"803 185 OFFCURVE",
"720 46 OFFCURVE",
"512 46 CURVE SMOOTH"
);
}
);
width = 1669;
},
{
anchors = (
{
name = bottom;
position = "{791, 0}";
},
{
name = top;
position = "{791, 826}";
}
);
components = (
{
alignment = -1;
name = e;
transform = "{1, 0, 0, 1, 683, 0}";
}
);
layerId = "72F22432-F665-4153-96BB-74D91BCC5F28";
paths = (
{
closed = 1;
nodes = (
"796 -24 OFFCURVE",
"989 159 OFFCURVE",
"989 412 CURVE SMOOTH",
"989 666 OFFCURVE",
"796 841 OFFCURVE",
"529 841 CURVE SMOOTH",
"261 841 OFFCURVE",
"70 666 OFFCURVE",
"70 412 CURVE SMOOTH",
"70 159 OFFCURVE",
"261 -24 OFFCURVE",
"529 -24 CURVE SMOOTH"
);
},
{
closed = 1;
nodes = (
"288 46 OFFCURVE",
"325 379 OFFCURVE",
"325 467 CURVE SMOOTH",
"325 553 OFFCURVE",
"287 771 OFFCURVE",
"529 771 CURVE SMOOTH",
"763 771 OFFCURVE",
"734 441 OFFCURVE",
"734 357 CURVE SMOOTH",
"734 274 OFFCURVE",
"763 46 OFFCURVE",
"529 46 CURVE SMOOTH"
);
}
);
width = 1658;
}
);
leftKerningGroup = o;
leftMetricsKey = o;
rightKerningGroup = e;
rightMetricsKey = e;
unicode = 0153;
},
{
glyphname = p;
lastChange = "2022-02-18 15:17:26 +0000";
layers = (
{
anchors = (
{
name = bottom;
position = "{509, 0}";
},
{
name = top;
position = "{549, 826}";
}
);
layerId = "14A1E899-FED4-4F52-86F4-A1F822586E10";
paths = (
{
closed = 1;
nodes = (
"463 -430 LINE",
"463 -366 LINE",
"353 -366 OFFCURVE",
"335 -359 OFFCURVE",
"335 -288 CURVE SMOOTH",
"335 814 LINE",
"280 854 LINE",
"70 784 LINE",
"90 730 LINE",
"222 753 OFFCURVE",
"229 750 OFFCURVE",
"229 688 CURVE SMOOTH",
"229 -294 LINE SMOOTH",
"229 -360 OFFCURVE",
"186 -366 OFFCURVE",
"80 -366 CURVE",
"80 -430 LINE"
);
},
{
closed = 1;
nodes = (
"767 -20 OFFCURVE",
"955 134 OFFCURVE",
"955 418 CURVE SMOOTH",
"955 754 OFFCURVE",
"759 847 OFFCURVE",
"618 847 CURVE SMOOTH",
"521 847 OFFCURVE",
"398 753 OFFCURVE",
"325 695 CURVE",
"325 597 LINE",
"418 682 OFFCURVE",
"520 769 OFFCURVE",
"599 769 CURVE SMOOTH",
"676 769 OFFCURVE",
"837 726 OFFCURVE",
"837 410 CURVE SMOOTH",
"837 187 OFFCURVE",
"712 51 OFFCURVE",
"578 51 CURVE SMOOTH",
"461 51 OFFCURVE",
"368 141 OFFCURVE",
"325 344 CURVE",
"281 254 LINE",
"317 60 OFFCURVE",
"468 -20 OFFCURVE",
"572 -20 CURVE SMOOTH"
);
}
);
width = 1040;
},
{
anchors = (
{
name = bottom;
position = "{648, 0}";
},
{
name = top;
position = "{686, 826}";
}
);
layerId = "72F22432-F665-4153-96BB-74D91BCC5F28";
paths = (
{
closed = 1;
nodes = (
"604 -430 LINE",
"604 -366 LINE",
"486 -366 OFFCURVE",
"482 -348 OFFCURVE",
"482 -271 CURVE SMOOTH",
"482 815 LINE",
"420 855 LINE",
"55 768 LINE",
"65 696 LINE",
"187 737 OFFCURVE",
"207 682 OFFCURVE",
"207 634 CURVE SMOOTH",
"207 -259 LINE SMOOTH",
"207 -360 OFFCURVE",
"166 -366 OFFCURVE",
"65 -366 CURVE",
"65 -430 LINE"
);
},
{
closed = 1;
nodes = (
"851 -20 OFFCURVE",
"1111 94 OFFCURVE",
"1111 438 CURVE SMOOTH",
"1111 774 OFFCURVE",
"905 847 OFFCURVE",
"732 847 CURVE SMOOTH",
"630 847 OFFCURVE",
"550 795 OFFCURVE",
"481 743 CURVE",
"481 645 LINE",
"567 728 OFFCURVE",
"611 769 OFFCURVE",
"686 769 CURVE SMOOTH",
"775 769 OFFCURVE",
"828 653 OFFCURVE",
"828 372 CURVE SMOOTH",
"828 149 OFFCURVE",
"757 51 OFFCURVE",
"662 51 CURVE SMOOTH",
"541 51 OFFCURVE",
"481 141 OFFCURVE",
"481 334 CURVE",
"396 221 LINE",
"430 37 OFFCURVE",
"569 -20 OFFCURVE",
"677 -20 CURVE SMOOTH"
);
}
);
width = 1181;
}
);
leftKerningGroup = p;
leftMetricsKey = h;
rightKerningGroup = o;
rightMetricsKey = o;
unicode = 0070;
},
{
glyphname = thorn;
lastChange = "2020-10-13 20:10:10 +0000";
layers = (
{
anchors = (
{
name = bottom;
position = "{561, 0}";
},
{
name = top;
position = "{561, 926}";
}
);
layerId = "14A1E899-FED4-4F52-86F4-A1F822586E10";
paths = (
{
closed = 1;
nodes = (
"509 -436 LINE",
"509 -372 LINE",
"399 -372 OFFCURVE",
"381 -364 OFFCURVE",
"381 -302 CURVE SMOOTH",
"381 1500 LINE",
"336 1500 LINE",
"126 1430 LINE",
"126 1376 LINE",
"264 1396 OFFCURVE",
"275 1388 OFFCURVE",
"275 1334 CURVE SMOOTH",
"275 -300 LINE SMOOTH",
"275 -366 OFFCURVE",
"232 -372 OFFCURVE",
"126 -372 CURVE",
"126 -436 LINE"
);
},
{
closed = 1;
nodes = (
"811 -20 OFFCURVE",
"1009 134 OFFCURVE",
"1009 418 CURVE SMOOTH",
"1009 754 OFFCURVE",
"813 841 OFFCURVE",
"672 841 CURVE SMOOTH",
"575 841 OFFCURVE",
"452 758 OFFCURVE",
"379 705 CURVE",
"379 617 LINE",
"472 690 OFFCURVE",
"574 763 OFFCURVE",
"653 763 CURVE SMOOTH",
"730 763 OFFCURVE",
"891 726 OFFCURVE",
"891 410 CURVE SMOOTH",
"891 187 OFFCURVE",
"756 51 OFFCURVE",
"622 51 CURVE SMOOTH",
"505 51 OFFCURVE",
"422 111 OFFCURVE",
"379 314 CURVE",
"335 224 LINE",
"371 30 OFFCURVE",
"512 -20 OFFCURVE",
"616 -20 CURVE SMOOTH"
);
}
);
width = 1122;
},
{
anchors = (
{
name = bottom;
position = "{533, 0}";
},
{
name = top;
position = "{54, 1931}";
}
);
layerId = "72F22432-F665-4153-96BB-74D91BCC5F28";
paths = (
{
closed = 1;
nodes = (
"484 -426 LINE",
"484 -362 LINE",
"375 -362 OFFCURVE",
"362 -298 OFFCURVE",
"362 -243 CURVE SMOOTH",
"362 1500 LINE",
"320 1500 LINE",
"-5 1413 LINE",
"-5 1341 LINE",
"137 1382 OFFCURVE",
"137 1363 OFFCURVE",
"137 1299 CURVE SMOOTH",
"137 -255 LINE SMOOTH",
"137 -347 OFFCURVE",
"108 -362 OFFCURVE",
"-5 -362 CURVE",
"-5 -426 LINE"
);
},
{
closed = 1;
nodes = (
"765 -20 OFFCURVE",
"1025 134 OFFCURVE",
"1025 418 CURVE SMOOTH",
"1025 754 OFFCURVE",
"838 841 OFFCURVE",
"616 841 CURVE SMOOTH",
"524 841 OFFCURVE",
"425 776 OFFCURVE",
"355 723 CURVE",
"355 635 LINE",
"444 708 OFFCURVE",
"505 763 OFFCURVE",
"580 763 CURVE SMOOTH",
"689 763 OFFCURVE",
"772 632 OFFCURVE",
"772 352 CURVE SMOOTH",
"772 130 OFFCURVE",
"731 51 OFFCURVE",
"586 51 CURVE SMOOTH",
"474 51 OFFCURVE",
"396 111 OFFCURVE",
"355 314 CURVE",
"260 224 LINE",
"294 30 OFFCURVE",
"482 -20 OFFCURVE",
"580 -20 CURVE SMOOTH"
);
}
);
width = 1066;
}
);
unicode = 00FE;
},
{
glyphname = q;
lastChange = "2022-02-18 15:17:26 +0000";
layers = (
{
anchors = (
{
name = bottom;
position = "{477, 0}";
},
{
name = top;
position = "{477, 826}";
}
);
layerId = "14A1E899-FED4-4F52-86F4-A1F822586E10";
paths = (
{
closed = 1;
nodes = (
"692 726 LINE",
"692 -308 LINE SMOOTH",
"692 -366 OFFCURVE",
"674 -366 OFFCURVE",
"564 -366 CURVE",
"564 -430 LINE",
"926 -430 LINE",
"926 -366 LINE",
"816 -366 OFFCURVE",
"798 -365 OFFCURVE",
"798 -308 CURVE SMOOTH",
"798 840 LINE",
"721 840 LINE"
);
},
{
closed = 1;
nodes = (
"253 851 OFFCURVE",
"85 697 OFFCURVE",
"85 413 CURVE SMOOTH",
"85 77 OFFCURVE",
"291 -20 OFFCURVE",
"432 -20 CURVE SMOOTH",
"519 -20 OFFCURVE",
"622 53 OFFCURVE",
"695 106 CURVE",
"695 204 LINE",
"602 121 OFFCURVE",
"520 58 OFFCURVE",
"451 58 CURVE SMOOTH",
"374 58 OFFCURVE",
"203 105 OFFCURVE",
"203 421 CURVE SMOOTH",
"203 644 OFFCURVE",
"308 780 OFFCURVE",
"442 780 CURVE SMOOTH",
"559 780 OFFCURVE",
"652 720 OFFCURVE",
"695 517 CURVE",
"739 617 LINE",
"703 811 OFFCURVE",
"552 851 OFFCURVE",
"448 851 CURVE SMOOTH"
);
}
);
width = 916;
},
{
anchors = (
{
name = bottom;
position = "{517, 0}";
},
{
name = top;
position = "{517, 826}";
}
);
layerId = "72F22432-F665-4153-96BB-74D91BCC5F28";
paths = (
{
closed = 1;
nodes = (
"721 596 LINE",
"721 -273 LINE",
"721 -338 OFFCURVE",
"704 -366 OFFCURVE",
"599 -366 CURVE",
"599 -430 LINE",
"1115 -430 LINE",
"1115 -366 LINE",
"1010 -366 OFFCURVE",
"993 -337 OFFCURVE",
"993 -273 CURVE SMOOTH",
"993 831 LINE",
"843 831 LINE"
);
},
{
closed = 1;
nodes = (
"258 849 OFFCURVE",
"70 712 OFFCURVE",
"70 428 CURVE SMOOTH",
"70 92 OFFCURVE",
"240 -20 OFFCURVE",
"463 -20 CURVE SMOOTH",
"564 -20 OFFCURVE",
"664 28 OFFCURVE",
"731 86 CURVE",
"731 194 LINE",
"653 114 OFFCURVE",
"581 58 OFFCURVE",
"499 58 CURVE SMOOTH",
"390 58 OFFCURVE",
"353 234 OFFCURVE",
"353 464 CURVE SMOOTH",
"353 651 OFFCURVE",
"381 778 OFFCURVE",
"491 778 CURVE SMOOTH",
"602 778 OFFCURVE",
"667 675 OFFCURVE",
"727 497 CURVE",
"804 567 LINE",
"751 766 OFFCURVE",
"617 849 OFFCURVE",
"478 849 CURVE SMOOTH"
);
}
);
width = 1090;
}
);
leftKerningGroup = o;
leftMetricsKey = o;
rightMetricsKey = "=i-80";
unicode = 0071;
},
{
glyphname = r;
lastChange = "2022-02-18 16:04:07 +0000";
layers = (
{
anchors = (
{
name = bottom;
position = "{245, 0}";
},
{
name = top;
position = "{475, 826}";
}
);
layerId = "14A1E899-FED4-4F52-86F4-A1F822586E10";
paths = (
{
closed = 1;
nodes = (
"480 0 LINE",
"480 64 LINE",
"370 64 OFFCURVE",
"334 80 OFFCURVE",
"334 142 CURVE SMOOTH",
"334 815 LINE",
"279 855 LINE",
"70 785 LINE",
"90 731 LINE",
"215 751 OFFCURVE",
"229 752 OFFCURVE",
"229 679 CURVE SMOOTH",
"229 146 LINE SMOOTH",
"229 80 OFFCURVE",
"186 64 OFFCURVE",
"80 64 CURVE",
"80 0 LINE"
);
},
{
closed = 1;
nodes = (
"434 673 OFFCURVE",
"554 753 OFFCURVE",
"586 753 CURVE",
"710 805 LINE",
"702 813 OFFCURVE",
"621 851 OFFCURVE",
"611 851 CURVE SMOOTH",
"559 851 OFFCURVE",
"411 724 OFFCURVE",
"322 636 CURVE",
"331 549 LINE"
);
},
{
closed = 1;
nodes = (
"728 640 LINE",
"710 805 LINE",
"581 757 LINE",
"566 610 LINE"
);
}
);
width = 758;
},
{
anchors = (
{
name = bottom;
position = "{401, 0}";
},
{
name = top;
position = "{619, 826}";
}
);
layerId = "72F22432-F665-4153-96BB-74D91BCC5F28";
paths = (
{
closed = 1;
nodes = (
"624 0 LINE",
"624 64 LINE",
"520 64 OFFCURVE",
"485 115 OFFCURVE",
"485 177 CURVE SMOOTH",
"485 815 LINE",
"423 855 LINE",
"55 768 LINE",
"65 696 LINE",
"199 738 OFFCURVE",
"207 685 OFFCURVE",
"207 627 CURVE SMOOTH",
"207 216 LINE SMOOTH",
"207 80 OFFCURVE",
"166 64 OFFCURVE",
"65 64 CURVE",
"65 0 LINE"
);
},
{
closed = 1;
nodes = (
"577 649 OFFCURVE",
"650 697 OFFCURVE",
"700 697 CURVE",
"887 804 LINE",
"879 809 OFFCURVE",
"775 851 OFFCURVE",
"760 851 CURVE SMOOTH",
"700 851 OFFCURVE",
"558 734 OFFCURVE",
"474 638 CURVE",
"483 531 LINE"
);
},
{
closed = 1;
nodes = (
"924 574 LINE",
"887 804 LINE",
"680 770 LINE",
"658 499 LINE"
);
}
);
width = 934;
}
);
leftKerningGroup = r;
leftMetricsKey = i;
rightKerningGroup = r;
unicode = 0072;
},
{
glyphname = s;
lastChange = "2022-02-18 16:00:17 +0000";
layers = (
{
anchors = (
{
name = bottom;
position = "{392, 0}";
},
{
name = top;
position = "{392, 826}";
}
);
layerId = "14A1E899-FED4-4F52-86F4-A1F822586E10";
paths = (
{
closed = 1;
nodes = (
"544 -24 OFFCURVE",
"686 65 OFFCURVE",
"686 220 CURVE SMOOTH",
"686 381 OFFCURVE",
"567 436 OFFCURVE",
"411 488 CURVE SMOOTH",
"278 532 OFFCURVE",
"200 558 OFFCURVE",
"200 648 CURVE SMOOTH",
"200 745 OFFCURVE",
"296 784 OFFCURVE",
"389 784 CURVE SMOOTH",
"489 784 OFFCURVE",
"571 724 OFFCURVE",
"582 589 CURVE",
"635 589 LINE",
"645 761 LINE",
"610 793 OFFCURVE",
"512 851 OFFCURVE",
"393 851 CURVE SMOOTH",
"271 851 OFFCURVE",
"113 795 OFFCURVE",
"113 635 CURVE SMOOTH",
"113 498 OFFCURVE",
"215 435 OFFCURVE",
"353 393 CURVE SMOOTH",
"497 349 OFFCURVE",
"587 303 OFFCURVE",
"587 199 CURVE SMOOTH",
"587 102 OFFCURVE",
"518 44 OFFCURVE",
"392 44 CURVE SMOOTH",
"261 44 OFFCURVE",
"167 111 OFFCURVE",
"148 274 CURVE",
"95 274 LINE",
"85 90 LINE",
"138 29 OFFCURVE",
"249 -24 OFFCURVE",
"384 -24 CURVE SMOOTH"
);
}
);
width = 771;
},
{
anchors = (
{
name = bottom;
position = "{386, 0}";
},
{
name = top;
position = "{394, 826}";
}
);
layerId = "72F22432-F665-4153-96BB-74D91BCC5F28";
paths = (
{
closed = 1;
nodes = (
"585 -24 OFFCURVE",
"741 45 OFFCURVE",
"741 225 CURVE SMOOTH",
"741 386 OFFCURVE",
"594 468 OFFCURVE",
"456 528 CURVE SMOOTH",
"348 575 OFFCURVE",
"254 619 OFFCURVE",
"254 680 CURVE SMOOTH",
"254 761 OFFCURVE",
"325 779 OFFCURVE",
"387 779 CURVE SMOOTH",
"471 779 OFFCURVE",
"546 719 OFFCURVE",
"575 562 CURVE",
"661 562 LINE",
"688 765 LINE",
"634 805 OFFCURVE",
"534 851 OFFCURVE",
"405 851 CURVE SMOOTH",
"263 851 OFFCURVE",
"80 787 OFFCURVE",
"80 610 CURVE SMOOTH",
"80 453 OFFCURVE",
"193 368 OFFCURVE",
"315 315 CURVE SMOOTH",
"441 260 OFFCURVE",
"530 220 OFFCURVE",
"530 147 CURVE SMOOTH",
"530 78 OFFCURVE",
"481 48 OFFCURVE",
"407 48 CURVE SMOOTH",
"309 48 OFFCURVE",
"202 132 OFFCURVE",
"183 297 CURVE",
"97 297 LINE",
"70 63 LINE",
"159 9 OFFCURVE",
"272 -24 OFFCURVE",
"397 -24 CURVE SMOOTH"
);
}
);
width = 811;
}
);
leftKerningGroup = s;
leftMetricsKey = o;
rightKerningGroup = s;
rightMetricsKey = o;
unicode = 0073;
},
{
glyphname = germandbls;
lastChange = "2022-02-18 16:10:32 +0000";
layers = (
{
layerId = "14A1E899-FED4-4F52-86F4-A1F822586E10";
paths = (
{
closed = 1;
nodes = (
"797 801 OFFCURVE",
"980 911 OFFCURVE",
"980 1094 CURVE SMOOTH",
"980 1317 OFFCURVE",
"821 1422 OFFCURVE",
"655 1422 CURVE SMOOTH",
"541 1422 OFFCURVE",
"496 1403 OFFCURVE",
"370 1298 CURVE SMOOTH",
"321 1257 OFFCURVE",
"219 1163 OFFCURVE",
"219 1127 CURVE SMOOTH",
"219 152 LINE SMOOTH",
"219 90 OFFCURVE",
"176 64 OFFCURVE",
"70 64 CURVE",
"70 0 LINE",
"335 0 LINE",
"335 1150 LINE SMOOTH",
"335 1193 OFFCURVE",
"521 1340 OFFCURVE",
"580 1340 CURVE SMOOTH",
"700 1340 OFFCURVE",
"860 1311 OFFCURVE",
"860 1082 CURVE SMOOTH",
"860 904 OFFCURVE",
"702 809 OFFCURVE",
"568 788 CURVE",
"568 738 LINE",
"758 734 OFFCURVE",
"918 622 OFFCURVE",
"918 356 CURVE SMOOTH",
"918 120 OFFCURVE",
"818 50 OFFCURVE",
"693 50 CURVE SMOOTH",
"584 50 OFFCURVE",
"528 107 OFFCURVE",
"513 252 CURVE",
"466 252 LINE",
"443 48 LINE",
"502 -1 OFFCURVE",
"583 -24 OFFCURVE",
"691 -24 CURVE SMOOTH",
"827 -24 OFFCURVE",
"1044 80 OFFCURVE",
"1044 384 CURVE SMOOTH",
"1044 650 OFFCURVE",
"809 773 OFFCURVE",
"679 773 CURVE"
);
}
);
width = 1129;
},
{
layerId = "72F22432-F665-4153-96BB-74D91BCC5F28";
paths = (
{
closed = 1;
nodes = (
"852 786 OFFCURVE",
"1027 912 OFFCURVE",
"1027 1094 CURVE SMOOTH",
"1027 1317 OFFCURVE",
"878 1422 OFFCURVE",
"682 1422 CURVE SMOOTH",
"555 1422 OFFCURVE",
"494 1388 OFFCURVE",
"371 1288 CURVE SMOOTH",
"328 1253 OFFCURVE",
"197 1141 OFFCURVE",
"197 1110 CURVE SMOOTH",
"197 152 LINE SMOOTH",
"197 90 OFFCURVE",
"156 64 OFFCURVE",
"55 64 CURVE",
"55 0 LINE",
"414 0 LINE",
"414 1171 LINE SMOOTH",
"414 1201 OFFCURVE",
"545 1323 OFFCURVE",
"580 1323 CURVE SMOOTH",
"694 1323 OFFCURVE",
"784 1179 OFFCURVE",
"784 1032 CURVE SMOOTH",
"784 855 OFFCURVE",
"708 789 OFFCURVE",
"581 768 CURVE",
"581 718 LINE",
"761 714 OFFCURVE",
"863 569 OFFCURVE",
"863 304 CURVE SMOOTH",
"863 91 OFFCURVE",
"806 50 OFFCURVE",
"735 50 CURVE SMOOTH",
"606 50 OFFCURVE",
"582 162 OFFCURVE",
"568 270 CURVE",
"505 270 LINE",
"483 31 LINE",
"557 -1 OFFCURVE",
"615 -24 OFFCURVE",
"734 -24 CURVE SMOOTH",
"881 -24 OFFCURVE",
"1125 98 OFFCURVE",
"1125 402 CURVE SMOOTH",
"1125 667 OFFCURVE",
"917 758 OFFCURVE",
"740 758 CURVE"
);
}
);
width = 1195;
}
);
leftMetricsKey = l;
rightMetricsKey = b;
unicode = 00DF;
},
{
glyphname = t;
lastChange = "2022-02-18 16:03:28 +0000";
layers = (
{
anchors = (
{
name = bottom;
position = "{276, 0}";
},
{
name = center;
position = "{276, 463}";
},
{
name = top;
position = "{253, 1089}";
},
{
name = topright;
position = "{562, 826}";
}
);
layerId = "14A1E899-FED4-4F52-86F4-A1F822586E10";
paths = (
{
closed = 1;
nodes = (
"417 -16 OFFCURVE",
"455 10 OFFCURVE",
"536 92 CURVE",
"504 134 LINE",
"455 90 OFFCURVE",
"421 62 OFFCURVE",
"383 62 CURVE SMOOTH",
"318 62 OFFCURVE",
"288 112 OFFCURVE",
"288 262 CURVE SMOOTH",
"288 761 LINE",
"544 761 LINE",
"544 826 LINE",
"288 826 LINE",
"288 1089 LINE",
"216 1089 LINE",
"207 849 OFFCURVE",
"193 830 OFFCURVE",
"23 818 CURVE",
"23 761 LINE",
"181 761 LINE",
"181 228 LINE SMOOTH",
"181 24 OFFCURVE",
"267 -16 OFFCURVE",
"345 -16 CURVE SMOOTH"
);
}
);
width = 617;
},
{
anchors = (
{
name = bottom;
position = "{406, 0}";
},
{
name = center;
position = "{402, 422}";
},
{
name = top;
position = "{387, 1130}";
},
{
name = topright;
position = "{699, 825}";
}
);
layerId = "72F22432-F665-4153-96BB-74D91BCC5F28";
paths = (
{
closed = 1;
nodes = (
"550 -16 OFFCURVE",
"605 10 OFFCURVE",
"702 92 CURVE",
"672 134 LINE",
"605 90 OFFCURVE",
"558 80 OFFCURVE",
"521 80 CURVE SMOOTH",
"452 80 OFFCURVE",
"431 127 OFFCURVE",
"431 262 CURVE SMOOTH",
"431 750 LINE",
"700 750 LINE",
"700 826 LINE",
"431 826 LINE",
"431 1129 LINE",
"320 1129 LINE",
"290 908 OFFCURVE",
"221 836 OFFCURVE",
"22 815 CURVE",
"22 749 LINE",
"154 749 LINE",
"154 228 LINE SMOOTH",
"154 24 OFFCURVE",
"346 -16 OFFCURVE",
"455 -16 CURVE SMOOTH"
);
}
);
width = 742;
}
);
leftKerningGroup = t;
rightKerningGroup = t;
unicode = 0074;
},
{
glyphname = tbar;
lastChange = "2022-02-18 16:10:50 +0000";
layers = (
{
components = (
{
name = t;
}
);
layerId = "14A1E899-FED4-4F52-86F4-A1F822586E10";
paths = (
{
closed = 1;
nodes = (
"522 491 LINE",
"522 554 LINE",
"30 554 LINE",
"30 491 LINE"
);
}
);
width = 547;
},
{
components = (
{
name = t;
}
);
layerId = "72F22432-F665-4153-96BB-74D91BCC5F28";
paths = (
{
closed = 1;
nodes = (
"628 511 LINE",
"628 576 LINE",
"26 576 LINE",
"26 511 LINE"
);
}
);
width = 673;
}
);
unicode = 0167;
},
{
glyphname = u;
lastChange = "2022-02-18 15:50:34 +0000";
layers = (
{
anchors = (
{
name = bottom;
position = "{529, 0}";
},
{
name = ogonek;
position = "{942, 0}";
},
{
name = top;
position = "{499, 826}";
},
{
name = topright;
position = "{793, 826}";
}
);
layerId = "14A1E899-FED4-4F52-86F4-A1F822586E10";
paths = (
{
closed = 1;
nodes = (
"518 -15 OFFCURVE",
"636 69 OFFCURVE",
"753 153 CURVE",
"741 232 LINE",
"626 141 OFFCURVE",
"526 67 OFFCURVE",
"449 67 CURVE SMOOTH",
"375 67 OFFCURVE",
"288 99 OFFCURVE",
"288 241 CURVE SMOOTH",
"288 826 LINE",
"50 826 LINE",
"50 762 LINE",
"160 762 OFFCURVE",
"178 757 OFFCURVE",
"178 714 CURVE SMOOTH",
"178 237 LINE SMOOTH",
"178 29 OFFCURVE",
"299 -15 OFFCURVE",
"416 -15 CURVE SMOOTH"
);
},
{
closed = 1;
nodes = (
"942 0 LINE",
"942 53 LINE",
"852 53 OFFCURVE",
"839 61 OFFCURVE",
"839 110 CURVE SMOOTH",
"839 826 LINE",
"602 826 LINE",
"602 762 LINE",
"712 762 OFFCURVE",
"730 757 OFFCURVE",
"730 714 CURVE SMOOTH",
"730 4 LINE",
"763 -26 LINE"
);
}
);
width = 1012;
},
{
anchors = (
{
name = bottom;
position = "{574, 0}";
},
{
name = ogonek;
position = "{1093, 0}";
},
{
name = top;
position = "{545, 826}";
},
{
name = topright;
position = "{824, 826}";
}
);
layerId = "72F22432-F665-4153-96BB-74D91BCC5F28";
paths = (
{
closed = 1;
nodes = (
"571 -15 OFFCURVE",
"655 34 OFFCURVE",
"759 100 CURVE",
"751 179 LINE",
"652 108 OFFCURVE",
"612 83 OFFCURVE",
"539 83 CURVE SMOOTH",
"459 83 OFFCURVE",
"436 115 OFFCURVE",
"436 241 CURVE SMOOTH",
"436 826 LINE",
"35 826 LINE",
"35 762 LINE",
"147 762 OFFCURVE",
"157 730 OFFCURVE",
"157 662 CURVE SMOOTH",
"157 272 LINE SMOOTH",
"157 88 OFFCURVE",
"262 -15 OFFCURVE",
"475 -15 CURVE SMOOTH"
);
},
{
closed = 1;
nodes = (
"1093 0 LINE",
"1093 71 LINE",
"1001 71 OFFCURVE",
"995 83 OFFCURVE",
"995 128 CURVE SMOOTH",
"995 826 LINE",
"595 826 LINE",
"595 762 LINE",
"699 762 OFFCURVE",
"716 755 OFFCURVE",
"716 679 CURVE SMOOTH",
"716 11 LINE",
"761 -24 LINE"
);
}
);
width = 1148;
}
);
leftKerningGroup = u;
leftMetricsKey = "=i-20";
rightKerningGroup = i;
rightMetricsKey = i;
unicode = 0075;
},
{
glyphname = uhorn;
lastChange = "2022-02-18 16:12:44 +0000";
layers = (
{
anchors = (
{
name = bottom;
position = "{472, 0}";
},
{
name = top;
position = "{472, 826}";
}
);
components = (
{
name = horncomb;
transform = "{1, 0, 0, 1, 662, -34}";
}
);
layerId = "14A1E899-FED4-4F52-86F4-A1F822586E10";
paths = (
{
closed = 1;
nodes = (
"518 -15 OFFCURVE",
"636 69 OFFCURVE",
"753 153 CURVE",
"741 232 LINE",
"626 141 OFFCURVE",
"526 67 OFFCURVE",
"449 67 CURVE SMOOTH",
"375 67 OFFCURVE",
"288 99 OFFCURVE",
"288 241 CURVE SMOOTH",
"288 826 LINE",
"50 826 LINE",
"50 762 LINE",
"160 762 OFFCURVE",
"178 757 OFFCURVE",
"178 714 CURVE SMOOTH",
"178 237 LINE SMOOTH",
"178 29 OFFCURVE",
"299 -15 OFFCURVE",
"416 -15 CURVE SMOOTH"
);
},
{
closed = 1;
nodes = (
"952 0 LINE",
"952 53 LINE",
"862 53 OFFCURVE",
"849 61 OFFCURVE",
"849 110 CURVE SMOOTH",
"849 826 LINE",
"612 826 LINE",
"612 762 LINE",
"722 762 OFFCURVE",
"740 757 OFFCURVE",
"740 714 CURVE SMOOTH",
"740 -6 LINE",
"773 -26 LINE"
);
}
);
width = 1042;
},
{
anchors = (
{
name = bottom;
position = "{597, 0}";
},
{
name = top;
position = "{597, 826}";
}
);
components = (
{
name = horncomb;
transform = "{1, 0, 0, 1, 736, -20}";
}
);
layerId = "72F22432-F665-4153-96BB-74D91BCC5F28";
paths = (
{
closed = 1;
nodes = (
"541 -15 OFFCURVE",
"625 41 OFFCURVE",
"739 118 CURVE",
"727 197 LINE",
"618 115 OFFCURVE",
"559 67 OFFCURVE",
"486 67 CURVE SMOOTH",
"406 67 OFFCURVE",
"386 115 OFFCURVE",
"386 241 CURVE SMOOTH",
"386 826 LINE",
"35 826 LINE",
"35 762 LINE",
"147 762 OFFCURVE",
"157 730 OFFCURVE",
"157 662 CURVE SMOOTH",
"157 272 LINE SMOOTH",
"157 88 OFFCURVE",
"232 -15 OFFCURVE",
"445 -15 CURVE SMOOTH"
);
},
{
closed = 1;
nodes = (
"1053 0 LINE",
"1053 71 LINE",
"961 71 OFFCURVE",
"955 83 OFFCURVE",
"955 128 CURVE SMOOTH",
"955 826 LINE",
"605 826 LINE",
"605 762 LINE",
"709 762 OFFCURVE",
"726 755 OFFCURVE",
"726 679 CURVE SMOOTH",
"726 -24 LINE",
"725 -28 LINE"
);
}
);
width = 1178;
}
);
leftKerningGroup = u;
leftMetricsKey = u;
rightKerningGroup = u;
rightMetricsKey = "=u-80";
unicode = 01B0;
},
{
glyphname = v;
lastChange = "2022-02-18 15:16:13 +0000";
layers = (
{
anchors = (
{
name = bottom;
position = "{478, 0}";
},
{
name = top;
position = "{537, 826}";
}
);
layerId = "14A1E899-FED4-4F52-86F4-A1F822586E10";
paths = (
{
closed = 1;
nodes = (
"520 -10 LINE",
"810 698 LINE SMOOTH",
"834 757 OFFCURVE",
"842 762 OFFCURVE",
"936 762 CURVE",
"936 826 LINE",
"615 826 LINE",
"615 762 LINE",
"719 762 OFFCURVE",
"740 760 OFFCURVE",
"740 741 CURVE SMOOTH",
"740 728 OFFCURVE",
"737 720 OFFCURVE",
"730 703 CURVE SMOOTH",
"513 165 LINE",
"291 709 LINE SMOOTH",
"285 723 OFFCURVE",
"283 731 OFFCURVE",
"283 740 CURVE SMOOTH",
"283 759 OFFCURVE",
"312 762 OFFCURVE",
"406 762 CURVE",
"406 826 LINE",
"40 826 LINE",
"40 762 LINE",
"114 762 OFFCURVE",
"153 755 OFFCURVE",
"177 698 CURVE SMOOTH",
"472 -10 LINE"
);
}
);
width = 976;
},
{
anchors = (
{
name = bottom;
position = "{532, 0}";
},
{
name = top;
position = "{588, 826}";
}
);
layerId = "72F22432-F665-4153-96BB-74D91BCC5F28";
paths = (
{
closed = 1;
nodes = (
"563 -10 LINE",
"860 698 LINE SMOOTH",
"885 757 OFFCURVE",
"941 762 OFFCURVE",
"994 762 CURVE",
"994 826 LINE",
"644 826 LINE",
"644 762 LINE",
"676 762 OFFCURVE",
"755 762 OFFCURVE",
"755 725 CURVE SMOOTH",
"755 713 OFFCURVE",
"744 678 OFFCURVE",
"741 670 CURVE SMOOTH",
"603 334 LINE",
"451 679 LINE SMOOTH",
"439 707 OFFCURVE",
"438 719 OFFCURVE",
"438 733 CURVE SMOOTH",
"438 762 OFFCURVE",
"488 762 OFFCURVE",
"549 762 CURVE",
"549 826 LINE",
"25 826 LINE",
"25 762 LINE",
"100 762 OFFCURVE",
"129 752 OFFCURVE",
"155 698 CURVE SMOOTH",
"488 -10 LINE"
);
}
);
width = 1019;
}
);
leftKerningGroup = v;
rightKerningGroup = v;
unicode = 0076;
},
{
glyphname = w;
lastChange = "2022-02-18 15:26:17 +0000";
layers = (
{
anchors = (
{
name = bottom;
position = "{727, 0}";
},
{
name = top;
position = "{748, 826}";
}
);
layerId = "14A1E899-FED4-4F52-86F4-A1F822586E10";
paths = (
{
closed = 1;
nodes = (
"996 -10 LINE",
"1266 698 LINE SMOOTH",
"1287 752 OFFCURVE",
"1291 762 OFFCURVE",
"1391 762 CURVE",
"1391 826 LINE",
"1070 826 LINE",
"1070 762 LINE",
"1174 762 OFFCURVE",
"1195 761 OFFCURVE",
"1195 743 CURVE SMOOTH",
"1195 731 OFFCURVE",
"1192 722 OFFCURVE",
"1185 703 CURVE SMOOTH",
"988 169 LINE",
"786 709 LINE SMOOTH",
"781 722 OFFCURVE",
"778 731 OFFCURVE",
"778 740 CURVE SMOOTH",
"778 759 OFFCURVE",
"807 762 OFFCURVE",
"901 762 CURVE",
"901 826 LINE",
"541 826 LINE",
"541 762 LINE",
"615 762 OFFCURVE",
"648 755 OFFCURVE",
"670 698 CURVE SMOOTH",
"945 -10 LINE"
);
},
{
closed = 1;
nodes = (
"495 -10 LINE",
"765 698 LINE",
"684 703 LINE",
"487 169 LINE",
"285 709 LINE SMOOTH",
"280 722 OFFCURVE",
"277 731 OFFCURVE",
"277 740 CURVE SMOOTH",
"277 759 OFFCURVE",
"306 762 OFFCURVE",
"400 762 CURVE",
"400 826 LINE",
"40 826 LINE",
"40 762 LINE",
"114 762 OFFCURVE",
"147 755 OFFCURVE",
"169 698 CURVE SMOOTH",
"444 -10 LINE"
);
}
);
width = 1431;
},
{
anchors = (
{
name = bottom;
position = "{714, 0}";
},
{
name = top;
position = "{734, 826}";
}
);
layerId = "72F22432-F665-4153-96BB-74D91BCC5F28";
paths = (
{
closed = 1;
nodes = (
"1007 8 LINE",
"1262 698 LINE SMOOTH",
"1284 757 OFFCURVE",
"1343 762 OFFCURVE",
"1397 762 CURVE",
"1397 826 LINE",
"1077 826 LINE",
"1077 762 LINE",
"1121 762 OFFCURVE",
"1164 762 OFFCURVE",
"1164 712 CURVE SMOOTH",
"1164 686 OFFCURVE",
"1162 673 OFFCURVE",
"1151 645 CURVE SMOOTH",
"1039 361 LINE",
"943 658 LINE SMOOTH",
"939 670 OFFCURVE",
"936 695 OFFCURVE",
"936 704 CURVE SMOOTH",
"936 756 OFFCURVE",
"975 762 OFFCURVE",
"1014 762 CURVE",
"1014 826 LINE",
"582 826 LINE",
"582 762 LINE",
"642 762 OFFCURVE",
"655 755 OFFCURVE",
"676 698 CURVE SMOOTH",
"927 8 LINE"
);
},
{
closed = 1;
nodes = (
"506 8 LINE",
"764 698 LINE",
"679 710 LINE",
"546 359 LINE",
"434 658 LINE SMOOTH",
"429 670 OFFCURVE",
"427 692 OFFCURVE",
"427 704 CURVE SMOOTH",
"427 756 OFFCURVE",
"464 762 OFFCURVE",
"514 762 CURVE",
"514 826 LINE",
"25 826 LINE",
"25 762 LINE",
"95 762 OFFCURVE",
"133 755 OFFCURVE",
"155 698 CURVE SMOOTH",
"426 8 LINE"
);
}
);
width = 1422;
}
);
leftKerningGroup = v;
leftMetricsKey = v;
rightKerningGroup = v;
rightMetricsKey = v;
unicode = 0077;
},
{
glyphname = x;
lastChange = "2022-01-29 04:30:32 +0000";
layers = (
{
anchors = (
{
name = bottom;
position = "{531, 0}";
},
{
name = top;
position = "{531, 826}";
}
);
layerId = "14A1E899-FED4-4F52-86F4-A1F822586E10";
paths = (
{
closed = 1;
nodes = (
"982 0 LINE",
"982 64 LINE",
"899 64 OFFCURVE",
"889 69 OFFCURVE",
"853 110 CURVE SMOOTH",
"332 706 LINE SMOOTH",
"319 721 OFFCURVE",
"310 734 OFFCURVE",
"310 744 CURVE SMOOTH",
"310 761 OFFCURVE",
"334 762 OFFCURVE",
"432 762 CURVE",
"432 826 LINE",
"54 826 LINE",
"54 762 LINE",
"130 762 OFFCURVE",
"143 762 OFFCURVE",
"180 719 CURVE SMOOTH",
"700 127 LINE SMOOTH",
"718 107 OFFCURVE",
"729 92 OFFCURVE",
"729 82 CURVE SMOOTH",
"729 65 OFFCURVE",
"713 64 OFFCURVE",
"607 64 CURVE",
"607 0 LINE"
);
},
{
closed = 1;
nodes = (
"816 698 LINE SMOOTH",
"852 738 OFFCURVE",
"874 762 OFFCURVE",
"984 762 CURVE",
"984 826 LINE",
"611 826 LINE",
"611 762 LINE",
"723 762 OFFCURVE",
"743 757 OFFCURVE",
"743 739 CURVE SMOOTH",
"743 727 OFFCURVE",
"737 715 OFFCURVE",
"728 706 CURVE SMOOTH",
"492 445 LINE",
"531 380 LINE"
);
},
{
closed = 1;
nodes = (
"208 128 LINE SMOOTH",
"172 88 OFFCURVE",
"150 64 OFFCURVE",
"40 64 CURVE",
"40 0 LINE",
"413 0 LINE",
"413 64 LINE",
"301 64 OFFCURVE",
"273 65 OFFCURVE",
"273 83 CURVE SMOOTH",
"273 93 OFFCURVE",
"283 105 OFFCURVE",
"296 120 CURVE SMOOTH",
"532 381 LINE",
"493 446 LINE"
);
}
);
width = 1024;
},
{
anchors = (
{
name = bottom;
position = "{577, 0}";
},
{
name = top;
position = "{577, 826}";
}
);
layerId = "72F22432-F665-4153-96BB-74D91BCC5F28";
paths = (
{
closed = 1;
nodes = (
"1100 0 LINE",
"1100 64 LINE",
"1027 64 OFFCURVE",
"982 112 OFFCURVE",
"946 154 CURVE SMOOTH",
"491 690 LINE SMOOTH",
"478 705 OFFCURVE",
"469 721 OFFCURVE",
"469 732 CURVE SMOOTH",
"469 755 OFFCURVE",
"489 762 OFFCURVE",
"590 762 CURVE",
"590 826 LINE",
"30 826 LINE",
"30 762 LINE",
"106 762 OFFCURVE",
"150 713 OFFCURVE",
"187 670 CURVE SMOOTH",
"636 141 LINE SMOOTH",
"650 124 OFFCURVE",
"658 109 OFFCURVE",
"658 94 CURVE SMOOTH",
"658 68 OFFCURVE",
"624 64 OFFCURVE",
"541 64 CURVE",
"541 0 LINE"
);
},
{
closed = 1;
nodes = (
"898 680 LINE SMOOTH",
"936 718 OFFCURVE",
"980 762 OFFCURVE",
"1070 762 CURVE",
"1070 826 LINE",
"683 826 LINE",
"683 762 LINE",
"788 762 OFFCURVE",
"799 751 OFFCURVE",
"799 733 CURVE SMOOTH",
"799 720 OFFCURVE",
"795 707 OFFCURVE",
"782 694 CURVE SMOOTH",
"530 455 LINE",
"605 390 LINE"
);
},
{
closed = 1;
nodes = (
"198 147 LINE SMOOTH",
"160 109 OFFCURVE",
"115 64 OFFCURVE",
"25 64 CURVE",
"25 0 LINE",
"413 0 LINE",
"413 64 LINE",
"312 64 OFFCURVE",
"293 74 OFFCURVE",
"293 94 CURVE SMOOTH",
"293 107 OFFCURVE",
"307 127 OFFCURVE",
"321 141 CURVE SMOOTH",
"566 371 LINE",
"490 436 LINE"
);
}
);
width = 1125;
}
);
leftKerningGroup = x;
leftMetricsKey = v;
rightKerningGroup = x;
rightMetricsKey = v;
unicode = 0078;
},
{
glyphname = y;
lastChange = "2022-01-29 04:30:32 +0000";
layers = (
{
anchors = (
{
name = bottom;
position = "{654, 0}";
},
{
name = top;
position = "{478, 826}";
}
);
layerId = "14A1E899-FED4-4F52-86F4-A1F822586E10";
paths = (
{
closed = 1;
nodes = (
"507 -10 LINE",
"788 698 LINE SMOOTH",
"811 757 OFFCURVE",
"820 762 OFFCURVE",
"914 762 CURVE",
"914 826 LINE",
"587 826 LINE",
"587 762 LINE",
"691 762 OFFCURVE",
"711 761 OFFCURVE",
"711 742 CURVE SMOOTH",
"711 729 OFFCURVE",
"710 724 OFFCURVE",
"702 703 CURVE SMOOTH",
"495 173 LINE",
"285 709 LINE SMOOTH",
"280 722 OFFCURVE",
"277 730 OFFCURVE",
"277 740 CURVE SMOOTH",
"277 759 OFFCURVE",
"306 762 OFFCURVE",
"400 762 CURVE",
"400 826 LINE",
"40 826 LINE",
"40 762 LINE",
"108 762 OFFCURVE",
"148 755 OFFCURVE",
"171 698 CURVE SMOOTH",
"456 -10 LINE"
);
},
{
closed = 1;
nodes = (
"321 -438 OFFCURVE",
"368 -351 OFFCURVE",
"429 -201 CURVE SMOOTH",
"507 -10 LINE",
"444 55 LINE",
"340 -207 LINE SMOOTH",
"291 -331 OFFCURVE",
"256 -366 OFFCURVE",
"225 -366 CURVE SMOOTH",
"208 -366 OFFCURVE",
"188 -356 OFFCURVE",
"177 -340 CURVE",
"177 -203 LINE",
"41 -260 LINE",
"69 -384 LINE",
"85 -409 OFFCURVE",
"136 -438 OFFCURVE",
"204 -438 CURVE SMOOTH"
);
}
);
width = 954;
},
{
anchors = (
{
name = bottom;
position = "{708, 0}";
},
{
name = top;
position = "{540, 826}";
}
);
layerId = "72F22432-F665-4153-96BB-74D91BCC5F28";
paths = (
{
closed = 1;
nodes = (
"593 8 LINE",
"881 698 LINE SMOOTH",
"905 755 OFFCURVE",
"958 762 OFFCURVE",
"1012 762 CURVE",
"1012 826 LINE",
"660 826 LINE",
"660 762 LINE",
"685 762 OFFCURVE",
"774 759 OFFCURVE",
"774 725 CURVE SMOOTH",
"774 716 OFFCURVE",
"772 703 OFFCURVE",
"768 694 CURVE SMOOTH",
"626 358 LINE",
"482 679 LINE SMOOTH",
"477 691 OFFCURVE",
"474 710 OFFCURVE",
"474 721 CURVE SMOOTH",
"474 755 OFFCURVE",
"529 762 OFFCURVE",
"580 762 CURVE",
"580 826 LINE",
"25 826 LINE",
"25 762 LINE",
"96 762 OFFCURVE",
"128 755 OFFCURVE",
"155 698 CURVE SMOOTH",
"483 8 LINE"
);
},
{
closed = 1;
nodes = (
"392 -428 OFFCURVE",
"447 -351 OFFCURVE",
"501 -219 CURVE SMOOTH",
"593 8 LINE",
"506 65 LINE",
"400 -204 LINE SMOOTH",
"371 -277 OFFCURVE",
"349 -302 OFFCURVE",
"309 -302 CURVE SMOOTH",
"288 -302 OFFCURVE",
"272 -286 OFFCURVE",
"260 -268 CURVE",
"260 -134 LINE",
"63 -199 LINE",
"113 -362 LINE",
"151 -399 OFFCURVE",
"205 -428 OFFCURVE",
"262 -428 CURVE SMOOTH"
);
}
);
width = 1037;
}
);
leftKerningGroup = v;
leftMetricsKey = v;
rightKerningGroup = v;
rightMetricsKey = v;
unicode = 0079;
},
{
glyphname = z;
lastChange = "2022-02-18 15:28:02 +0000";
layers = (
{
anchors = (
{
name = bottom;
position = "{409, 0}";
},
{
name = center;
position = "{409, 463}";
},
{
name = top;
position = "{409, 826}";
}
);
layerId = "14A1E899-FED4-4F52-86F4-A1F822586E10";
paths = (
{
closed = 1;
nodes = (
"691 0 LINE",
"718 286 LINE",
"658 286 LINE",
"629 111 OFFCURVE",
"611 74 OFFCURVE",
"525 74 CURVE SMOOTH",
"189 74 LINE",
"700 760 LINE",
"700 826 LINE",
"116 826 LINE",
"89 538 LINE",
"149 538 LINE",
"178 716 OFFCURVE",
"200 752 OFFCURVE",
"274 752 CURVE SMOOTH",
"577 752 LINE",
"70 66 LINE",
"70 0 LINE"
);
}
);
width = 788;
},
{
anchors = (
{
name = bottom;
position = "{431, 0}";
},
{
name = center;
position = "{431, 463}";
},
{
name = top;
position = "{431, 826}";
}
);
layerId = "72F22432-F665-4153-96BB-74D91BCC5F28";
paths = (
{
closed = 1;
nodes = (
"803 0 LINE",
"828 288 LINE",
"725 288 LINE",
"697 133 OFFCURVE",
"677 74 OFFCURVE",
"620 74 CURVE SMOOTH",
"333 74 LINE",
"797 760 LINE",
"797 826 LINE",
"119 826 LINE",
"93 538 LINE",
"196 538 LINE",
"224 666 OFFCURVE",
"244 752 OFFCURVE",
"289 752 CURVE SMOOTH",
"524 752 LINE",
"55 66 LINE",
"55 0 LINE"
);
}
);
width = 883;
}
);
leftKerningGroup = z;
leftMetricsKey = i;
rightKerningGroup = z;
rightMetricsKey = i;
unicode = 007A;
},
{
glyphname = f_l;
lastChange = "2022-02-18 16:12:15 +0000";
layers = (
{
anchors = (
{
name = bottom_1;
position = "{284, 0}";
},
{
name = bottom_2;
position = "{833, 0}";
},
{
name = caret_1;
position = "{559, 0}";
},
{
name = top_1;
position = "{284, 1500}";
},
{
name = top_2;
position = "{833, 1500}";
}
);
layerId = "14A1E899-FED4-4F52-86F4-A1F822586E10";
paths = (
{
closed = 1;
nodes = (
"486 0 LINE",
"486 64 LINE",
"376 64 OFFCURVE",
"348 65 OFFCURVE",
"348 122 CURVE SMOOTH",
"348 756 LINE",
"595 756 LINE",
"610 826 LINE",
"348 826 LINE",
"348 1021 LINE SMOOTH",
"348 1392 OFFCURVE",
"492 1447 OFFCURVE",
"616 1447 CURVE SMOOTH",
"731 1447 OFFCURVE",
"779 1381 OFFCURVE",
"810 1324 CURVE",
"916 1366 LINE",
"882 1424 OFFCURVE",
"779 1517 OFFCURVE",
"637 1517 CURVE SMOOTH",
"430 1517 OFFCURVE",
"238 1415 OFFCURVE",
"238 1031 CURVE SMOOTH",
"238 826 LINE",
"70 826 LINE",
"70 756 LINE",
"238 756 LINE",
"238 122 LINE SMOOTH",
"238 65 OFFCURVE",
"210 64 OFFCURVE",
"100 64 CURVE",
"100 0 LINE"
);
},
{
closed = 1;
nodes = (
"1062 0 LINE",
"1062 64 LINE",
"956 64 OFFCURVE",
"916 65 OFFCURVE",
"916 122 CURVE SMOOTH",
"916 1366 LINE",
"810 1324 LINE",
"810 122 LINE SMOOTH",
"810 65 OFFCURVE",
"767 64 OFFCURVE",
"661 64 CURVE",
"661 0 LINE"
);
}
);
width = 1132;
},
{
anchors = (
{
name = bottom_1;
position = "{370, 0}";
},
{
name = bottom_2;
position = "{991, 0}";
},
{
name = caret_1;
position = "{681, 0}";
},
{
name = top_1;
position = "{370, 1500}";
},
{
name = top_2;
position = "{991, 1500}";
}
);
layerId = "72F22432-F665-4153-96BB-74D91BCC5F28";
paths = (
{
closed = 1;
nodes = (
"609 0 LINE",
"609 64 LINE",
"505 64 OFFCURVE",
"496 91 OFFCURVE",
"496 157 CURVE SMOOTH",
"496 740 LINE",
"707 740 LINE",
"707 826 LINE",
"496 826 LINE",
"496 1076 LINE SMOOTH",
"496 1357 OFFCURVE",
"594 1430 OFFCURVE",
"707 1430 CURVE SMOOTH",
"826 1430 OFFCURVE",
"875 1323 OFFCURVE",
"892 1232 CURVE",
"1167 1300 LINE",
"1126 1429 OFFCURVE",
"948 1517 OFFCURVE",
"747 1517 CURVE SMOOTH",
"583 1517 OFFCURVE",
"219 1460 OFFCURVE",
"219 1041 CURVE SMOOTH",
"219 826 LINE",
"54 826 LINE",
"54 740 LINE",
"219 740 LINE",
"219 157 LINE SMOOTH",
"219 91 OFFCURVE",
"210 64 OFFCURVE",
"106 64 CURVE",
"106 0 LINE"
);
},
{
closed = 1;
nodes = (
"1306 0 LINE",
"1306 64 LINE",
"1206 64 OFFCURVE",
"1167 109 OFFCURVE",
"1167 175 CURVE SMOOTH",
"1167 1300 LINE",
"892 1232 LINE",
"892 175 LINE SMOOTH",
"892 109 OFFCURVE",
"850 64 OFFCURVE",
"750 64 CURVE",
"750 0 LINE"
);
}
);
width = 1361;
}
);
leftKerningGroup = f;
leftMetricsKey = f;
rightKerningGroup = l;
rightMetricsKey = l;
},
{
glyphname = ordmasculine;
lastChange = "2020-11-11 18:49:25 +0000";
layers = (
{
layerId = "14A1E899-FED4-4F52-86F4-A1F822586E10";
paths = (
{
closed = 1;
nodes = (
"380 1002 OFFCURVE",
"490 1072 OFFCURVE",
"490 1214 CURVE SMOOTH",
"490 1358 OFFCURVE",
"382 1422 OFFCURVE",
"282 1422 CURVE SMOOTH",
"178 1422 OFFCURVE",
"74 1348 OFFCURVE",
"74 1214 CURVE SMOOTH",
"74 1076 OFFCURVE",
"190 1002 OFFCURVE",
"282 1002 CURVE SMOOTH"
);
},
{
closed = 1;
nodes = (
"216 1054 OFFCURVE",
"164 1092 OFFCURVE",
"164 1220 CURVE SMOOTH",
"164 1318 OFFCURVE",
"216 1370 OFFCURVE",
"282 1370 CURVE SMOOTH",
"348 1370 OFFCURVE",
"398 1320 OFFCURVE",
"398 1202 CURVE SMOOTH",
"398 1104 OFFCURVE",
"348 1054 OFFCURVE",
"282 1054 CURVE SMOOTH"
);
}
);
width = 564;
},
{
layerId = "72F22432-F665-4153-96BB-74D91BCC5F28";
paths = (
{
closed = 1;
nodes = (
"410 1002 OFFCURVE",
"515 1072 OFFCURVE",
"515 1214 CURVE SMOOTH",
"515 1358 OFFCURVE",
"412 1422 OFFCURVE",
"298 1422 CURVE SMOOTH",
"181 1422 OFFCURVE",
"81 1348 OFFCURVE",
"81 1214 CURVE SMOOTH",
"81 1076 OFFCURVE",
"192 1002 OFFCURVE",
"298 1002 CURVE SMOOTH"
);
},
{
closed = 1;
nodes = (
"245 1079 OFFCURVE",
"225 1123 OFFCURVE",
"225 1220 CURVE SMOOTH",
"225 1287 OFFCURVE",
"245 1345 OFFCURVE",
"298 1345 CURVE SMOOTH",
"351 1345 OFFCURVE",
"369 1289 OFFCURVE",
"369 1202 CURVE SMOOTH",
"369 1135 OFFCURVE",
"351 1079 OFFCURVE",
"298 1079 CURVE SMOOTH"
);
}
);
width = 596;
}
);
leftMetricsKey = T;
rightMetricsKey = T;
unicode = 00BA;
},
{
glyphname = zero;
lastChange = "2020-10-16 00:57:24 +0000";
layers = (
{
layerId = "14A1E899-FED4-4F52-86F4-A1F822586E10";
paths = (
{
closed = 1;
nodes = (
"874 -24 OFFCURVE",
"1062 272 OFFCURVE",
"1062 698 CURVE SMOOTH",
"1062 1124 OFFCURVE",
"874 1422 OFFCURVE",
"580 1422 CURVE SMOOTH",
"286 1422 OFFCURVE",
"100 1124 OFFCURVE",
"100 698 CURVE SMOOTH",
"100 272 OFFCURVE",
"286 -24 OFFCURVE",
"580 -24 CURVE SMOOTH"
);
},
{
closed = 1;
nodes = (
"344 36 OFFCURVE",
"232 366 OFFCURVE",
"232 698 CURVE SMOOTH",
"232 1032 OFFCURVE",
"344 1362 OFFCURVE",
"580 1362 CURVE SMOOTH",
"816 1362 OFFCURVE",
"930 1032 OFFCURVE",
"930 698 CURVE SMOOTH",
"930 364 OFFCURVE",
"816 36 OFFCURVE",
"580 36 CURVE SMOOTH"
);
}
);
width = 1162;
},
{
layerId = "72F22432-F665-4153-96BB-74D91BCC5F28";
paths = (
{
closed = 1;
nodes = (
"954 -24 OFFCURVE",
"1152 272 OFFCURVE",
"1152 698 CURVE SMOOTH",
"1152 1124 OFFCURVE",
"954 1422 OFFCURVE",
"620 1422 CURVE SMOOTH",
"286 1422 OFFCURVE",
"90 1124 OFFCURVE",
"90 698 CURVE SMOOTH",
"90 272 OFFCURVE",
"286 -24 OFFCURVE",
"620 -24 CURVE SMOOTH"
);
},
{
closed = 1;
nodes = (
"444 46 OFFCURVE",
"392 434 OFFCURVE",
"392 698 CURVE SMOOTH",
"392 962 OFFCURVE",
"444 1352 OFFCURVE",
"620 1352 CURVE SMOOTH",
"796 1352 OFFCURVE",
"848 962 OFFCURVE",
"848 698 CURVE SMOOTH",
"848 434 OFFCURVE",
"796 46 OFFCURVE",
"620 46 CURVE SMOOTH"
);
}
);
width = 1242;
}
);
unicode = 0030;
},
{
glyphname = one;
lastChange = "2022-01-29 04:35:05 +0000";
layers = (
{
layerId = "14A1E899-FED4-4F52-86F4-A1F822586E10";
paths = (
{
closed = 1;
nodes = (
"514 0 LINE",
"514 64 LINE",
"392 64 OFFCURVE",
"362 69 OFFCURVE",
"362 132 CURVE SMOOTH",
"362 1400 LINE",
"302 1400 LINE",
"258 1293 OFFCURVE",
"210 1280 OFFCURVE",
"80 1280 CURVE",
"80 1220 LINE",
"246 1220 LINE",
"246 132 LINE SMOOTH",
"246 70 OFFCURVE",
"216 64 OFFCURVE",
"94 64 CURVE",
"94 0 LINE"
);
}
);
width = 594;
},
{
layerId = "72F22432-F665-4153-96BB-74D91BCC5F28";
paths = (
{
closed = 1;
nodes = (
"694 0 LINE",
"694 64 LINE",
"572 64 OFFCURVE",
"542 72 OFFCURVE",
"542 152 CURVE SMOOTH",
"542 1400 LINE",
"452 1400 LINE",
"406 1292 OFFCURVE",
"323 1250 OFFCURVE",
"80 1250 CURVE",
"80 1174 LINE",
"246 1174 LINE",
"246 152 LINE SMOOTH",
"246 90 OFFCURVE",
"216 64 OFFCURVE",
"94 64 CURVE",
"94 0 LINE"
);
}
);
width = 774;
}
);
unicode = 0031;
},
{
glyphname = two;
lastChange = "2022-02-17 19:32:08 +0000";
layers = (
{
layerId = "14A1E899-FED4-4F52-86F4-A1F822586E10";
paths = (
{
closed = 1;
nodes = (
"888 0 LINE",
"948 401 LINE",
"874 401 LINE",
"823 168 OFFCURVE",
"778 107 OFFCURVE",
"672 107 CURVE SMOOTH",
"227 107 LINE",
"666 623 LINE SMOOTH",
"811 794 OFFCURVE",
"891 913 OFFCURVE",
"891 1090 CURVE SMOOTH",
"891 1313 OFFCURVE",
"724 1424 OFFCURVE",
"516 1424 CURVE SMOOTH",
"273 1424 OFFCURVE",
"126 1249 OFFCURVE",
"74 1142 CURVE",
"139 1108 LINE",
"195 1234 OFFCURVE",
"342 1340 OFFCURVE",
"482 1340 CURVE SMOOTH",
"608 1340 OFFCURVE",
"767 1278 OFFCURVE",
"767 1059 CURVE SMOOTH",
"767 925 OFFCURVE",
"681 764 OFFCURVE",
"575 640 CURVE SMOOTH",
"80 64 LINE",
"80 0 LINE"
);
}
);
width = 1026;
},
{
layerId = "72F22432-F665-4153-96BB-74D91BCC5F28";
paths = (
{
closed = 1;
nodes = (
"898 0 LINE",
"958 416 LINE",
"864 416 LINE",
"834 266 OFFCURVE",
"792 177 OFFCURVE",
"676 177 CURVE SMOOTH",
"315 177 LINE",
"575 483 LINE SMOOTH",
"722 656 OFFCURVE",
"926 900 OFFCURVE",
"926 1088 CURVE SMOOTH",
"926 1331 OFFCURVE",
"734 1424 OFFCURVE",
"526 1424 CURVE SMOOTH",
"273 1424 OFFCURVE",
"136 1249 OFFCURVE",
"74 1142 CURVE",
"149 1098 LINE",
"215 1214 OFFCURVE",
"332 1310 OFFCURVE",
"472 1310 CURVE SMOOTH",
"608 1310 OFFCURVE",
"674 1207 OFFCURVE",
"674 1018 CURVE SMOOTH",
"674 864 OFFCURVE",
"640 727 OFFCURVE",
"477 537 CURVE SMOOTH",
"80 73 LINE",
"80 0 LINE"
);
}
);
width = 1026;
}
);
unicode = 0032;
},
{
glyphname = three;
lastChange = "2020-10-16 00:45:49 +0000";
layers = (
{
layerId = "14A1E899-FED4-4F52-86F4-A1F822586E10";
paths = (
{
closed = 1;
nodes = (
"707 -24 OFFCURVE",
"941 100 OFFCURVE",
"941 404 CURVE SMOOTH",
"941 650 OFFCURVE",
"705 767 OFFCURVE",
"575 767 CURVE",
"693 795 OFFCURVE",
"897 911 OFFCURVE",
"897 1094 CURVE SMOOTH",
"897 1317 OFFCURVE",
"741 1422 OFFCURVE",
"532 1422 CURVE SMOOTH",
"294 1422 OFFCURVE",
"157 1251 OFFCURVE",
"103 1142 CURVE",
"169 1107 LINE",
"226 1230 OFFCURVE",
"358 1340 OFFCURVE",
"502 1340 CURVE SMOOTH",
"632 1340 OFFCURVE",
"775 1264 OFFCURVE",
"775 1082 CURVE SMOOTH",
"775 904 OFFCURVE",
"539 789 OFFCURVE",
"405 768 CURVE",
"405 718 LINE",
"625 714 OFFCURVE",
"815 642 OFFCURVE",
"815 376 CURVE SMOOTH",
"815 130 OFFCURVE",
"655 40 OFFCURVE",
"487 40 CURVE SMOOTH",
"297 40 OFFCURVE",
"217 160 OFFCURVE",
"197 402 CURVE",
"140 402 LINE",
"100 158 LINE",
"174 40 OFFCURVE",
"301 -24 OFFCURVE",
"485 -24 CURVE SMOOTH"
);
}
);
width = 1041;
},
{
layerId = "72F22432-F665-4153-96BB-74D91BCC5F28";
paths = (
{
closed = 1;
nodes = (
"707 -24 OFFCURVE",
"991 90 OFFCURVE",
"991 414 CURVE SMOOTH",
"991 660 OFFCURVE",
"755 767 OFFCURVE",
"595 767 CURVE",
"723 795 OFFCURVE",
"947 881 OFFCURVE",
"947 1084 CURVE SMOOTH",
"947 1327 OFFCURVE",
"751 1422 OFFCURVE",
"542 1422 CURVE SMOOTH",
"304 1422 OFFCURVE",
"147 1251 OFFCURVE",
"93 1142 CURVE",
"169 1100 LINE",
"227 1217 OFFCURVE",
"338 1310 OFFCURVE",
"482 1310 CURVE SMOOTH",
"592 1310 OFFCURVE",
"665 1234 OFFCURVE",
"665 1062 CURVE SMOOTH",
"665 884 OFFCURVE",
"539 789 OFFCURVE",
"405 768 CURVE",
"405 718 LINE",
"595 714 OFFCURVE",
"715 621 OFFCURVE",
"715 375 CURVE SMOOTH",
"715 179 OFFCURVE",
"645 50 OFFCURVE",
"487 50 CURVE SMOOTH",
"317 50 OFFCURVE",
"237 180 OFFCURVE",
"217 392 CURVE",
"120 392 LINE",
"80 138 LINE",
"174 30 OFFCURVE",
"291 -24 OFFCURVE",
"485 -24 CURVE SMOOTH"
);
}
);
width = 1041;
}
);
unicode = 0033;
},
{
glyphname = four;
lastChange = "2020-10-16 00:43:25 +0000";
layers = (
{
layerId = "14A1E899-FED4-4F52-86F4-A1F822586E10";
paths = (
{
closed = 1;
nodes = (
"846 0 LINE",
"846 64 LINE",
"750 64 OFFCURVE",
"704 69 OFFCURVE",
"704 122 CURVE SMOOTH",
"704 392 LINE",
"872 392 LINE",
"872 478 LINE",
"704 478 LINE",
"704 1400 LINE",
"668 1400 LINE",
"40 470 LINE",
"40 392 LINE",
"590 392 LINE",
"590 122 LINE SMOOTH",
"590 69 OFFCURVE",
"570 64 OFFCURVE",
"448 64 CURVE",
"448 0 LINE"
);
},
{
closed = 1;
nodes = (
"592 1147 LINE",
"592 478 LINE",
"146 478 LINE"
);
}
);
width = 932;
},
{
layerId = "72F22432-F665-4153-96BB-74D91BCC5F28";
paths = (
{
closed = 1;
nodes = (
"1010 0 LINE",
"1010 64 LINE",
"914 64 OFFCURVE",
"868 80 OFFCURVE",
"868 142 CURVE SMOOTH",
"868 382 LINE",
"1036 382 LINE",
"1036 488 LINE",
"868 488 LINE",
"868 1400 LINE",
"692 1400 LINE",
"40 480 LINE",
"40 382 LINE",
"590 382 LINE",
"590 142 LINE SMOOTH",
"590 80 OFFCURVE",
"570 64 OFFCURVE",
"448 64 CURVE",
"448 0 LINE"
);
},
{
closed = 1;
nodes = (
"592 1098 LINE",
"592 488 LINE",
"166 488 LINE"
);
}
);
width = 1096;
}
);
unicode = 0034;
},
{
glyphname = five;
lastChange = "2022-02-17 19:33:38 +0000";
layers = (
{
layerId = "14A1E899-FED4-4F52-86F4-A1F822586E10";
paths = (
{
closed = 1;
nodes = (
"761 -24 OFFCURVE",
"959 170 OFFCURVE",
"959 476 CURVE SMOOTH",
"959 780 OFFCURVE",
"737 904 OFFCURVE",
"565 904 CURVE SMOOTH",
"405 904 OFFCURVE",
"268 825 OFFCURVE",
"215 747 CURVE",
"286 1294 LINE",
"905 1294 LINE",
"951 1480 LINE",
"885 1480 LINE",
"864 1402 OFFCURVE",
"857 1400 OFFCURVE",
"812 1400 CURVE SMOOTH",
"219 1400 LINE",
"127 664 LINE",
"201 636 LINE",
"305 764 OFFCURVE",
"411 820 OFFCURVE",
"535 820 CURVE SMOOTH",
"685 820 OFFCURVE",
"831 700 OFFCURVE",
"831 436 CURVE SMOOTH",
"831 206 OFFCURVE",
"703 36 OFFCURVE",
"509 36 CURVE SMOOTH",
"319 36 OFFCURVE",
"211 164 OFFCURVE",
"195 402 CURVE",
"137 402 LINE",
"90 154 LINE",
"162 46 OFFCURVE",
"319 -24 OFFCURVE",
"499 -24 CURVE SMOOTH"
);
}
);
width = 1049;
},
{
layerId = "72F22432-F665-4153-96BB-74D91BCC5F28";
paths = (
{
closed = 1;
nodes = (
"794 -24 OFFCURVE",
"1042 140 OFFCURVE",
"1042 466 CURVE SMOOTH",
"1042 790 OFFCURVE",
"810 904 OFFCURVE",
"578 904 CURVE SMOOTH",
"418 904 OFFCURVE",
"348 844 OFFCURVE",
"285 788 CURVE",
"340 1226 LINE",
"980 1226 LINE",
"1038 1494 LINE",
"972 1494 LINE",
"961 1423 OFFCURVE",
"913 1400 OFFCURVE",
"855 1400 CURVE SMOOTH",
"240 1400 LINE",
"150 664 LINE",
"244 636 LINE",
"348 744 OFFCURVE",
"434 760 OFFCURVE",
"518 760 CURVE SMOOTH",
"678 760 OFFCURVE",
"744 570 OFFCURVE",
"744 386 CURVE SMOOTH",
"744 206 OFFCURVE",
"686 46 OFFCURVE",
"542 46 CURVE SMOOTH",
"352 46 OFFCURVE",
"264 184 OFFCURVE",
"238 402 CURVE",
"130 402 LINE",
"90 144 LINE",
"160 35 OFFCURVE",
"362 -24 OFFCURVE",
"522 -24 CURVE SMOOTH"
);
}
);
width = 1082;
}
);
unicode = 0035;
},
{
glyphname = six;
lastChange = "2020-10-16 00:57:32 +0000";
layers = (
{
layerId = "14A1E899-FED4-4F52-86F4-A1F822586E10";
paths = (
{
closed = 1;
nodes = (
"762 -24 OFFCURVE",
"964 164 OFFCURVE",
"964 472 CURVE SMOOTH",
"964 740 OFFCURVE",
"774 904 OFFCURVE",
"568 904 CURVE SMOOTH",
"412 904 OFFCURVE",
"284 834 OFFCURVE",
"228 746 CURVE",
"306 1104 OFFCURVE",
"508 1265 OFFCURVE",
"782 1363 CURVE",
"770 1415 LINE",
"351 1329 OFFCURVE",
"90 992 OFFCURVE",
"90 576 CURVE SMOOTH",
"90 202 OFFCURVE",
"266 -24 OFFCURVE",
"518 -24 CURVE SMOOTH"
);
},
{
closed = 1;
nodes = (
"332 44 OFFCURVE",
"215 225 OFFCURVE",
"215 573 CURVE SMOOTH",
"215 619 OFFCURVE",
"217 635 OFFCURVE",
"223 658 CURVE",
"303 771 OFFCURVE",
"414 804 OFFCURVE",
"520 804 CURVE SMOOTH",
"714 804 OFFCURVE",
"828 706 OFFCURVE",
"828 432 CURVE SMOOTH",
"828 160 OFFCURVE",
"710 44 OFFCURVE",
"528 44 CURVE SMOOTH"
);
}
);
width = 1054;
},
{
layerId = "72F22432-F665-4153-96BB-74D91BCC5F28";
paths = (
{
closed = 1;
nodes = (
"850 -24 OFFCURVE",
"1072 174 OFFCURVE",
"1072 482 CURVE SMOOTH",
"1072 740 OFFCURVE",
"892 902 OFFCURVE",
"656 902 CURVE SMOOTH",
"520 902 OFFCURVE",
"422 822 OFFCURVE",
"396 766 CURVE",
"456 1104 OFFCURVE",
"574 1245 OFFCURVE",
"848 1343 CURVE",
"828 1415 LINE",
"369 1329 OFFCURVE",
"90 992 OFFCURVE",
"90 576 CURVE SMOOTH",
"90 202 OFFCURVE",
"284 -24 OFFCURVE",
"576 -24 CURVE SMOOTH"
);
},
{
closed = 1;
nodes = (
"430 44 OFFCURVE",
"376 294 OFFCURVE",
"376 573 CURVE SMOOTH",
"376 611 OFFCURVE",
"378 637 OFFCURVE",
"384 660 CURVE",
"434 732 OFFCURVE",
"502 782 OFFCURVE",
"598 782 CURVE SMOOTH",
"742 782 OFFCURVE",
"786 606 OFFCURVE",
"786 422 CURVE SMOOTH",
"786 180 OFFCURVE",
"738 44 OFFCURVE",
"586 44 CURVE SMOOTH"
);
}
);
width = 1162;
}
);
unicode = 0036;
},
{
glyphname = seven;
lastChange = "2022-02-17 19:31:39 +0000";
layers = (
{
layerId = "14A1E899-FED4-4F52-86F4-A1F822586E10";
paths = (
{
closed = 1;
nodes = (
"490 0 LINE",
"490 435 OFFCURVE",
"555 1060 OFFCURVE",
"864 1313 CURVE",
"864 1400 LINE",
"130 1400 LINE",
"80 1014 LINE",
"154 1014 LINE",
"183 1154 OFFCURVE",
"217 1295 OFFCURVE",
"333 1295 CURVE SMOOTH",
"768 1295 LINE",
"507 1095 OFFCURVE",
"372 527 OFFCURVE",
"372 0 CURVE"
);
}
);
width = 944;
},
{
layerId = "72F22432-F665-4153-96BB-74D91BCC5F28";
paths = (
{
closed = 1;
nodes = (
"630 0 LINE",
"630 591 OFFCURVE",
"645 991 OFFCURVE",
"934 1244 CURVE",
"934 1400 LINE",
"130 1400 LINE",
"80 984 LINE",
"164 984 LINE",
"191 1134 OFFCURVE",
"237 1226 OFFCURVE",
"363 1226 CURVE SMOOTH",
"788 1226 LINE",
"496 1026 OFFCURVE",
"342 631 OFFCURVE",
"342 0 CURVE"
);
}
);
width = 1014;
}
);
unicode = 0037;
},
{
glyphname = eight;
lastChange = "2020-10-16 01:19:00 +0000";
layers = (
{
layerId = "14A1E899-FED4-4F52-86F4-A1F822586E10";
paths = (
{
closed = 1;
nodes = (
"754 -24 OFFCURVE",
"978 114 OFFCURVE",
"978 382 CURVE SMOOTH",
"978 580 OFFCURVE",
"811 693 OFFCURVE",
"653 763 CURVE",
"803 847 OFFCURVE",
"926 940 OFFCURVE",
"926 1108 CURVE SMOOTH",
"926 1332 OFFCURVE",
"720 1424 OFFCURVE",
"554 1424 CURVE SMOOTH",
"340 1424 OFFCURVE",
"160 1318 OFFCURVE",
"160 1114 CURVE SMOOTH",
"160 927 OFFCURVE",
"285 808 OFFCURVE",
"430 741 CURVE",
"266 701 OFFCURVE",
"98 575 OFFCURVE",
"98 354 CURVE SMOOTH",
"98 94 OFFCURVE",
"320 -24 OFFCURVE",
"526 -24 CURVE SMOOTH"
);
},
{
closed = 1;
nodes = (
"358 42 OFFCURVE",
"204 144 OFFCURVE",
"204 362 CURVE SMOOTH",
"204 558 OFFCURVE",
"342 639 OFFCURVE",
"502 699 CURVE",
"678 619 OFFCURVE",
"868 531 OFFCURVE",
"868 335 CURVE SMOOTH",
"868 121 OFFCURVE",
"704 42 OFFCURVE",
"514 42 CURVE SMOOTH"
);
},
{
closed = 1;
nodes = (
"408 867 OFFCURVE",
"251 961 OFFCURVE",
"251 1132 CURVE SMOOTH",
"251 1282 OFFCURVE",
"391 1354 OFFCURVE",
"527 1354 CURVE SMOOTH",
"667 1354 OFFCURVE",
"812 1294 OFFCURVE",
"812 1108 CURVE SMOOTH",
"812 956 OFFCURVE",
"708 876 OFFCURVE",
"564 800 CURVE"
);
}
);
width = 1088;
},
{
layerId = "72F22432-F665-4153-96BB-74D91BCC5F28";
paths = (
{
closed = 1;
nodes = (
"805 -24 OFFCURVE",
"1029 124 OFFCURVE",
"1029 382 CURVE SMOOTH",
"1029 600 OFFCURVE",
"857 725 OFFCURVE",
"729 785 CURVE",
"879 879 OFFCURVE",
"957 980 OFFCURVE",
"957 1108 CURVE SMOOTH",
"957 1342 OFFCURVE",
"743 1424 OFFCURVE",
"557 1424 CURVE SMOOTH",
"323 1424 OFFCURVE",
"121 1298 OFFCURVE",
"121 1084 CURVE SMOOTH",
"121 877 OFFCURVE",
"243 756 OFFCURVE",
"343 706 CURVE",
"199 656 OFFCURVE",
"80 555 OFFCURVE",
"80 354 CURVE SMOOTH",
"80 94 OFFCURVE",
"311 -24 OFFCURVE",
"537 -24 CURVE SMOOTH"
);
},
{
closed = 1;
nodes = (
"390 52 OFFCURVE",
"290 147 OFFCURVE",
"290 350 CURVE SMOOTH",
"290 486 OFFCURVE",
"344 575 OFFCURVE",
"448 626 CURVE",
"601 556 OFFCURVE",
"774 432 OFFCURVE",
"774 285 CURVE SMOOTH",
"774 125 OFFCURVE",
"667 52 OFFCURVE",
"527 52 CURVE SMOOTH"
);
},
{
closed = 1;
nodes = (
"520 905 OFFCURVE",
"323 1004 OFFCURVE",
"323 1144 CURVE SMOOTH",
"323 1287 OFFCURVE",
"422 1349 OFFCURVE",
"542 1349 CURVE SMOOTH",
"666 1349 OFFCURVE",
"762 1278 OFFCURVE",
"762 1107 CURVE SMOOTH",
"762 983 OFFCURVE",
"716 923 OFFCURVE",
"617 857 CURVE"
);
}
);
width = 1109;
}
);
unicode = 0038;
},
{
glyphname = nine;
lastChange = "2020-10-16 01:11:13 +0000";
layers = (
{
layerId = "14A1E899-FED4-4F52-86F4-A1F822586E10";
paths = (
{
closed = 1;
nodes = (
"292 1415 OFFCURVE",
"90 1237 OFFCURVE",
"90 929 CURVE SMOOTH",
"90 661 OFFCURVE",
"280 487 OFFCURVE",
"486 487 CURVE SMOOTH",
"642 487 OFFCURVE",
"770 577 OFFCURVE",
"826 665 CURVE",
"748 307 OFFCURVE",
"546 126 OFFCURVE",
"272 28 CURVE",
"284 -24 LINE",
"703 62 OFFCURVE",
"964 419 OFFCURVE",
"964 835 CURVE SMOOTH",
"964 1209 OFFCURVE",
"788 1415 OFFCURVE",
"536 1415 CURVE SMOOTH"
);
},
{
closed = 1;
nodes = (
"722 1347 OFFCURVE",
"839 1186 OFFCURVE",
"839 838 CURVE SMOOTH",
"839 792 OFFCURVE",
"837 776 OFFCURVE",
"831 753 CURVE",
"751 640 OFFCURVE",
"640 587 OFFCURVE",
"534 587 CURVE SMOOTH",
"340 587 OFFCURVE",
"226 695 OFFCURVE",
"226 969 CURVE SMOOTH",
"226 1241 OFFCURVE",
"344 1347 OFFCURVE",
"526 1347 CURVE SMOOTH"
);
}
);
width = 1054;
},
{
layerId = "72F22432-F665-4153-96BB-74D91BCC5F28";
paths = (
{
closed = 1;
nodes = (
"282 1423 OFFCURVE",
"60 1245 OFFCURVE",
"60 937 CURVE SMOOTH",
"60 679 OFFCURVE",
"240 497 OFFCURVE",
"476 497 CURVE SMOOTH",
"612 497 OFFCURVE",
"710 577 OFFCURVE",
"736 633 CURVE",
"676 295 OFFCURVE",
"558 154 OFFCURVE",
"284 56 CURVE",
"304 -16 LINE",
"763 70 OFFCURVE",
"1042 427 OFFCURVE",
"1042 843 CURVE SMOOTH",
"1042 1217 OFFCURVE",
"848 1423 OFFCURVE",
"556 1423 CURVE SMOOTH"
);
},
{
closed = 1;
nodes = (
"702 1355 OFFCURVE",
"756 1105 OFFCURVE",
"756 826 CURVE SMOOTH",
"756 788 OFFCURVE",
"754 762 OFFCURVE",
"748 739 CURVE",
"698 667 OFFCURVE",
"630 617 OFFCURVE",
"534 617 CURVE SMOOTH",
"390 617 OFFCURVE",
"346 793 OFFCURVE",
"346 977 CURVE SMOOTH",
"346 1219 OFFCURVE",
"394 1355 OFFCURVE",
"546 1355 CURVE SMOOTH"
);
}
);
width = 1092;
}
);
unicode = 0039;
},
{
glyphname = zero.osf;
lastChange = "2020-10-16 01:16:23 +0000";
layers = (
{
layerId = "14A1E899-FED4-4F52-86F4-A1F822586E10";
paths = (
{
closed = 1;
nodes = (
"834 -24 OFFCURVE",
"1022 183 OFFCURVE",
"1022 459 CURVE SMOOTH",
"1022 735 OFFCURVE",
"834 942 OFFCURVE",
"560 942 CURVE SMOOTH",
"286 942 OFFCURVE",
"100 735 OFFCURVE",
"100 459 CURVE SMOOTH",
"100 183 OFFCURVE",
"286 -24 OFFCURVE",
"560 -24 CURVE SMOOTH"
);
},
{
closed = 1;
nodes = (
"354 36 OFFCURVE",
"232 225 OFFCURVE",
"232 459 CURVE SMOOTH",
"232 693 OFFCURVE",
"354 882 OFFCURVE",
"560 882 CURVE SMOOTH",
"766 882 OFFCURVE",
"888 693 OFFCURVE",
"888 459 CURVE SMOOTH",
"888 225 OFFCURVE",
"766 36 OFFCURVE",
"560 36 CURVE SMOOTH"
);
}
);
width = 1122;
},
{
layerId = "72F22432-F665-4153-96BB-74D91BCC5F28";
paths = (
{
closed = 1;
nodes = (
"894 -24 OFFCURVE",
"1092 153 OFFCURVE",
"1092 459 CURVE SMOOTH",
"1092 765 OFFCURVE",
"894 942 OFFCURVE",
"590 942 CURVE SMOOTH",
"286 942 OFFCURVE",
"90 765 OFFCURVE",
"90 459 CURVE SMOOTH",
"90 153 OFFCURVE",
"286 -24 OFFCURVE",
"590 -24 CURVE SMOOTH"
);
},
{
closed = 1;
nodes = (
"444 46 OFFCURVE",
"382 235 OFFCURVE",
"382 459 CURVE SMOOTH",
"382 693 OFFCURVE",
"444 872 OFFCURVE",
"590 872 CURVE SMOOTH",
"736 872 OFFCURVE",
"798 693 OFFCURVE",
"798 459 CURVE SMOOTH",
"798 235 OFFCURVE",
"736 46 OFFCURVE",
"590 46 CURVE SMOOTH"
);
}
);
width = 1182;
}
);
leftMetricsKey = zero;
rightMetricsKey = zero;
},
{
glyphname = one.osf;
lastChange = "2020-10-16 00:41:05 +0000";
layers = (
{
layerId = "14A1E899-FED4-4F52-86F4-A1F822586E10";
paths = (
{
closed = 1;
nodes = (
"509 0 LINE",
"509 64 LINE",
"387 64 OFFCURVE",
"357 65 OFFCURVE",
"357 142 CURVE SMOOTH",
"357 955 LINE",
"302 955 LINE",
"258 871 OFFCURVE",
"200 835 OFFCURVE",
"80 835 CURVE",
"80 775 LINE",
"246 775 LINE",
"246 142 LINE SMOOTH",
"246 80 OFFCURVE",
"216 64 OFFCURVE",
"94 64 CURVE",
"94 0 LINE"
);
}
);
width = 589;
},
{
layerId = "72F22432-F665-4153-96BB-74D91BCC5F28";
paths = (
{
closed = 1;
nodes = (
"694 0 LINE",
"694 64 LINE",
"572 64 OFFCURVE",
"542 72 OFFCURVE",
"542 152 CURVE SMOOTH",
"542 926 LINE",
"452 926 LINE",
"406 838 OFFCURVE",
"250 776 OFFCURVE",
"80 776 CURVE",
"80 700 LINE",
"246 700 LINE",
"246 152 LINE SMOOTH",
"246 90 OFFCURVE",
"216 64 OFFCURVE",
"94 64 CURVE",
"94 0 LINE"
);
}
);
width = 774;
}
);
leftMetricsKey = one;
rightMetricsKey = one;
},
{
glyphname = two.osf;
lastChange = "2022-02-17 19:32:55 +0000";
layers = (
{
layerId = "14A1E899-FED4-4F52-86F4-A1F822586E10";
paths = (
{
closed = 1;
nodes = (
"748 0 LINE",
"798 287 LINE",
"724 287 LINE",
"694 167 OFFCURVE",
"671 108 OFFCURVE",
"585 108 CURVE SMOOTH",
"262 108 LINE",
"451 280 LINE SMOOTH",
"621 434 OFFCURVE",
"746 554 OFFCURVE",
"746 709 CURVE SMOOTH",
"746 852 OFFCURVE",
"634 944 OFFCURVE",
"456 944 CURVE SMOOTH",
"263 944 OFFCURVE",
"136 819 OFFCURVE",
"74 712 CURVE",
"139 678 LINE",
"205 784 OFFCURVE",
"322 860 OFFCURVE",
"422 860 CURVE SMOOTH",
"518 860 OFFCURVE",
"614 837 OFFCURVE",
"614 693 CURVE SMOOTH",
"614 553 OFFCURVE",
"550 467 OFFCURVE",
"429 358 CURVE SMOOTH",
"111 70 LINE",
"111 0 LINE"
);
}
);
width = 876;
},
{
layerId = "72F22432-F665-4153-96BB-74D91BCC5F28";
paths = (
{
closed = 1;
nodes = (
"758 0 LINE",
"798 307 LINE",
"724 307 LINE",
"694 197 OFFCURVE",
"650 154 OFFCURVE",
"534 154 CURVE SMOOTH",
"339 154 LINE",
"468 267 LINE SMOOTH",
"640 418 OFFCURVE",
"776 538 OFFCURVE",
"776 707 CURVE SMOOTH",
"776 850 OFFCURVE",
"644 944 OFFCURVE",
"456 944 CURVE SMOOTH",
"263 944 OFFCURVE",
"136 819 OFFCURVE",
"74 712 CURVE",
"151 675 LINE",
"217 781 OFFCURVE",
"294 830 OFFCURVE",
"392 830 CURVE SMOOTH",
"478 830 OFFCURVE",
"534 769 OFFCURVE",
"534 675 CURVE SMOOTH",
"534 565 OFFCURVE",
"515 445 OFFCURVE",
"405 344 CURVE SMOOTH",
"111 74 LINE",
"111 0 LINE"
);
}
);
width = 866;
}
);
leftMetricsKey = two;
rightMetricsKey = two;
},
{
glyphname = three.osf;
lastChange = "2020-10-16 00:46:12 +0000";
layers = (
{
layerId = "14A1E899-FED4-4F52-86F4-A1F822586E10";
paths = (
{
closed = 1;
nodes = (
"644 -359 OFFCURVE",
"853 -248 OFFCURVE",
"853 25 CURVE SMOOTH",
"853 245 OFFCURVE",
"642 350 OFFCURVE",
"525 350 CURVE",
"631 375 OFFCURVE",
"814 489 OFFCURVE",
"814 653 CURVE SMOOTH",
"814 853 OFFCURVE",
"674 937 OFFCURVE",
"487 937 CURVE SMOOTH",
"273 937 OFFCURVE",
"151 784 OFFCURVE",
"102 686 CURVE",
"165 651 LINE",
"217 761 OFFCURVE",
"334 864 OFFCURVE",
"460 864 CURVE SMOOTH",
"576 864 OFFCURVE",
"696 806 OFFCURVE",
"696 643 CURVE SMOOTH",
"696 484 OFFCURVE",
"493 375 OFFCURVE",
"373 356 CURVE",
"373 306 LINE",
"570 302 OFFCURVE",
"730 239 OFFCURVE",
"730 1 CURVE SMOOTH",
"730 -220 OFFCURVE",
"597 -297 OFFCURVE",
"446 -297 CURVE SMOOTH",
"286 -297 OFFCURVE",
"214 -194 OFFCURVE",
"197 23 CURVE",
"135 23 LINE",
"100 -196 LINE",
"166 -302 OFFCURVE",
"280 -359 OFFCURVE",
"445 -359 CURVE SMOOTH"
);
}
);
width = 953;
},
{
layerId = "72F22432-F665-4153-96BB-74D91BCC5F28";
paths = (
{
closed = 1;
nodes = (
"642 -359 OFFCURVE",
"909 -257 OFFCURVE",
"909 34 CURVE SMOOTH",
"909 255 OFFCURVE",
"707 350 OFFCURVE",
"564 350 CURVE",
"680 366 OFFCURVE",
"870 450 OFFCURVE",
"870 634 CURVE SMOOTH",
"870 864 OFFCURVE",
"683 938 OFFCURVE",
"485 938 CURVE SMOOTH",
"272 938 OFFCURVE",
"140 785 OFFCURVE",
"92 687 CURVE",
"160 649 LINE",
"212 754 OFFCURVE",
"311 837 OFFCURVE",
"440 837 CURVE SMOOTH",
"547 837 OFFCURVE",
"594 779 OFFCURVE",
"594 625 CURVE SMOOTH",
"594 465 OFFCURVE",
"492 370 OFFCURVE",
"371 351 CURVE",
"371 307 LINE",
"522 301 OFFCURVE",
"620 220 OFFCURVE",
"620 -1 CURVE SMOOTH",
"620 -177 OFFCURVE",
"577 -293 OFFCURVE",
"445 -293 CURVE SMOOTH",
"292 -293 OFFCURVE",
"212 -176 OFFCURVE",
"194 14 CURVE",
"116 14 LINE",
"80 -214 LINE",
"164 -311 OFFCURVE",
"269 -359 OFFCURVE",
"443 -359 CURVE SMOOTH"
);
}
);
width = 959;
}
);
leftMetricsKey = three;
rightMetricsKey = three;
},
{
glyphname = four.osf;
lastChange = "2020-10-16 00:43:30 +0000";
layers = (
{
layerId = "14A1E899-FED4-4F52-86F4-A1F822586E10";
paths = (
{
closed = 1;
nodes = (
"806 -346 LINE",
"806 -282 LINE",
"710 -282 OFFCURVE",
"664 -277 OFFCURVE",
"664 -224 CURVE SMOOTH",
"664 -4 LINE",
"832 -4 LINE",
"832 82 LINE",
"664 82 LINE",
"664 934 LINE",
"628 934 LINE",
"40 74 LINE",
"40 -4 LINE",
"550 -4 LINE",
"550 -224 LINE SMOOTH",
"550 -277 OFFCURVE",
"530 -282 OFFCURVE",
"408 -282 CURVE",
"408 -346 LINE"
);
},
{
closed = 1;
nodes = (
"552 691 LINE",
"552 82 LINE",
"142 82 LINE"
);
}
);
width = 892;
},
{
layerId = "72F22432-F665-4153-96BB-74D91BCC5F28";
paths = (
{
closed = 1;
nodes = (
"960 -346 LINE",
"960 -282 LINE",
"864 -282 OFFCURVE",
"818 -266 OFFCURVE",
"818 -204 CURVE SMOOTH",
"818 -24 LINE",
"986 -24 LINE",
"986 82 LINE",
"818 82 LINE",
"818 934 LINE",
"642 934 LINE",
"40 74 LINE",
"40 -24 LINE",
"540 -24 LINE",
"540 -204 LINE SMOOTH",
"540 -266 OFFCURVE",
"520 -282 OFFCURVE",
"398 -282 CURVE",
"398 -346 LINE"
);
},
{
closed = 1;
nodes = (
"542 632 LINE",
"542 82 LINE",
"166 82 LINE"
);
}
);
width = 1046;
}
);
leftMetricsKey = four;
rightMetricsKey = four;
},
{
glyphname = five.osf;
lastChange = "2022-02-17 19:33:55 +0000";
layers = (
{
layerId = "14A1E899-FED4-4F52-86F4-A1F822586E10";
paths = (
{
closed = 1;
nodes = (
"699 -358 OFFCURVE",
"878 -182 OFFCURVE",
"878 95 CURVE SMOOTH",
"878 371 OFFCURVE",
"677 484 OFFCURVE",
"521 484 CURVE SMOOTH",
"376 484 OFFCURVE",
"264 419 OFFCURVE",
"216 358 CURVE",
"276 829 LINE",
"827 829 LINE",
"871 1006 LINE",
"803 1006 LINE",
"784 935 OFFCURVE",
"768 933 OFFCURVE",
"727 933 CURVE SMOOTH",
"207 933 LINE",
"124 266 LINE",
"191 241 LINE",
"285 357 OFFCURVE",
"381 407 OFFCURVE",
"494 407 CURVE SMOOTH",
"630 407 OFFCURVE",
"755 299 OFFCURVE",
"755 59 CURVE SMOOTH",
"755 -149 OFFCURVE",
"646 -300 OFFCURVE",
"470 -300 CURVE SMOOTH",
"298 -300 OFFCURVE",
"208 -188 OFFCURVE",
"193 28 CURVE",
"133 28 LINE",
"90 -197 LINE",
"155 -295 OFFCURVE",
"298 -358 OFFCURVE",
"461 -358 CURVE SMOOTH"
);
}
);
width = 968;
},
{
layerId = "72F22432-F665-4153-96BB-74D91BCC5F28";
paths = (
{
closed = 1;
nodes = (
"724 -357 OFFCURVE",
"956 -210 OFFCURVE",
"956 84 CURVE SMOOTH",
"956 375 OFFCURVE",
"738 477 OFFCURVE",
"529 477 CURVE SMOOTH",
"385 477 OFFCURVE",
"331 424 OFFCURVE",
"274 373 CURVE",
"323 768 LINE",
"887 768 LINE",
"945 1039 LINE",
"879 1039 LINE",
"857 944 OFFCURVE",
"819 924 OFFCURVE",
"760 924 CURVE SMOOTH",
"227 924 LINE",
"146 262 LINE",
"236 236 LINE",
"331 333 OFFCURVE",
"400 348 OFFCURVE",
"475 348 CURVE SMOOTH",
"620 348 OFFCURVE",
"678 177 OFFCURVE",
"678 11 CURVE SMOOTH",
"678 -150 OFFCURVE",
"626 -295 OFFCURVE",
"496 -295 CURVE SMOOTH",
"325 -295 OFFCURVE",
"253 -170 OFFCURVE",
"229 26 CURVE",
"126 26 LINE",
"90 -206 LINE",
"153 -304 OFFCURVE",
"334 -357 OFFCURVE",
"478 -357 CURVE SMOOTH"
);
}
);
width = 996;
}
);
leftMetricsKey = five;
rightMetricsKey = five;
},
{
glyphname = six.osf;
lastChange = "2020-10-16 00:58:05 +0000";
layers = (
{
layerId = "14A1E899-FED4-4F52-86F4-A1F822586E10";
paths = (
{
closed = 1;
nodes = (
"672 -24 OFFCURVE",
"855 137 OFFCURVE",
"855 401 CURVE SMOOTH",
"855 630 OFFCURVE",
"682 771 OFFCURVE",
"506 771 CURVE SMOOTH",
"380 771 OFFCURVE",
"273 711 OFFCURVE",
"225 635 CURVE",
"292 942 OFFCURVE",
"468 1070 OFFCURVE",
"702 1154 CURVE",
"679 1208 LINE",
"330 1124 OFFCURVE",
"90 846 OFFCURVE",
"90 490 CURVE SMOOTH",
"90 170 OFFCURVE",
"248 -24 OFFCURVE",
"463 -24 CURVE SMOOTH"
);
},
{
closed = 1;
nodes = (
"314 34 OFFCURVE",
"214 189 OFFCURVE",
"214 487 CURVE SMOOTH",
"214 527 OFFCURVE",
"216 540 OFFCURVE",
"221 560 CURVE",
"289 657 OFFCURVE",
"374 685 OFFCURVE",
"465 685 CURVE SMOOTH",
"631 685 OFFCURVE",
"719 601 OFFCURVE",
"719 366 CURVE SMOOTH",
"719 134 OFFCURVE",
"618 34 OFFCURVE",
"472 34 CURVE SMOOTH"
);
}
);
width = 945;
},
{
layerId = "72F22432-F665-4153-96BB-74D91BCC5F28";
paths = (
{
closed = 1;
nodes = (
"749 -24 OFFCURVE",
"942 148 OFFCURVE",
"942 415 CURVE SMOOTH",
"942 638 OFFCURVE",
"786 779 OFFCURVE",
"581 779 CURVE SMOOTH",
"463 779 OFFCURVE",
"378 710 OFFCURVE",
"356 661 CURVE",
"408 954 OFFCURVE",
"520 1076 OFFCURVE",
"758 1161 CURVE",
"730 1224 LINE",
"332 1149 OFFCURVE",
"90 857 OFFCURVE",
"90 496 CURVE SMOOTH",
"90 172 OFFCURVE",
"258 -24 OFFCURVE",
"512 -24 CURVE SMOOTH"
);
},
{
closed = 1;
nodes = (
"385 45 OFFCURVE",
"348 252 OFFCURVE",
"348 494 CURVE SMOOTH",
"348 527 OFFCURVE",
"350 539 OFFCURVE",
"355 559 CURVE",
"399 622 OFFCURVE",
"447 665 OFFCURVE",
"531 665 CURVE SMOOTH",
"656 665 OFFCURVE",
"684 522 OFFCURVE",
"684 363 CURVE SMOOTH",
"684 153 OFFCURVE",
"652 45 OFFCURVE",
"520 45 CURVE SMOOTH"
);
}
);
width = 1032;
}
);
leftMetricsKey = six;
rightMetricsKey = six;
},
{
glyphname = seven.osf;
lastChange = "2020-10-16 01:17:41 +0000";
layers = (
{
layerId = "14A1E899-FED4-4F52-86F4-A1F822586E10";
paths = (
{
closed = 1;
nodes = (
"490 -344 LINE",
"490 91 OFFCURVE",
"535 586 OFFCURVE",
"844 839 CURVE",
"844 926 LINE",
"130 926 LINE",
"80 540 LINE",
"154 540 LINE",
"183 680 OFFCURVE",
"217 821 OFFCURVE",
"333 821 CURVE SMOOTH",
"748 821 LINE",
"487 621 OFFCURVE",
"372 183 OFFCURVE",
"372 -344 CURVE"
);
}
);
width = 924;
},
{
layerId = "72F22432-F665-4153-96BB-74D91BCC5F28";
paths = (
{
closed = 1;
nodes = (
"630 -343 LINE",
"630 248 OFFCURVE",
"645 537 OFFCURVE",
"934 790 CURVE",
"934 926 LINE",
"130 926 LINE",
"80 530 LINE",
"164 530 LINE",
"191 680 OFFCURVE",
"237 772 OFFCURVE",
"363 772 CURVE SMOOTH",
"788 772 LINE",
"496 572 OFFCURVE",
"342 288 OFFCURVE",
"342 -343 CURVE"
);
}
);
width = 1014;
}
);
leftMetricsKey = seven;
rightMetricsKey = seven;
},
{
glyphname = eight.osf;
lastChange = "2020-11-04 18:46:09 +0000";
layers = (
{
layerId = "14A1E899-FED4-4F52-86F4-A1F822586E10";
paths = (
{
closed = 1;
nodes = (
"661 -24 OFFCURVE",
"854 94 OFFCURVE",
"854 325 CURVE SMOOTH",
"854 495 OFFCURVE",
"710 592 OFFCURVE",
"575 652 CURVE",
"704 724 OFFCURVE",
"809 804 OFFCURVE",
"809 948 CURVE SMOOTH",
"809 1140 OFFCURVE",
"632 1219 OFFCURVE",
"490 1219 CURVE SMOOTH",
"306 1219 OFFCURVE",
"151 1127 OFFCURVE",
"151 952 CURVE SMOOTH",
"151 791 OFFCURVE",
"259 690 OFFCURVE",
"373 633 CURVE",
"242 588 OFFCURVE",
"98 490 OFFCURVE",
"98 301 CURVE SMOOTH",
"98 77 OFFCURVE",
"289 -24 OFFCURVE",
"466 -24 CURVE SMOOTH"
);
},
{
closed = 1;
nodes = (
"321 35 OFFCURVE",
"193 120 OFFCURVE",
"193 307 CURVE SMOOTH",
"193 476 OFFCURVE",
"308 535 OFFCURVE",
"435 597 CURVE",
"586 528 OFFCURVE",
"751 448 OFFCURVE",
"751 284 CURVE SMOOTH",
"751 110 OFFCURVE",
"619 35 OFFCURVE",
"455 35 CURVE SMOOTH"
);
},
{
closed = 1;
nodes = (
"381 741 OFFCURVE",
"238 822 OFFCURVE",
"238 968 CURVE SMOOTH",
"238 1097 OFFCURVE",
"350 1157 OFFCURVE",
"467 1157 CURVE SMOOTH",
"587 1157 OFFCURVE",
"708 1108 OFFCURVE",
"708 948 CURVE SMOOTH",
"708 817 OFFCURVE",
"629 749 OFFCURVE",
"505 683 CURVE"
);
}
);
width = 964;
},
{
layerId = "72F22432-F665-4153-96BB-74D91BCC5F28";
paths = (
{
closed = 1;
nodes = (
"703 -24 OFFCURVE",
"895 103 OFFCURVE",
"895 325 CURVE SMOOTH",
"895 512 OFFCURVE",
"747 620 OFFCURVE",
"637 672 CURVE",
"766 753 OFFCURVE",
"833 838 OFFCURVE",
"833 948 CURVE SMOOTH",
"833 1149 OFFCURVE",
"649 1219 OFFCURVE",
"490 1219 CURVE SMOOTH",
"289 1219 OFFCURVE",
"115 1111 OFFCURVE",
"115 927 CURVE SMOOTH",
"115 750 OFFCURVE",
"227 646 OFFCURVE",
"313 603 CURVE",
"189 560 OFFCURVE",
"80 473 OFFCURVE",
"80 301 CURVE SMOOTH",
"80 77 OFFCURVE",
"278 -24 OFFCURVE",
"472 -24 CURVE SMOOTH"
);
},
{
closed = 1;
nodes = (
"346 41 OFFCURVE",
"260 153 OFFCURVE",
"260 307 CURVE SMOOTH",
"260 424 OFFCURVE",
"307 492 OFFCURVE",
"396 535 CURVE",
"527 475 OFFCURVE",
"666 368 OFFCURVE",
"666 241 CURVE SMOOTH",
"666 104 OFFCURVE",
"584 41 OFFCURVE",
"464 41 CURVE SMOOTH"
);
},
{
closed = 1;
nodes = (
"458 774 OFFCURVE",
"296 862 OFFCURVE",
"296 979 CURVE SMOOTH",
"296 1102 OFFCURVE",
"374 1155 OFFCURVE",
"477 1155 CURVE SMOOTH",
"583 1155 OFFCURVE",
"656 1094 OFFCURVE",
"656 947 CURVE SMOOTH",
"656 841 OFFCURVE",
"626 789 OFFCURVE",
"541 732 CURVE"
);
}
);
width = 975;
}
);
leftMetricsKey = eight;
rightMetricsKey = eight;
},
{
glyphname = nine.osf;
lastChange = "2020-10-16 01:11:15 +0000";
layers = (
{
layerId = "14A1E899-FED4-4F52-86F4-A1F822586E10";
paths = (
{
closed = 1;
nodes = (
"273 926 OFFCURVE",
"90 785 OFFCURVE",
"90 521 CURVE SMOOTH",
"90 292 OFFCURVE",
"263 131 OFFCURVE",
"439 131 CURVE SMOOTH",
"565 131 OFFCURVE",
"672 211 OFFCURVE",
"720 287 CURVE",
"653 -20 OFFCURVE",
"477 -168 OFFCURVE",
"243 -252 CURVE",
"266 -306 LINE",
"615 -222 OFFCURVE",
"855 76 OFFCURVE",
"855 432 CURVE SMOOTH",
"855 752 OFFCURVE",
"697 926 OFFCURVE",
"482 926 CURVE SMOOTH"
);
},
{
closed = 1;
nodes = (
"631 868 OFFCURVE",
"731 733 OFFCURVE",
"731 435 CURVE SMOOTH",
"731 395 OFFCURVE",
"729 382 OFFCURVE",
"724 362 CURVE",
"656 265 OFFCURVE",
"571 217 OFFCURVE",
"480 217 CURVE SMOOTH",
"314 217 OFFCURVE",
"226 321 OFFCURVE",
"226 556 CURVE SMOOTH",
"226 788 OFFCURVE",
"327 868 OFFCURVE",
"473 868 CURVE SMOOTH"
);
}
);
width = 945;
},
{
layerId = "72F22432-F665-4153-96BB-74D91BCC5F28";
paths = (
{
closed = 1;
nodes = (
"253 930 OFFCURVE",
"60 778 OFFCURVE",
"60 511 CURVE SMOOTH",
"60 288 OFFCURVE",
"216 127 OFFCURVE",
"421 127 CURVE SMOOTH",
"539 127 OFFCURVE",
"624 196 OFFCURVE",
"646 245 CURVE",
"594 -48 OFFCURVE",
"482 -170 OFFCURVE",
"244 -255 CURVE",
"272 -318 LINE",
"670 -243 OFFCURVE",
"912 69 OFFCURVE",
"912 430 CURVE SMOOTH",
"912 754 OFFCURVE",
"744 930 OFFCURVE",
"490 930 CURVE SMOOTH"
);
},
{
closed = 1;
nodes = (
"617 861 OFFCURVE",
"654 654 OFFCURVE",
"654 412 CURVE SMOOTH",
"654 379 OFFCURVE",
"652 367 OFFCURVE",
"647 347 CURVE",
"603 284 OFFCURVE",
"555 241 OFFCURVE",
"471 241 CURVE SMOOTH",
"346 241 OFFCURVE",
"318 384 OFFCURVE",
"318 543 CURVE SMOOTH",
"318 753 OFFCURVE",
"350 861 OFFCURVE",
"482 861 CURVE SMOOTH"
);
}
);
width = 962;
}
);
leftMetricsKey = nine;
rightMetricsKey = nine;
},
{
glyphname = period;
lastChange = "2020-11-04 19:06:33 +0000";
layers = (
{
layerId = "14A1E899-FED4-4F52-86F4-A1F822586E10";
paths = (
{
closed = 1;
nodes = (
"199 9 OFFCURVE",
"241 51 OFFCURVE",
"241 104 CURVE SMOOTH",
"241 157 OFFCURVE",
"199 199 OFFCURVE",
"146 199 CURVE SMOOTH",
"93 199 OFFCURVE",
"51 157 OFFCURVE",
"51 104 CURVE SMOOTH",
"51 51 OFFCURVE",
"93 9 OFFCURVE",
"146 9 CURVE SMOOTH"
);
}
);
width = 442;
},
{
layerId = "72F22432-F665-4153-96BB-74D91BCC5F28";
paths = (
{
closed = 1;
nodes = (
"216 -22 OFFCURVE",
"272 34 OFFCURVE",
"272 104 CURVE SMOOTH",
"272 174 OFFCURVE",
"216 230 OFFCURVE",
"146 230 CURVE SMOOTH",
"76 230 OFFCURVE",
"20 174 OFFCURVE",
"20 104 CURVE SMOOTH",
"20 34 OFFCURVE",
"76 -22 OFFCURVE",
"146 -22 CURVE SMOOTH"
);
}
);
width = 442;
}
);
leftKerningGroup = period;
rightKerningGroup = period;
unicode = 002E;
},
{
glyphname = comma;
lastChange = "2022-01-29 04:34:45 +0000";
layers = (
{
layerId = "14A1E899-FED4-4F52-86F4-A1F822586E10";
paths = (
{
closed = 1;
nodes = (
"132 -217 OFFCURVE",
"257 -81 OFFCURVE",
"257 68 CURVE SMOOTH",
"257 146 OFFCURVE",
"211 180 OFFCURVE",
"158 180 CURVE SMOOTH",
"102 180 OFFCURVE",
"58 144 OFFCURVE",
"58 88 CURVE SMOOTH",
"58 33 OFFCURVE",
"89 -4 OFFCURVE",
"143 -4 CURVE SMOOTH",
"162 -4 OFFCURVE",
"183 1 OFFCURVE",
"186 4 CURVE",
"176 -78 OFFCURVE",
"99 -171 OFFCURVE",
"39 -214 CURVE",
"76 -262 LINE"
);
}
);
width = 392;
},
{
layerId = "72F22432-F665-4153-96BB-74D91BCC5F28";
paths = (
{
closed = 1;
nodes = (
"152 -235 OFFCURVE",
"296 -120 OFFCURVE",
"296 78 CURVE SMOOTH",
"296 180 OFFCURVE",
"228 226 OFFCURVE",
"158 226 CURVE SMOOTH",
"88 226 OFFCURVE",
"26 178 OFFCURVE",
"26 104 CURVE SMOOTH",
"26 32 OFFCURVE",
"64 -18 OFFCURVE",
"138 -18 CURVE SMOOTH",
"164 -18 OFFCURVE",
"194 -11 OFFCURVE",
"198 -7 CURVE",
"197 -87 OFFCURVE",
"117 -168 OFFCURVE",
"25 -240 CURVE",
"66 -302 LINE"
);
}
);
width = 392;
}
);
leftKerningGroup = period;
rightKerningGroup = period;
unicode = 002C;
},
{
glyphname = exclam;
lastChange = "2020-11-11 19:39:09 +0000";
layers = (
{
components = (
{
name = period;
transform = "{1, 0, 0, 1, 8, 0}";
}
);
layerId = "14A1E899-FED4-4F52-86F4-A1F822586E10";
paths = (
{
closed = 1;
nodes = (
"176 342 LINE",
"214 1262 LINE",
"214 1400 LINE",
"96 1400 LINE",
"96 1262 LINE",
"132 342 LINE"
);
}
);
width = 380;
},
{
components = (
{
name = period;
transform = "{1, 0, 0, 1, 8, 0}";
}
);
layerId = "72F22432-F665-4153-96BB-74D91BCC5F28";
paths = (
{
closed = 1;
nodes = (
"206 352 LINE",
"254 1262 LINE",
"254 1400 LINE",
"56 1400 LINE",
"56 1262 LINE",
"102 352 LINE"
);
}
);
width = 380;
}
);
unicode = 0021;
},
{
glyphname = question;
lastChange = "2020-11-11 19:48:22 +0000";
layers = (
{
components = (
{
name = period;
transform = "{1, 0, 0, 1, 292, 0}";
}
);
layerId = "14A1E899-FED4-4F52-86F4-A1F822586E10";
paths = (
{
closed = 1;
nodes = (
"468 412 LINE",
"478 678 OFFCURVE",
"832 820 OFFCURVE",
"832 1096 CURVE SMOOTH",
"832 1336 OFFCURVE",
"622 1424 OFFCURVE",
"470 1424 CURVE SMOOTH",
"346 1424 OFFCURVE",
"162 1376 OFFCURVE",
"70 1248 CURVE",
"90 988 LINE",
"150 988 LINE",
"154 1240 OFFCURVE",
"259 1346 OFFCURVE",
"432 1346 CURVE SMOOTH",
"580 1346 OFFCURVE",
"706 1260 OFFCURVE",
"706 1096 CURVE SMOOTH",
"706 836 OFFCURVE",
"402 723 OFFCURVE",
"402 412 CURVE"
);
}
);
width = 902;
},
{
components = (
{
name = period;
transform = "{1, 0, 0, 1, 302, 0}";
}
);
layerId = "72F22432-F665-4153-96BB-74D91BCC5F28";
paths = (
{
closed = 1;
nodes = (
"488 352 LINE",
"498 588 OFFCURVE",
"892 820 OFFCURVE",
"892 1096 CURVE SMOOTH",
"892 1336 OFFCURVE",
"682 1424 OFFCURVE",
"490 1424 CURVE SMOOTH",
"366 1424 OFFCURVE",
"193 1376 OFFCURVE",
"71 1258 CURVE",
"90 968 LINE",
"180 968 LINE",
"214 1180 OFFCURVE",
"269 1346 OFFCURVE",
"442 1346 CURVE SMOOTH",
"590 1346 OFFCURVE",
"676 1230 OFFCURVE",
"676 1066 CURVE SMOOTH",
"676 816 OFFCURVE",
"402 648 OFFCURVE",
"402 352 CURVE"
);
}
);
width = 952;
}
);
unicode = 003F;
},
{
glyphname = periodcentered;
lastChange = "2020-10-13 20:08:34 +0000";
layers = (
{
layerId = "14A1E899-FED4-4F52-86F4-A1F822586E10";
paths = (
{
closed = 1;
nodes = (
"191 726 OFFCURVE",
"228 763 OFFCURVE",
"228 808 CURVE SMOOTH",
"228 853 OFFCURVE",
"191 890 OFFCURVE",
"146 890 CURVE SMOOTH",
"101 890 OFFCURVE",
"64 853 OFFCURVE",
"64 808 CURVE SMOOTH",
"64 763 OFFCURVE",
"101 726 OFFCURVE",
"146 726 CURVE SMOOTH"
);
}
);
width = 292;
},
{
layerId = "72F22432-F665-4153-96BB-74D91BCC5F28";
paths = (
{
closed = 1;
nodes = (
"206 700 OFFCURVE",
"254 748 OFFCURVE",
"254 808 CURVE SMOOTH",
"254 868 OFFCURVE",
"206 916 OFFCURVE",
"146 916 CURVE SMOOTH",
"86 916 OFFCURVE",
"38 868 OFFCURVE",
"38 808 CURVE SMOOTH",
"38 748 OFFCURVE",
"86 700 OFFCURVE",
"146 700 CURVE SMOOTH"
);
}
);
width = 292;
}
);
unicode = 00B7;
},
{
glyphname = bullet;
lastChange = "2020-10-29 17:13:06 +0000";
layers = (
{
layerId = "14A1E899-FED4-4F52-86F4-A1F822586E10";
paths = (
{
closed = 1;
nodes = (
"286 584 OFFCURVE",
"325 623 OFFCURVE",
"325 672 CURVE SMOOTH",
"325 720 OFFCURVE",
"286 759 OFFCURVE",
"238 759 CURVE SMOOTH",
"189 759 OFFCURVE",
"150 720 OFFCURVE",
"150 672 CURVE SMOOTH",
"150 623 OFFCURVE",
"189 584 OFFCURVE",
"238 584 CURVE SMOOTH"
);
}
);
width = 475;
},
{
layerId = "72F22432-F665-4153-96BB-74D91BCC5F28";
paths = (
{
closed = 1;
nodes = (
"365 485 OFFCURVE",
"441 561 OFFCURVE",
"441 656 CURVE SMOOTH",
"441 750 OFFCURVE",
"365 826 OFFCURVE",
"271 826 CURVE SMOOTH",
"176 826 OFFCURVE",
"100 750 OFFCURVE",
"100 656 CURVE SMOOTH",
"100 561 OFFCURVE",
"176 485 OFFCURVE",
"271 485 CURVE SMOOTH"
);
}
);
width = 541;
}
);
unicode = 2022;
},
{
glyphname = asterisk;
lastChange = "2020-10-29 17:17:32 +0000";
layers = (
{
layerId = "14A1E899-FED4-4F52-86F4-A1F822586E10";
paths = (
{
closed = 1;
nodes = (
"162 977 OFFCURVE",
"265 1059 OFFCURVE",
"325 1112 CURVE",
"351 1127 LINE",
"426 1152 OFFCURVE",
"544 1197 OFFCURVE",
"563 1208 CURVE SMOOTH",
"595 1227 OFFCURVE",
"611 1256 OFFCURVE",
"595 1284 CURVE SMOOTH",
"579 1312 OFFCURVE",
"545 1313 OFFCURVE",
"513 1294 CURVE SMOOTH",
"497 1285 OFFCURVE",
"396 1208 OFFCURVE",
"335 1157 CURVE",
"305 1138 LINE",
"231 1111 OFFCURVE",
"109 1061 OFFCURVE",
"93 1052 CURVE SMOOTH",
"61 1033 OFFCURVE",
"45 1004 OFFCURVE",
"61 976 CURVE SMOOTH",
"77 948 OFFCURVE",
"111 947 OFFCURVE",
"143 966 CURVE SMOOTH"
);
},
{
closed = 1;
nodes = (
"545 947 OFFCURVE",
"579 948 OFFCURVE",
"595 976 CURVE SMOOTH",
"611 1004 OFFCURVE",
"595 1033 OFFCURVE",
"563 1052 CURVE SMOOTH",
"544 1063 OFFCURVE",
"421 1111 OFFCURVE",
"345 1136 CURVE",
"319 1151 LINE",
"260 1204 OFFCURVE",
"162 1283 OFFCURVE",
"143 1294 CURVE SMOOTH",
"111 1313 OFFCURVE",
"77 1312 OFFCURVE",
"61 1284 CURVE SMOOTH",
"45 1256 OFFCURVE",
"61 1227 OFFCURVE",
"93 1208 CURVE SMOOTH",
"109 1199 OFFCURVE",
"226 1150 OFFCURVE",
"301 1123 CURVE",
"333 1106 LINE",
"393 1055 OFFCURVE",
"497 975 OFFCURVE",
"513 966 CURVE SMOOTH"
);
},
{
closed = 1;
nodes = (
"360 822 OFFCURVE",
"378 850 OFFCURVE",
"378 888 CURVE SMOOTH",
"378 910 OFFCURVE",
"358 1040 OFFCURVE",
"342 1118 CURVE",
"342 1148 LINE",
"358 1226 OFFCURVE",
"378 1350 OFFCURVE",
"378 1372 CURVE SMOOTH",
"378 1410 OFFCURVE",
"360 1438 OFFCURVE",
"328 1438 CURVE SMOOTH",
"296 1438 OFFCURVE",
"278 1410 OFFCURVE",
"278 1372 CURVE SMOOTH",
"278 1354 OFFCURVE",
"294 1228 OFFCURVE",
"308 1150 CURVE",
"310 1114 LINE",
"296 1036 OFFCURVE",
"278 906 OFFCURVE",
"278 888 CURVE SMOOTH",
"278 850 OFFCURVE",
"296 822 OFFCURVE",
"328 822 CURVE SMOOTH"
);
}
);
width = 710;
},
{
layerId = "72F22432-F665-4153-96BB-74D91BCC5F28";
paths = (
{
closed = 1;
nodes = (
"209 969 OFFCURVE",
"271 1049 OFFCURVE",
"330 1103 CURVE",
"356 1118 LINE",
"431 1143 OFFCURVE",
"527 1153 OFFCURVE",
"572 1179 CURVE SMOOTH",
"614 1203 OFFCURVE",
"616 1248 OFFCURVE",
"595 1284 CURVE SMOOTH",
"574 1320 OFFCURVE",
"534 1341 OFFCURVE",
"492 1317 CURVE SMOOTH",
"451 1293 OFFCURVE",
"391 1217 OFFCURVE",
"330 1166 CURVE",
"300 1146 LINE",
"226 1119 OFFCURVE",
"125 1105 OFFCURVE",
"84 1081 CURVE SMOOTH",
"42 1057 OFFCURVE",
"40 1012 OFFCURVE",
"61 976 CURVE SMOOTH",
"82 940 OFFCURVE",
"122 919 OFFCURVE",
"164 943 CURVE SMOOTH"
);
},
{
closed = 1;
nodes = (
"534 919 OFFCURVE",
"574 940 OFFCURVE",
"595 976 CURVE SMOOTH",
"616 1012 OFFCURVE",
"614 1057 OFFCURVE",
"572 1081 CURVE SMOOTH",
"527 1107 OFFCURVE",
"426 1121 OFFCURVE",
"350 1145 CURVE",
"324 1160 LINE",
"265 1213 OFFCURVE",
"209 1291 OFFCURVE",
"164 1317 CURVE SMOOTH",
"122 1341 OFFCURVE",
"82 1320 OFFCURVE",
"61 1284 CURVE SMOOTH",
"40 1248 OFFCURVE",
"42 1203 OFFCURVE",
"84 1179 CURVE SMOOTH",
"125 1155 OFFCURVE",
"221 1141 OFFCURVE",
"296 1114 CURVE",
"328 1098 LINE",
"388 1047 OFFCURVE",
"451 967 OFFCURVE",
"492 943 CURVE SMOOTH"
);
},
{
closed = 1;
nodes = (
"370 822 OFFCURVE",
"408 846 OFFCURVE",
"408 894 CURVE SMOOTH",
"408 946 OFFCURVE",
"369 1040 OFFCURVE",
"352 1118 CURVE",
"352 1148 LINE",
"368 1226 OFFCURVE",
"408 1314 OFFCURVE",
"408 1366 CURVE SMOOTH",
"408 1414 OFFCURVE",
"370 1438 OFFCURVE",
"328 1438 CURVE SMOOTH",
"286 1438 OFFCURVE",
"248 1414 OFFCURVE",
"248 1366 CURVE SMOOTH",
"248 1318 OFFCURVE",
"284 1228 OFFCURVE",
"298 1150 CURVE",
"300 1114 LINE",
"286 1036 OFFCURVE",
"248 942 OFFCURVE",
"248 894 CURVE SMOOTH",
"248 846 OFFCURVE",
"286 822 OFFCURVE",
"328 822 CURVE SMOOTH"
);
}
);
width = 710;
}
);
unicode = 002A;
},
{
glyphname = numbersign;
lastChange = "2022-02-18 16:12:31 +0000";
layers = (
{
layerId = "14A1E899-FED4-4F52-86F4-A1F822586E10";
paths = (
{
closed = 1;
nodes = (
"244 0 LINE",
"341 0 LINE",
"606 1400 LINE",
"509 1400 LINE"
);
},
{
closed = 1;
nodes = (
"603 0 LINE",
"700 0 LINE",
"965 1400 LINE",
"868 1400 LINE"
);
},
{
closed = 1;
nodes = (
"169 924 LINE",
"1120 924 LINE",
"1134 998 LINE",
"183 998 LINE"
);
},
{
closed = 1;
nodes = (
"90 408 LINE",
"1041 408 LINE",
"1055 482 LINE",
"104 482 LINE"
);
}
);
width = 1224;
},
{
layerId = "72F22432-F665-4153-96BB-74D91BCC5F28";
paths = (
{
closed = 1;
nodes = (
"186 0 LINE",
"383 0 LINE",
"648 1400 LINE",
"451 1400 LINE"
);
},
{
closed = 1;
nodes = (
"605 0 LINE",
"802 0 LINE",
"1067 1400 LINE",
"870 1400 LINE"
);
},
{
closed = 1;
nodes = (
"131 924 LINE",
"1182 924 LINE",
"1196 998 LINE",
"145 998 LINE"
);
},
{
closed = 1;
nodes = (
"52 408 LINE",
"1103 408 LINE",
"1117 482 LINE",
"66 482 LINE"
);
}
);
width = 1360;
}
);
unicode = 0023;
},
{
glyphname = slash;
lastChange = "2020-10-29 17:17:51 +0000";
layers = (
{
layerId = "14A1E899-FED4-4F52-86F4-A1F822586E10";
paths = (
{
closed = 1;
nodes = (
"129 -179 LINE",
"707 1500 LINE",
"621 1500 LINE",
"40 -179 LINE"
);
}
);
width = 854;
},
{
layerId = "72F22432-F665-4153-96BB-74D91BCC5F28";
paths = (
{
closed = 1;
nodes = (
"189 -179 LINE",
"767 1500 LINE",
"621 1500 LINE",
"40 -179 LINE"
);
}
);
width = 854;
}
);
unicode = 002F;
},
{
glyphname = backslash;
lastChange = "2020-10-29 17:17:56 +0000";
layers = (
{
layerId = "14A1E899-FED4-4F52-86F4-A1F822586E10";
paths = (
{
closed = 1;
nodes = (
"146 1500 LINE",
"60 1500 LINE",
"638 -179 LINE",
"727 -179 LINE"
);
}
);
width = 854;
},
{
layerId = "72F22432-F665-4153-96BB-74D91BCC5F28";
paths = (
{
closed = 1;
nodes = (
"206 1500 LINE",
"60 1500 LINE",
"638 -179 LINE",
"787 -179 LINE"
);
}
);
width = 854;
}
);
unicode = 005C;
},
{
glyphname = hyphen;
lastChange = "2020-10-13 20:08:34 +0000";
layers = (
{
layerId = "14A1E899-FED4-4F52-86F4-A1F822586E10";
paths = (
{
closed = 1;
nodes = (
"702 450 LINE",
"702 532 LINE",
"80 532 LINE",
"80 450 LINE"
);
}
);
width = 782;
},
{
layerId = "72F22432-F665-4153-96BB-74D91BCC5F28";
paths = (
{
closed = 1;
nodes = (
"702 450 LINE",
"702 532 LINE",
"80 532 LINE",
"80 450 LINE"
);
}
);
width = 782;
}
);
leftKerningGroup = dash;
rightKerningGroup = dash;
unicode = 002D;
},
{
glyphname = endash;
lastChange = "2020-10-13 20:08:34 +0000";
layers = (
{
layerId = "14A1E899-FED4-4F52-86F4-A1F822586E10";
paths = (
{
closed = 1;
nodes = (
"839 450 LINE",
"839 532 LINE",
"80 532 LINE",
"80 450 LINE"
);
}
);
width = 1020;
},
{
layerId = "72F22432-F665-4153-96BB-74D91BCC5F28";
paths = (
{
closed = 1;
nodes = (
"839 450 LINE",
"839 532 LINE",
"80 532 LINE",
"80 450 LINE"
);
}
);
width = 1020;
}
);
unicode = 2013;
},
{
glyphname = emdash;
lastChange = "2020-10-13 20:08:34 +0000";
layers = (
{
layerId = "14A1E899-FED4-4F52-86F4-A1F822586E10";
paths = (
{
closed = 1;
nodes = (
"1211 450 LINE",
"1211 532 LINE",
"74 532 LINE",
"74 450 LINE"
);
}
);
width = 1374;
},
{
layerId = "72F22432-F665-4153-96BB-74D91BCC5F28";
paths = (
{
closed = 1;
nodes = (
"1211 450 LINE",
"1211 532 LINE",
"74 532 LINE",
"74 450 LINE"
);
}
);
width = 1374;
}
);
unicode = 2014;
},
{
glyphname = underscore;
lastChange = "2020-10-13 20:08:34 +0000";
layers = (
{
layerId = "14A1E899-FED4-4F52-86F4-A1F822586E10";
paths = (
{
closed = 1;
nodes = (
"1086 -246 LINE",
"1086 -164 LINE",
"74 -164 LINE",
"74 -246 LINE"
);
}
);
width = 1210;
},
{
layerId = "72F22432-F665-4153-96BB-74D91BCC5F28";
paths = (
{
closed = 1;
nodes = (
"1086 -246 LINE",
"1086 -164 LINE",
"74 -164 LINE",
"74 -246 LINE"
);
}
);
width = 1210;
}
);
unicode = 005F;
},
